<?xml version="1.0" standalone="no"?>
<!DOCTYPE svg PUBLIC "-//W3C//DTD SVG 1.1//EN" "http://www.w3.org/Graphics/SVG/1.1/DTD/svg11.dtd" >
<svg>
<metadata>
Created by FontForge 20120731 at Tue Jan 26 16:47:48 2016
 By ,,,
Copyright (c) 1989, 1990 Adobe Systems Incorporated. All Rights Reserved.Avant Garde Gothic is a registered trademark of International Typeface Corporation.
</metadata>
<defs>
<font id="AvantGardeLT-CondMedium" horiz-adv-x="500" >
  <font-face 
    font-family="AvantGarde LT CondMedium"
    font-weight="500"
    font-stretch="normal"
    units-per-em="1000"
    panose-1="2 0 6 6 2 0 0 2 0 4"
    ascent="800"
    descent="-200"
    x-height="560"
    cap-height="724"
    bbox="-167 -226 1001 980"
    underline-thickness="50"
    underline-position="-75"
    unicode-range="U+0020-FB02"
  />
<missing-glyph 
 />
    <glyph glyph-name=".notdef" 
 />
    <glyph glyph-name="exclam" unicode="!" horiz-adv-x="222" 
d="M63 0v124h96v-124h-96zM60 724h102v-542h-102v542z" />
    <glyph glyph-name="quotedbl" unicode="&#x22;" horiz-adv-x="333" 
d="M55 724h82v-248h-82v248zM196 724h82v-248h-82v248z" />
    <glyph glyph-name="numbersign" unicode="#" horiz-adv-x="556" 
d="M235 437l-21 -150h115l21 150h-115zM502 221h-100l-31 -221h-82l30 221h-115l-30 -221h-83l31 221h-98l5 66h103l20 150h-99l5 66h103l30 221h83l-34 -221h119l34 221h79l-30 -221h95l-5 -66h-99l-22 -150h96z" />
    <glyph glyph-name="dollar" unicode="$" horiz-adv-x="556" 
d="M158 206q0 -54 29 -88t84 -34q51 0 86 30.5t35 83.5q0 32 -14 54t-36.5 38t-51 28t-59 24.5t-59 27.5t-51 36.5t-36.5 51.5t-14 73q0 82 45 134.5t126 58.5v78h76v-78q38 -5 67.5 -22.5t49.5 -45t30 -63.5t10 -76h-102q-1 26 -7 48.5t-18.5 39t-32.5 26t-49 9.5
q-45 0 -72 -30.5t-27 -74.5q0 -36 24 -58t59.5 -39t77 -33.5t77 -41.5t59.5 -63.5t24 -98.5q0 -40 -12.5 -76t-35.5 -63.5t-56.5 -44t-76.5 -17.5v-88h-76v88q-85 2 -130 57t-45 149h102z" />
    <glyph glyph-name="percent" unicode="%" horiz-adv-x="889" 
d="M675 290q-25 0 -41.5 -10.5t-27 -27t-15 -37t-4.5 -40.5t4.5 -40.5t15 -37t27 -27t41.5 -10.5t41.5 10.5t27 27t15 37t4.5 40.5t-4.5 40.5t-15 37t-27 27t-41.5 10.5zM214 664q-25 0 -41.5 -10.5t-27 -27t-15 -37t-4.5 -40.5t4.5 -40.5t15 -37t27 -27t41.5 -10.5
t41.5 10.5t27 27t15 37t4.5 40.5t-4.5 40.5t-15 37t-27 27t-41.5 10.5zM213 -12l371 748h77l-372 -748h-76zM675 362q40 0 71.5 -15.5t53.5 -41.5t33.5 -59.5t11.5 -70.5t-11.5 -70.5t-33.5 -59.5t-53.5 -41.5t-71.5 -15.5t-71.5 15.5t-53.5 41.5t-33.5 59.5t-11.5 70.5
t11.5 70.5t33.5 59.5t53.5 41.5t71.5 15.5zM214 736q40 0 71.5 -15.5t53.5 -41.5t33.5 -59.5t11.5 -70.5t-11.5 -70.5t-33.5 -59.5t-53.5 -41.5t-71.5 -15.5t-71.5 15.5t-53.5 41.5t-33.5 59.5t-11.5 70.5t11.5 70.5t33.5 59.5t53.5 41.5t71.5 15.5z" />
    <glyph glyph-name="ampersand" unicode="&#x26;" horiz-adv-x="611" 
d="M260 644q-35 0 -48.5 -23.5t-13.5 -53.5q0 -26 10 -55.5t26 -49.5q26 19 42 34.5t25 29.5t12 27t3 27q0 26 -15 45t-41 19zM209 331q-38 -26 -61 -58.5t-23 -75.5q0 -21 6 -41.5t19 -37.5t33 -27.5t49 -10.5q22 0 38 5.5t29.5 15.5t25.5 22.5t25 27.5zM400 241
q30 54 56 103.5t52 103.5l86 -43q-31 -62 -64.5 -122.5t-65.5 -118.5q31 -41 62.5 -80.5t63.5 -83.5h-120q-16 23 -30 43t-31 38q-36 -51 -78.5 -72t-94.5 -21q-56 0 -95 16.5t-64 45.5t-36.5 68t-11.5 83q0 69 34.5 120.5t91.5 86.5q-22 30 -37.5 70t-15.5 84
q0 37 9.5 68.5t29 55t49 37t68.5 13.5q75 0 114.5 -45t39.5 -117q0 -33 -10 -60t-27.5 -49.5t-40 -42t-46.5 -38.5z" />
    <glyph glyph-name="quoteright" unicode="&#x2019;" horiz-adv-x="222" 
d="M115 736h80l-101 -220h-67z" />
    <glyph glyph-name="parenleft" unicode="(" horiz-adv-x="389" 
d="M358 644q-102 -68 -151 -163.5t-49 -213.5t49 -213.5t151 -163.5v-98q-72 33 -127.5 83.5t-93 113t-56.5 133.5t-19 145t19 145t56.5 133.5t93 113t127.5 83.5v-98z" />
    <glyph glyph-name="parenright" unicode=")" horiz-adv-x="389" 
d="M31 742q72 -33 127 -83.5t92.5 -113t57 -133.5t19.5 -145t-19.5 -145t-57 -133.5t-92.5 -113t-127 -83.5v98q102 68 151 163.5t49 213.5t-49 213.5t-151 163.5v98z" />
    <glyph glyph-name="asterisk" unicode="*" horiz-adv-x="444" 
d="M260 724l-20 -150l121 92l38 -66l-139 -58l139 -59l-38 -65l-121 88l20 -148h-76l20 148l-121 -92l-38 69l135 59l-135 58l38 66l121 -92l-20 150h76z" />
    <glyph glyph-name="plus" unicode="+" horiz-adv-x="600" 
d="M258 506h84v-211h211v-84h-211v-211h-84v211h-211v84h211v211z" />
    <glyph glyph-name="comma" unicode="," horiz-adv-x="278" 
d="M109 124h89l-106 -228h-86z" />
    <glyph glyph-name="hyphen" unicode="-" horiz-adv-x="333" 
d="M47 322h239v-84h-239v84z" />
    <glyph glyph-name="hyphen" unicode="&#xad;" horiz-adv-x="333" 
d="M47 322h239v-84h-239v84z" />
    <glyph glyph-name="period" unicode="." horiz-adv-x="278" 
d="M91 0v124h96v-124h-96z" />
    <glyph glyph-name="slash" unicode="/" horiz-adv-x="278" 
d="M208 736h85l-223 -748h-85z" />
    <glyph glyph-name="zero" unicode="0" horiz-adv-x="556" 
d="M415 362q0 74 -11.5 127.5t-30.5 88t-44 50.5t-51 16t-51 -16t-44 -50.5t-30.5 -88t-11.5 -127.5t11.5 -127.5t30.5 -88t44 -50.5t51 -16t51 16t44 50.5t30.5 88t11.5 127.5zM278 -12q-52 0 -95.5 25t-75.5 73t-50 117.5t-18 158.5t18 158.5t50 117.5t75.5 73t95.5 25
t95.5 -25t75.5 -73t50 -117.5t18 -158.5t-18 -158.5t-50 -117.5t-75.5 -73t-95.5 -25z" />
    <glyph glyph-name="one" unicode="1" horiz-adv-x="556" 
d="M345 724v-724h-102v640h-125v84h227z" />
    <glyph glyph-name="two" unicode="2" horiz-adv-x="556" 
d="M44 0v88q69 80 121 136t90 96.5t62.5 68t39.5 50.5t21 44.5t6 50.5q0 47 -30 78.5t-78 31.5q-32 0 -55.5 -10.5t-39 -29t-24 -43.5t-9.5 -55h-102q0 109 62 169.5t171 60.5q43 0 81 -14.5t66 -41t44 -63t16 -80.5q0 -28 -3.5 -53t-15 -51.5t-32.5 -57t-55.5 -70.5
t-85 -92t-120.5 -121h312v-92h-442z" />
    <glyph glyph-name="three" unicode="3" horiz-adv-x="556" 
d="M215 433q33 0 62.5 2.5t51.5 13.5t35 33.5t13 62.5q0 42 -28 70.5t-81 28.5q-50 0 -79 -27t-34 -84h-102q0 53 18 91.5t48.5 63t72 36.5t89.5 12q39 0 74.5 -13.5t63 -37.5t44 -58t16.5 -75q0 -27 -6 -54.5t-19 -50t-33 -37.5t-48 -16v-2q67 -14 101.5 -64.5t34.5 -124.5
q0 -53 -20.5 -93t-54.5 -67t-76.5 -41t-87.5 -14q-119 0 -177.5 62t-58.5 169h102q0 -64 31.5 -101.5t101.5 -37.5q36 0 62.5 11.5t43 29t24.5 38.5t8 40q0 73 -42 111.5t-117 38.5q-8 0 -16 -0.5t-17 -1.5v86z" />
    <glyph glyph-name="four" unicode="4" horiz-adv-x="556" 
d="M308 550h-2l-172 -300h174v300zM32 252l271 472h107v-474h90v-92h-90v-158h-102v158h-276v94z" />
    <glyph glyph-name="five" unicode="5" horiz-adv-x="556" 
d="M144 217q-1 -27 7.5 -52t24 -44t38.5 -30t52 -11q137 0 137 173q0 44 -9 74.5t-25.5 50t-39.5 28t-50 8.5q-43 0 -71 -19.5t-45 -55.5l-103 23l43 362h367v-92h-278l-26 -181l2 -2q20 32 53 44.5t71 12.5q57 0 97.5 -22.5t66 -58.5t37.5 -82t12 -93q0 -122 -62.5 -192
t-182.5 -70q-58 0 -99 16.5t-67 46.5t-38.5 72.5t-13.5 93.5h102z" />
    <glyph glyph-name="six" unicode="6" horiz-adv-x="556" 
d="M288 386q-27 0 -50 -12t-39 -31.5t-25 -45t-9 -52.5q0 -79 32 -122t92 -43q56 0 88 34.5t32 110.5t-33 118.5t-88 42.5zM406 532q-3 23 -10.5 45t-21 38.5t-33 26.5t-46.5 10q-42 0 -70 -23.5t-44.5 -61t-24.5 -85t-9 -95.5h2q15 38 57.5 64.5t98.5 26.5q45 0 83 -18.5
t65 -50.5t42.5 -74.5t15.5 -90.5q0 -59 -16 -106.5t-46.5 -80.5t-74 -51t-98.5 -18q-108 0 -169.5 89t-61.5 265q0 199 66 296.5t185 97.5q47 0 84 -14.5t62.5 -41.5t39.5 -64.5t16 -83.5h-92z" />
    <glyph glyph-name="seven" unicode="7" horiz-adv-x="556" 
d="M30 724h456v-80l-221 -644h-115l224 632h-344v92z" />
    <glyph glyph-name="eight" unicode="8" horiz-adv-x="556" 
d="M278 439q51 0 78 28.5t27 75.5q0 23 -9 41.5t-24 32t-34 20.5t-38 7q-20 0 -39 -7.5t-34 -21t-24 -32.5t-9 -41q0 -48 28 -75.5t78 -27.5zM276 347q-60 0 -97 -37.5t-37 -96.5q0 -28 10.5 -52t28.5 -42t42 -28.5t52 -10.5q60 0 99.5 34t39.5 97t-37.5 99.5t-100.5 36.5z
M274 -12q-53 0 -97 15t-76 44.5t-49.5 73.5t-17.5 102q0 31 9.5 59.5t26.5 51.5t40.5 39t51.5 24v2q-22 7 -40 22t-31 35t-20 44t-7 50q0 47 18 82t48.5 58t70.5 34.5t83 11.5q42 0 80 -13t66 -37.5t44.5 -59.5t16.5 -79q0 -53 -21.5 -91.5t-66.5 -58.5v-1q63 -20 91 -69.5
t28 -116.5q0 -52 -19.5 -93.5t-53 -70t-78.5 -43.5t-97 -15z" />
    <glyph glyph-name="nine" unicode="9" horiz-adv-x="556" 
d="M268 338q55 0 89 37t34 104q0 36 -8 66t-23 52t-37 34.5t-50 12.5q-60 0 -93 -35t-33 -110q0 -76 33 -118.5t88 -42.5zM150 192q3 -23 10.5 -45t22 -38.5t36 -26.5t51.5 -10q39 0 65.5 24t44 63.5t25.5 90t10 103.5h-2q-7 -26 -23 -46t-37.5 -33.5t-47.5 -20.5t-54 -7
q-96 0 -151 69.5t-55 194.5q0 48 16 89t45.5 71.5t70 48t89.5 17.5q55 0 100.5 -22.5t77.5 -67.5t49.5 -111t17.5 -153q0 -200 -62 -297t-189 -97q-47 0 -84 14.5t-62.5 41.5t-40 64.5t-15.5 83.5h92z" />
    <glyph glyph-name="colon" unicode=":" horiz-adv-x="278" 
d="M91 0v124h96v-124h-96zM91 346v124h96v-124h-96z" />
    <glyph glyph-name="semicolon" unicode=";" horiz-adv-x="278" 
d="M91 346v124h96v-124h-96zM109 124h89l-106 -228h-86z" />
    <glyph glyph-name="less" unicode="&#x3c;" horiz-adv-x="600" 
d="M553 -8l-506 225v72l506 225v-90l-391 -171l391 -171v-90z" />
    <glyph glyph-name="equal" unicode="=" horiz-adv-x="600" 
d="M553 106h-506v84h506v-84zM553 316h-506v84h506v-84z" />
    <glyph glyph-name="greater" unicode="&#x3e;" horiz-adv-x="600" 
d="M47 82l391 171l-391 171v90l506 -225v-72l-506 -225v90z" />
    <glyph glyph-name="question" unicode="?" horiz-adv-x="444" 
d="M163 0v124h96v-124h-96zM163 182v110q0 31 11.5 54t29 42t37.5 35t37.5 33.5t29 38t11.5 47.5q0 50 -25 78t-74 28q-19 0 -36.5 -6t-30.5 -18.5t-21 -32t-8 -46.5v-37h-102v50q0 35 13 67.5t38 57t62.5 39t87.5 14.5q47 0 83.5 -15t62 -40.5t39 -59.5t13.5 -73
q0 -45 -12 -76.5t-30 -55t-39 -41l-39 -32.5t-30 -30.5t-12 -34.5v-96h-96z" />
    <glyph glyph-name="at" unicode="@" horiz-adv-x="800" 
d="M358 218q31 0 57 18t45 45.5t29.5 60t10.5 60.5q0 37 -24 64t-58 27q-32 0 -57.5 -17.5t-44.5 -44t-29 -58.5t-10 -61q0 -41 22.5 -67.5t58.5 -26.5zM548 556h73l-75 -273q-8 -24 -8 -46q0 -11 4 -18.5t15 -7.5q24 0 48 17t42.5 45.5t30.5 65.5t12 77q0 60 -21.5 107
t-59 80t-87.5 50t-107 17q-66 0 -121 -24.5t-94.5 -66.5t-61.5 -98.5t-22 -121.5q0 -66 23.5 -122t65 -96.5t98 -63.5t121.5 -23q68 0 129.5 27.5t103.5 75.5h72q-50 -80 -131.5 -124.5t-177.5 -44.5q-80 0 -149.5 29t-120.5 79t-80.5 118.5t-29.5 148.5q0 78 29.5 146.5
t80.5 118.5t119.5 79t145.5 29q69 0 131.5 -22.5t110 -63t75.5 -97t28 -125.5q0 -71 -26 -124.5t-64 -90t-80 -55t-73 -18.5q-24 0 -41.5 15t-19.5 45h-2q-21 -23 -51.5 -41.5t-63.5 -18.5q-32 0 -59.5 13t-47.5 35t-31.5 52t-11.5 63q0 49 16 97t45.5 86t71 61.5t92.5 23.5
q37 0 66.5 -17.5t49.5 -57.5z" />
    <glyph glyph-name="A" unicode="A" 
d="M175 306h145l-72 258h-2zM-3 0l200 724h98l208 -724h-96l-63 214h-192l-58 -214h-97z" />
    <glyph glyph-name="B" unicode="B" horiz-adv-x="556" 
d="M172 418h93q24 0 45.5 6.5t38 19.5t26 33.5t9.5 47.5t-9.5 47.5t-26 33.5t-38 19.5t-45.5 6.5h-93v-214zM172 92h117q66 0 96 29.5t30 87.5q0 49 -34.5 83t-97.5 34h-111v-234zM70 724h201q110 0 162.5 -53.5t52.5 -140.5q0 -25 -5 -49t-17 -44.5t-31 -35.5t-47 -22v-2
q65 -8 98 -56t33 -113q0 -56 -17 -95.5t-47.5 -64.5t-72 -36.5t-89.5 -11.5h-221v724z" />
    <glyph glyph-name="C" unicode="C" horiz-adv-x="556" 
d="M429 446q-5 38 -13 75t-24.5 66t-42 47t-64.5 18q-35 0 -62.5 -20.5t-46 -58.5t-28.5 -91.5t-10 -119.5t10 -119.5t28.5 -91.5t46 -58.5t62.5 -20.5q44 0 70.5 17t41.5 45.5t21 64.5t10 74h96q0 -62 -13 -114t-42 -90t-74.5 -59.5t-109.5 -21.5q-51 0 -96.5 22.5
t-79.5 69t-53.5 117t-19.5 165.5t19.5 165.5t53.5 117t79.5 69t96.5 22.5q64 0 108 -22.5t72 -61.5t41.5 -92t18.5 -114h-96z" />
    <glyph glyph-name="D" unicode="D" horiz-adv-x="611" 
d="M172 92h97q60 0 99 21t62 58t32.5 86t9.5 105t-9.5 105t-32.5 86t-62 58t-99 21h-97v-540zM70 724h215q79 0 134 -28.5t89.5 -78t50 -115.5t15.5 -140t-15.5 -140t-50 -115.5t-89.5 -78t-134 -28.5h-215v724z" />
    <glyph glyph-name="E" unicode="E" 
d="M70 0v724h364v-92h-262v-208h262v-92h-262v-240h262v-92h-364z" />
    <glyph glyph-name="F" unicode="F" horiz-adv-x="444" 
d="M414 724v-92h-242v-208h242v-92h-242v-332h-102v724h344z" />
    <glyph glyph-name="G" unicode="G" horiz-adv-x="611" 
d="M451 483q-5 34 -15 65t-27 54t-42.5 36.5t-61.5 13.5q-44 0 -75.5 -23t-52 -62.5t-30 -92.5t-9.5 -112t9.5 -112t30.5 -92.5t53.5 -62.5t77.5 -23q46 0 75.5 15.5t46.5 43t23.5 65.5t6.5 84h-205v92h307v-90q0 -138 -63.5 -216t-190.5 -78q-65 0 -116 26.5t-86 75.5
t-53 118t-18 154t18 154t52.5 118t84.5 75.5t114 26.5q56 0 101 -20.5t77.5 -55t51 -80.5t20.5 -97h-104z" />
    <glyph glyph-name="H" unicode="H" horiz-adv-x="611" 
d="M70 0v724h102v-300h267v300h102v-724h-102v332h-267v-332h-102z" />
    <glyph glyph-name="I" unicode="I" horiz-adv-x="222" 
d="M60 0v724h102v-724h-102z" />
    <glyph glyph-name="J" unicode="J" horiz-adv-x="444" 
d="M110 209q0 -41 6.5 -67.5t17.5 -42t27 -21.5t34 -6t34 6t27.5 19.5t18.5 36t7 54.5v536h102v-537q0 -97 -47.5 -148t-144.5 -51q-51 0 -86 17.5t-57 47.5t-31.5 70.5t-9.5 85.5h102z" />
    <glyph glyph-name="K" unicode="K" horiz-adv-x="556" 
d="M70 0v724h102v-339h2l240 339h112l-199 -281l229 -443h-117l-181 360l-86 -124v-236h-102z" />
    <glyph glyph-name="L" unicode="L" horiz-adv-x="444" 
d="M70 0v724h102v-632h258v-92h-360z" />
    <glyph glyph-name="M" unicode="M" horiz-adv-x="722" 
d="M70 0v724h143l152 -528h2l140 528h145v-724h-96v554h-2l-148 -554h-80l-158 554h-2v-554h-96z" />
    <glyph glyph-name="N" unicode="N" horiz-adv-x="611" 
d="M76 0v724h102l258 -516h2v516h96v-724h-94l-266 536h-2v-536h-96z" />
    <glyph glyph-name="O" unicode="O" horiz-adv-x="611" 
d="M305 652q-44 0 -75.5 -23t-52 -62.5t-30 -92.5t-9.5 -112t9.5 -112t30 -92.5t52 -62.5t75.5 -23t75.5 23t52 62.5t30 92.5t9.5 112t-9.5 112t-30 92.5t-52 62.5t-75.5 23zM305 736q64 0 114 -26.5t84.5 -75.5t52.5 -118t18 -154t-18 -154t-52.5 -118t-84.5 -75.5
t-114 -26.5t-114 26.5t-84.5 75.5t-52.5 118t-18 154t18 154t52.5 118t84.5 75.5t114 26.5z" />
    <glyph glyph-name="P" unicode="P" horiz-adv-x="556" 
d="M172 368h106q63 0 98 34.5t35 97.5t-34.5 97.5t-97.5 34.5h-107v-264zM70 0v724h226q48 0 88 -16t68.5 -45t44.5 -70.5t16 -92.5t-16 -92.5t-44.5 -70.5t-68.5 -45t-89 -16h-123v-276h-102z" />
    <glyph glyph-name="Q" unicode="Q" horiz-adv-x="611" 
d="M305 72q17 0 31 3.5t26 8.5l-28 32t-31 28.5t-38.5 20t-49.5 7.5q-9 0 -18.5 -1t-22.5 -5q20 -44 52 -69t79 -25zM218 262q38 0 69 -10.5t56 -26.5t46 -35.5t39 -38.5q23 40 33.5 94.5t10.5 116.5q0 59 -9.5 112t-30 92.5t-52 62.5t-75.5 23t-75.5 -23t-52 -62.5
t-30 -92.5t-9.5 -112t9 -108q17 4 32.5 6t38.5 2zM588 -5q-28 -7 -61 -7q-34 0 -58.5 8.5t-42.5 22.5q-54 -31 -121 -31q-64 0 -114 26.5t-84.5 75.5t-52.5 118t-18 154t18 154t52.5 118t84.5 75.5t114 26.5t114 -26.5t84.5 -75.5t52.5 -118t18 -154q0 -86 -18.5 -155.5
t-53.5 -118.5q20 -10 40 -10q14 0 25 1t21 3v-87z" />
    <glyph glyph-name="R" unicode="R" horiz-adv-x="556" 
d="M70 0v724h202q45 0 87.5 -13t75.5 -39.5t53.5 -67t20.5 -94.5q0 -43 -9.5 -80t-30 -66t-51.5 -47.5t-74 -24.5l206 -292h-122l-248 370h80q30 0 56.5 7.5t47 23t32 38.5t11.5 55q0 65 -38.5 101.5t-104.5 36.5h-92v-632h-102z" />
    <glyph glyph-name="S" unicode="S" 
d="M126 223q0 -31 6 -58.5t20.5 -48t38 -32.5t58.5 -12q63 0 93.5 32.5t30.5 90.5q0 34 -14.5 56t-38 37t-54 26t-62 22.5t-61.5 26.5t-53.5 37.5t-38 55.5t-14.5 81q0 45 16 81.5t43.5 62.5t65.5 40.5t82 14.5q101 0 157.5 -55t59.5 -156h-102q0 26 -7 49t-21 40.5
t-35 27.5t-49 10q-48 0 -78 -30.5t-30 -77.5q0 -43 25 -66.5t62 -38.5t81 -28.5t81 -37t62 -63.5t25 -109q0 -53 -17.5 -92.5t-47.5 -66.5t-70 -40.5t-84 -13.5q-61 0 -104.5 16.5t-72 47.5t-42 74.5t-13.5 96.5h102z" />
    <glyph glyph-name="T" unicode="T" horiz-adv-x="444" 
d="M428 724v-92h-155v-632h-102v632h-155v92h412z" />
    <glyph glyph-name="U" unicode="U" horiz-adv-x="556" 
d="M500 724v-513q0 -49 -13 -90t-40.5 -70.5t-69.5 -46t-99 -16.5t-99 16.5t-69.5 46t-40.5 70.5t-13 90v513h102v-531q0 -56 33.5 -84.5t86.5 -28.5t86.5 28.5t33.5 84.5v531h102z" />
    <glyph glyph-name="V" unicode="V" 
d="M403 724h98l-204 -724h-94l-204 724h97l153 -572h2z" />
    <glyph glyph-name="W" unicode="W" horiz-adv-x="833" 
d="M465 724l128 -582h2l128 582h102l-180 -724h-98l-130 574h-2l-130 -574h-98l-180 724h102l128 -582h2l128 582h98z" />
    <glyph glyph-name="X" unicode="X" 
d="M361 724h109l-167 -336l195 -388h-109l-140 282l-139 -282h-109l192 388l-168 336h109l117 -241z" />
    <glyph glyph-name="Y" unicode="Y" 
d="M392 724h108l-199 -432v-292h-102v292l-199 432h107l143 -320z" />
    <glyph glyph-name="Z" unicode="Z" horiz-adv-x="444" 
d="M296 632h-255v92h377v-93l-281 -539h290v-92h-410v84z" />
    <glyph glyph-name="bracketleft" unicode="[" horiz-adv-x="389" 
d="M88 -210v934h256v-74h-170v-786h170v-74h-256z" />
    <glyph glyph-name="backslash" unicode="\" horiz-adv-x="278" 
d="M293 -12h-85l-223 748h85z" />
    <glyph glyph-name="bracketright" unicode="]" horiz-adv-x="389" 
d="M301 724v-934h-256v74h170v786h-170v74h256z" />
    <glyph glyph-name="asciicircum" unicode="^" horiz-adv-x="600" 
d="M341 724l183 -378h-92l-132 276l-132 -276h-92l183 378h82z" />
    <glyph glyph-name="underscore" unicode="_" 
d="M0 -125v50h500v-50h-500z" />
    <glyph glyph-name="quoteleft" unicode="&#x2018;" horiz-adv-x="222" 
d="M195 516h-67l-101 220h80z" />
    <glyph glyph-name="a" unicode="a" 
d="M344 335q0 72 -28.5 107.5t-73.5 35.5q-23 0 -43 -9t-35.5 -31.5t-24.5 -59.5t-9 -92q0 -62 8 -102t22 -62.5t34 -31t43 -8.5q48 0 77.5 32t29.5 103v118zM440 0h-82v80h-2q-8 -22 -17.5 -38.5t-24 -28t-34.5 -17.5t-50 -6q-99 0 -147.5 76.5t-48.5 213.5q0 56 11 108
t35 92.5t61 65t89 24.5q46 0 77.5 -22.5t48.5 -79.5h2v92h82v-560z" />
    <glyph glyph-name="b" unicode="b" 
d="M156 217q0 -71 29.5 -103t77.5 -32q23 0 42.5 8.5t34 31t22.5 62.5t8 102q0 55 -9 92t-24.5 59.5t-36 31.5t-42.5 9q-45 0 -73.5 -35.5t-28.5 -107.5v-118zM60 724h96v-216h3q13 24 40.5 43t70.5 19q52 0 89 -24.5t61 -65t35 -92.5t11 -108q0 -137 -48.5 -213.5
t-147.5 -76.5q-30 0 -50 6t-34.5 17.5t-24 28t-17.5 38.5h-2v-80h-82v724z" />
    <glyph glyph-name="c" unicode="c" horiz-adv-x="444" 
d="M326 359q-2 20 -8 41t-17 38.5t-28.5 28.5t-42.5 11q-50 0 -75 -47t-25 -152q0 -94 25 -145.5t79 -51.5q28 0 44.5 11.5t26.5 29.5t14 40t7 43h96q-1 -43 -13 -82t-35.5 -69t-59 -47.5t-83.5 -17.5q-53 0 -90.5 24.5t-61 65t-34.5 92.5t-11 108t11 108t34.5 92.5t61 65
t90.5 24.5q49 0 84 -18t57.5 -47t34.5 -67.5t15 -78.5h-96z" />
    <glyph glyph-name="d" unicode="d" 
d="M344 335q0 72 -28.5 107.5t-73.5 35.5q-23 0 -43 -9t-35.5 -31.5t-24.5 -59.5t-9 -92q0 -62 8 -102t22 -62.5t34 -31t43 -8.5q48 0 77.5 32t29.5 103v118zM440 0h-82v80h-2q-8 -22 -17.5 -38.5t-24 -28t-34.5 -17.5t-50 -6q-99 0 -147.5 76.5t-48.5 213.5q0 56 11 108
t35 92.5t61 65t89 24.5q43 0 71.5 -19.5t39.5 -42.5h3v216h96v-724z" />
    <glyph glyph-name="e" unicode="e" horiz-adv-x="444" 
d="M318 330q0 80 -22.5 118t-68.5 38t-70.5 -38t-24.5 -118h186zM130 254q0 -76 24 -124t75 -48q38 0 63.5 31t25.5 85h96q-3 -40 -17 -77.5t-38 -66.5t-56.5 -46.5t-72.5 -17.5q-43 0 -79 19t-62 56t-40.5 91t-14.5 124t14.5 124t40.5 91t62 56t79 19q47 0 82 -20t57.5 -55
t33.5 -82t11 -101v-58h-284z" />
    <glyph glyph-name="f" unicode="f" horiz-adv-x="222" 
d="M158 0h-96v476h-60v84h60v48q0 59 27 87.5t89 28.5h51v-84h-30q-41 0 -41 -38v-42h71v-84h-71v-476z" />
    <glyph glyph-name="g" unicode="g" 
d="M344 343q0 71 -29.5 103t-77.5 32q-23 0 -43 -8.5t-34 -31t-22 -62.5t-8 -102q0 -56 9 -92.5t24.5 -59t35.5 -31.5t43 -9q45 0 73.5 35.5t28.5 107.5v118zM440 560v-584q0 -47 -16 -80t-43 -54t-61.5 -30.5t-70.5 -9.5q-43 0 -81 10.5t-66.5 32.5t-45 55.5t-16.5 78.5h96
q3 -41 32.5 -63t71.5 -22q21 0 40.5 2.5t34.5 13t24 31t9 55.5v76h-3q-14 -38 -43 -60t-72 -22q-52 0 -89 24.5t-61 65t-35 92.5t-11 108q0 137 48.5 213.5t147.5 76.5q30 0 50 -6t34.5 -17.5t24 -28t17.5 -38.5h2v80h82z" />
    <glyph glyph-name="h" unicode="h" 
d="M60 0v724h98v-220h2q17 29 43 47.5t77 18.5q77 0 118.5 -47.5t41.5 -130.5v-392h-96v362q0 60 -21 88t-63 28q-20 0 -38.5 -7t-33 -21.5t-23.5 -36t-9 -51.5v-362h-96z" />
    <glyph glyph-name="i" unicode="i" horiz-adv-x="222" 
d="M63 724h96v-102h-96v102zM63 0v560h96v-560h-96z" />
    <glyph glyph-name="j" unicode="j" horiz-adv-x="222" 
d="M66 622v102h96v-102h-96zM-31 -112h49q23 0 35.5 11.5t12.5 38.5v622h96v-631q0 -39 -10 -64.5t-28 -40.5t-43 -21.5t-56 -6.5h-56v92z" />
    <glyph glyph-name="k" unicode="k" horiz-adv-x="444" 
d="M60 0v724h96v-412h2l176 248h107l-149 -206l167 -354h-105l-127 273l-71 -99v-174h-96z" />
    <glyph glyph-name="l" unicode="l" horiz-adv-x="222" 
d="M63 0v724h96v-724h-96z" />
    <glyph glyph-name="m" unicode="m" horiz-adv-x="778" 
d="M60 560h92v-70h2q12 32 42.5 56t84.5 24q43 0 76 -16.5t58 -54.5q23 37 59 54t81 17q36 0 65.5 -9.5t51.5 -31.5t34 -58.5t12 -90.5v-380h-96v376q0 56 -21 79t-63 23q-101 0 -101 -126v-352h-96v376q0 56 -21.5 79t-63.5 23q-52 0 -76 -31.5t-24 -94.5v-352h-96v560z
" />
    <glyph glyph-name="n" unicode="n" 
d="M60 0v560h86v-70h2q22 43 51.5 61.5t80.5 18.5q77 0 118.5 -47.5t41.5 -130.5v-392h-96v362q0 60 -21 88t-63 28q-20 0 -38.5 -7t-33 -21.5t-23.5 -36t-9 -51.5v-362h-96z" />
    <glyph glyph-name="o" unicode="o" 
d="M370 280q0 57 -8 96.5t-23.5 63.5t-38 35t-50.5 11q-29 0 -51 -11t-37.5 -35t-23.5 -63.5t-8 -96.5t8 -96.5t23.5 -63.5t37.5 -35t51 -11q28 0 50.5 11t38 35t23.5 63.5t8 96.5zM466 280q0 -67 -14 -120.5t-41.5 -91t-68 -58t-92.5 -20.5q-53 0 -93 20.5t-67.5 58
t-41.5 91t-14 120.5t14 120.5t41.5 91t67.5 58t93 20.5q52 0 92.5 -20.5t68 -58t41.5 -91t14 -120.5z" />
    <glyph glyph-name="p" unicode="p" 
d="M156 225q0 -72 28.5 -107.5t73.5 -35.5q22 0 42.5 9t36 31.5t24.5 59t9 92.5q0 62 -8 102t-22.5 62.5t-34 31t-42.5 8.5q-48 0 -77.5 -32t-29.5 -103v-118zM60 560h86v-80h2q10 42 36.5 66t85.5 24q99 0 147.5 -76.5t48.5 -213.5q0 -56 -11 -108t-35 -92.5t-61 -65
t-89 -24.5q-43 0 -71.5 19.5t-39.5 42.5h-3v-250h-96v758z" />
    <glyph glyph-name="q" unicode="q" 
d="M344 343q0 71 -29.5 103t-77.5 32q-23 0 -43 -8.5t-34 -31t-22 -62.5t-8 -102q0 -56 9 -92.5t24.5 -59t35.5 -31.5t43 -9q45 0 73.5 35.5t28.5 107.5v118zM440 -198h-96v270h-3q-11 -38 -39.5 -60t-71.5 -22q-52 0 -89 24.5t-61 65t-35 92.5t-11 108q0 137 48.5 213.5
t147.5 76.5q30 0 50 -6t34.5 -17.5t24 -28t17.5 -38.5h2v80h82v-758z" />
    <glyph glyph-name="r" unicode="r" horiz-adv-x="278" 
d="M60 0v560h85v-62h2q18 40 49.5 56t78.5 16v-98q-35 -1 -58 -12t-36.5 -29.5t-19 -43t-5.5 -52.5v-335h-96z" />
    <glyph glyph-name="s" unicode="s" horiz-adv-x="389" 
d="M274 397q-4 38 -23 59.5t-61 21.5q-35 0 -52.5 -17t-17.5 -47q0 -28 18 -43t45 -26t59 -21.5t59 -29t45 -49t18 -81.5q0 -85 -47 -129.5t-125 -44.5q-39 0 -71 14.5t-55.5 39t-36 57.5t-12.5 70h90q2 -41 26 -65t66 -24q35 0 55 20t20 55q0 30 -18 46.5t-45 27.5
t-59 21.5t-59 28t-45 46.5t-18 79q0 78 44.5 121t120.5 43q38 0 69 -13t53 -36t34.5 -55t12.5 -69h-90z" />
    <glyph glyph-name="t" unicode="t" horiz-adv-x="222" 
d="M159 476v-476h-96v476h-63v84h63v134h96v-134h63v-84h-63z" />
    <glyph glyph-name="u" unicode="u" 
d="M440 560v-560h-86v84h-2q-15 -50 -48 -72t-84 -22q-77 0 -118.5 47.5t-41.5 130.5v392h96v-362q0 -60 21 -88t63 -28q19 0 38 7t33.5 21.5t23.5 36t9 51.5v362h96z" />
    <glyph glyph-name="v" unicode="v" horiz-adv-x="444" 
d="M6 560h100l115 -432h2l115 432h100l-164 -560h-104z" />
    <glyph glyph-name="w" unicode="w" horiz-adv-x="667" 
d="M375 560l105 -462h2l78 462h95l-127 -560h-106l-88 452h-2l-88 -452h-106l-127 560h95l78 -462h2l105 462h84z" />
    <glyph glyph-name="x" unicode="x" horiz-adv-x="444" 
d="M218 196l-107 -196h-110l162 289l-153 271h110l98 -192l97 192h110l-149 -271l167 -289h-113z" />
    <glyph glyph-name="y" unicode="y" horiz-adv-x="444" 
d="M206 -198h-100l63 213l-163 545h99l117 -399h2l114 399h100z" />
    <glyph glyph-name="z" unicode="z" horiz-adv-x="444" 
d="M410 0h-376v90l254 378h-235v92h349v-92l-258 -376h266v-92z" />
    <glyph glyph-name="braceleft" unicode="{" horiz-adv-x="389" 
d="M43 294q28 3 46.5 22t18.5 66v238q0 19 5.5 39.5t17.5 38t31.5 28.5t47.5 10h154v-74h-118q-29 0 -40.5 -15.5t-11.5 -42.5v-242q0 -30 -6 -48.5t-15 -29t-19 -14.5t-19 -6v-2q9 -2 19 -6t19 -14.5t15 -29t6 -48.5v-242q0 -27 11.5 -42.5t40.5 -15.5h118v-74h-154
q-28 -1 -47.5 10t-31.5 28.5t-17.5 38t-5.5 39.5v238q0 47 -18.5 66t-46.5 22v62z" />
    <glyph glyph-name="bar" unicode="|" horiz-adv-x="222" 
d="M69 736h84v-748h-84v748z" />
    <glyph glyph-name="braceright" unicode="}" horiz-adv-x="389" 
d="M346 232q-28 -3 -46.5 -22t-18.5 -66v-238q0 -19 -5.5 -39.5t-17.5 -38t-31.5 -28.5t-47.5 -10h-154v74h118q29 0 40.5 15.5t11.5 42.5v242q0 30 6 48.5t15 29t19 14.5t19 6v2q-9 2 -19 6t-19 14.5t-15 29t-6 48.5v242q0 27 -11.5 42.5t-40.5 15.5h-118v74h154
q28 1 47.5 -10t31.5 -28.5t17.5 -38t5.5 -39.5v-238q0 -47 18.5 -66t46.5 -22v-62z" />
    <glyph glyph-name="asciitilde" unicode="~" horiz-adv-x="600" 
d="M531 259q-8 -16 -19.5 -31.5t-26.5 -27.5t-34.5 -19.5t-44.5 -7.5q-26 0 -54 9.5t-57 22.5q-28 12 -55 24t-47 12q-15 0 -27.5 -6.5t-23 -16.5t-19.5 -23l-18 -26l-36 78q8 16 19.5 31.5t26.5 27.5t34.5 19.5t44.5 7.5q26 0 54 -9.5t57 -22.5q28 -12 55 -24t47 -12
q15 0 27.5 6.5t23 16.5t19.5 23l18 26z" />
    <glyph glyph-name="exclamdown" unicode="&#xa1;" horiz-adv-x="222" 
d="M159 560v-124h-96v124h96zM162 -164h-102v542h102v-542z" />
    <glyph glyph-name="cent" unicode="&#xa2;" horiz-adv-x="556" 
d="M464 284q-2 -38 -11.5 -73t-28 -63t-45.5 -48t-64 -27v-99h-74v97q-45 7 -76.5 33t-52 65.5t-29.5 88t-9 100.5t9 100.5t29.5 88t52 66t76.5 33.5v104h74v-106q37 -8 63 -28t43 -48t26 -61.5t12 -69.5h-96q-2 20 -7.5 41t-16 38.5t-27.5 28.5t-42 11q-50 0 -75 -47
t-25 -152q0 -94 25 -145.5t79 -51.5q28 0 45 11.5t26.5 29.5t14.5 40t8 43h96z" />
    <glyph glyph-name="sterling" unicode="&#xa3;" horiz-adv-x="556" 
d="M9 326v84h59q-16 23 -23 47t-7 50q0 48 18 89.5t49.5 72t73.5 48t90 17.5q44 0 82 -15.5t67.5 -42.5t48 -64t23.5 -80h-96q-11 51 -44 80.5t-87 29.5q-27 0 -51 -10t-41 -27.5t-27 -41.5t-10 -51q0 -28 9 -53t24 -49h217v-84h-158q29 -28 46 -66t17 -79q0 -23 -10 -46
t-22 -43h51q54 0 90 30t36 87q0 13 -1 26t-3 27h98q2 -14 5 -27.5t3 -28.5q0 -35 -12.5 -71.5t-39.5 -66.5t-68.5 -49t-99.5 -19h-277v92h120q13 22 20.5 42t7.5 52q0 38 -19 69.5t-45 70.5h-114z" />
    <glyph glyph-name="fraction" unicode="&#x2044;" horiz-adv-x="167" 
d="M334 736l-419 -748h-82l420 748h81z" />
    <glyph glyph-name="fraction" unicode="&#x2215;" horiz-adv-x="167" 
d="M334 736l-419 -748h-82l420 748h81z" />
    <glyph glyph-name="yen" unicode="&#xa5;" horiz-adv-x="556" 
d="M364 392l-35 -76v-4h181v-84h-181v-228h-102v228h-179v84h179v4l-35 76h-144v84h106l-114 248h96l142 -320l142 320h96l-114 -248h108v-84h-146z" />
    <glyph glyph-name="florin" unicode="&#x192;" horiz-adv-x="556" 
d="M100 354l6 84h126q5 151 49.5 224.5t146.5 73.5q29 0 55.5 -7.5t50.5 -16.5l-22 -90q-17 5 -37 11.5t-43 6.5q-22 0 -39 -10.5t-29 -34.5t-18 -62.5t-6 -94.5h135l-5 -84h-137l-12 -263q-7 -153 -55 -224t-144 -71q-29 0 -55.5 5t-51.5 17l27 92q15 -8 32 -13t34 -5
q54 0 75.5 38.5t26.5 122.5l18 301h-128z" />
    <glyph glyph-name="section" unicode="&#xa7;" horiz-adv-x="444" 
d="M182 300q37 -42 61 -58.5t41 -16.5q49 0 49 44q0 13 -7 26t-18 26.5t-25 27.5l-28 28q-23 23 -36 37.5t-22.5 22.5t-18 11t-21.5 3q-16 0 -31.5 -12t-15.5 -33q0 -14 5.5 -26t15 -24t23 -25.5t28.5 -30.5zM313 612q-17 26 -37 42t-53 16q-23 0 -39 -15.5t-16 -36.5
q0 -20 18.5 -44.5t45.5 -52.5t59.5 -58.5t59.5 -61.5t45.5 -62t18.5 -59q0 -54 -30.5 -83.5t-81.5 -29.5q24 -28 40.5 -57.5t16.5 -68.5q0 -27 -12.5 -49.5t-32.5 -38t-45.5 -24.5t-51.5 -9q-49 0 -88.5 23t-70.5 63l60 47q7 -11 17 -23t22 -21.5t25.5 -16t27.5 -6.5
q27 0 45 18.5t18 50.5q0 20 -18 45.5t-45.5 54.5t-59.5 60t-59.5 62.5t-45.5 62t-18 58.5q0 25 9 44.5t24 33t34.5 22t40.5 11.5q-18 24 -36 49.5t-18 57.5q0 30 13 52.5t34 37.5t48 22.5t54 7.5q45 0 81 -23.5t62 -56.5z" />
    <glyph glyph-name="currency" unicode="&#xa4;" horiz-adv-x="556" 
d="M118 362q0 -34 12.5 -64.5t34 -53t51 -36t62.5 -13.5t62.5 13.5t51 36t34 53t12.5 64.5t-12.5 64.5t-34 53t-51 36t-62.5 13.5t-62.5 -13.5t-51 -36t-34 -53t-12.5 -64.5zM74 615l56 -56q29 24 68.5 37t79.5 13t79.5 -13t68.5 -37l56 56l50 -49l-58 -58q28 -28 40 -67
t12 -79t-12 -79t-40 -67l58 -58l-50 -49l-56 56q-29 -24 -68.5 -37t-79.5 -13t-79.5 13t-68.5 37l-56 -56l-50 49l58 58q-28 28 -40 67t-12 79t12 79t40 67l-58 58z" />
    <glyph glyph-name="quotesingle" unicode="'" horiz-adv-x="222" 
d="M70 724h82v-248h-82v248z" />
    <glyph glyph-name="quotedblleft" unicode="&#x201c;" horiz-adv-x="333" 
d="M185 516h-67l-101 220h80zM315 516h-67l-101 220h80z" />
    <glyph glyph-name="guillemotleft" unicode="&#xab;" horiz-adv-x="444" 
d="M286 280l136 -181h-88l-136 181l136 181h88zM110 280l136 -181h-88l-136 181l136 181h88z" />
    <glyph glyph-name="guilsinglleft" unicode="&#x2039;" horiz-adv-x="278" 
d="M120 280l136 -181h-88l-136 181l136 181h88z" />
    <glyph glyph-name="guilsinglright" unicode="&#x203a;" horiz-adv-x="278" 
d="M158 280l-136 181h88l136 -181l-136 -181h-88z" />
    <glyph glyph-name="fi" unicode="&#xfb01;" horiz-adv-x="444" 
d="M285 724h96v-102h-96v102zM285 0v560h96v-560h-96zM158 0h-96v476h-60v84h60v48q0 59 27 87.5t89 28.5h51v-84h-30q-41 0 -41 -38v-42h71v-84h-71v-476z" />
    <glyph glyph-name="fl" unicode="&#xfb02;" horiz-adv-x="444" 
d="M285 0v724h96v-724h-96zM158 0h-96v476h-60v84h60v48q0 59 27 87.5t89 28.5h51v-84h-30q-41 0 -41 -38v-42h71v-84h-71v-476z" />
    <glyph glyph-name="endash" unicode="&#x2013;" 
d="M0 311h500v-62h-500v62z" />
    <glyph glyph-name="dagger" unicode="&#x2020;" horiz-adv-x="444" 
d="M40 564l164 -28l-25 200h86l-25 -200l164 28v-92l-164 26l27 -168l-30 -410h-30l-30 410l27 168l-164 -26v92z" />
    <glyph glyph-name="daggerdbl" unicode="&#x2021;" horiz-adv-x="444" 
d="M267 328l-25 -176l162 29v-95l-165 28l28 -194h-88l23 194l-162 -28v95l162 -29l-28 176l28 174l-162 -26v94l162 -28l-23 194h88l-25 -194l162 26v-98l-165 32z" />
    <glyph glyph-name="periodcentered" unicode="&#xb7;" horiz-adv-x="278" 
d="M139 308q23 0 39 -16.5t16 -38.5t-16 -38.5t-39 -16.5t-39 16.5t-16 38.5t16 38.5t39 16.5z" />
    <glyph glyph-name="periodcentered" unicode="&#x2219;" horiz-adv-x="278" 
d="M139 308q23 0 39 -16.5t16 -38.5t-16 -38.5t-39 -16.5t-39 16.5t-16 38.5t16 38.5t39 16.5z" />
    <glyph glyph-name="paragraph" unicode="&#xb6;" horiz-adv-x="600" 
d="M260 354q-50 0 -89.5 13.5t-66.5 38t-41 58t-14 72.5q0 50 15.5 86t44.5 58.5t69.5 33t91.5 10.5h218v-804h-82v742h-64v-742h-82v434z" />
    <glyph glyph-name="bullet" unicode="&#x2022;" 
d="M69 362q0 37 13.5 70t38 58t58 39t71.5 14t71.5 -14t58 -39t38 -58t13.5 -70q0 -38 -13.5 -70.5t-38 -57.5t-58 -39t-71.5 -14t-71.5 14t-58 39t-38 57.5t-13.5 70.5z" />
    <glyph glyph-name="quotesinglbase" unicode="&#x201a;" horiz-adv-x="222" 
d="M115 124h80l-101 -220h-67z" />
    <glyph glyph-name="quotedblbase" unicode="&#x201e;" horiz-adv-x="333" 
d="M236 124h80l-101 -220h-67zM106 124h80l-101 -220h-67z" />
    <glyph glyph-name="quotedblright" unicode="&#x201d;" horiz-adv-x="333" 
d="M236 736h80l-101 -220h-67zM106 736h80l-101 -220h-67z" />
    <glyph glyph-name="guillemotright" unicode="&#xbb;" horiz-adv-x="444" 
d="M158 280l-136 181h88l136 -181l-136 -181h-88zM334 280l-136 181h88l136 -181l-136 -181h-88z" />
    <glyph glyph-name="ellipsis" unicode="&#x2026;" horiz-adv-x="1000" 
d="M452 0v124h96v-124h-96zM785 0v124h96v-124h-96zM119 0v124h96v-124h-96z" />
    <glyph glyph-name="perthousand" unicode="&#x2030;" horiz-adv-x="1000" 
d="M158 664q-32 0 -54 -25.5t-22 -81.5t22 -81.5t54 -25.5t54 25.5t22 81.5t-22 81.5t-54 25.5zM843 274q-32 0 -54 -25.5t-22 -81.5t22 -81.5t54 -25.5t54 25.5t22 81.5t-22 81.5t-54 25.5zM493 274q-32 0 -54 -25.5t-22 -81.5t22 -81.5t54 -25.5t54 25.5t22 81.5t-22 81.5
t-54 25.5zM102 -12l368 748h79l-369 -748h-78zM493 346q40 0 69.5 -13.5t49 -37.5t29.5 -57t10 -71t-10 -71t-29.5 -57t-49 -37.5t-69.5 -13.5t-69.5 13.5t-49 37.5t-29.5 57t-10 71t10 71t29.5 57t49 37.5t69.5 13.5zM843 346q40 0 69.5 -13.5t49 -37.5t29.5 -57t10 -71
t-10 -71t-29.5 -57t-49 -37.5t-69.5 -13.5t-69.5 13.5t-49 37.5t-29.5 57t-10 71t10 71t29.5 57t49 37.5t69.5 13.5zM158 736q40 0 69.5 -13.5t49 -37.5t29.5 -57t10 -71t-10 -71t-29.5 -57t-49 -37.5t-69.5 -13.5t-69.5 13.5t-49 37.5t-29.5 57t-10 71t10 71t29.5 57
t49 37.5t69.5 13.5z" />
    <glyph glyph-name="questiondown" unicode="&#xbf;" horiz-adv-x="444" 
d="M281 560v-124h-96v124h96zM281 378v-110q0 -31 -11.5 -54.5t-29 -42.5t-37.5 -35t-37.5 -33t-29 -36.5t-11.5 -44.5q0 -56 25 -81t74 -25q19 0 36.5 5t30.5 17t21 31t8 46v37h102v-50q0 -35 -13 -67.5t-38 -57t-63 -39t-87 -14.5q-47 0 -83.5 15t-62 40.5t-39 59.5
t-13.5 73q0 44 12 76t30 55.5t39 41l39 32.5t30 30t12 35v96h96z" />
    <glyph glyph-name="grave" unicode="`" horiz-adv-x="222" 
d="M178 622h-67l-131 142h109z" />
    <glyph glyph-name="acute" unicode="&#xb4;" horiz-adv-x="222" 
d="M133 764h109l-131 -142h-67z" />
    <glyph glyph-name="circumflex" unicode="&#x2c6;" horiz-adv-x="222" 
d="M65 764h91l100 -142h-79l-66 94l-66 -94h-79z" />
    <glyph glyph-name="tilde" unicode="&#x2dc;" horiz-adv-x="222" 
d="M281 749q-2 -19 -9.5 -38.5t-20 -35t-30 -25.5t-38.5 -10q-20 0 -39 6t-39 13t-38 13t-34 6q-17 0 -28.5 -15t-13.5 -30h-50q2 44 30 75.5t74 31.5q20 0 38.5 -5.5t35.5 -12.5t32.5 -12.5t32.5 -5.5q22 0 33.5 12t13.5 33h50z" />
    <glyph glyph-name="macron" unicode="&#xaf;" horiz-adv-x="222" 
d="M-44 657v58h310v-58h-310z" />
    <glyph glyph-name="macron" unicode="&#x2c9;" horiz-adv-x="222" 
d="M-44 657v58h310v-58h-310z" />
    <glyph glyph-name="breve" unicode="&#x2d8;" horiz-adv-x="222" 
d="M7 764q6 -42 36 -60t68 -18t68 18t36 60h50q-2 -66 -44.5 -101t-109.5 -35t-109.5 35t-44.5 101h50z" />
    <glyph glyph-name="dotaccent" unicode="&#x2d9;" horiz-adv-x="222" 
d="M66 638v98h90v-98h-90z" />
    <glyph glyph-name="dieresis" unicode="&#xa8;" horiz-adv-x="222" 
d="M148 638v98h90v-98h-90zM-16 638v98h90v-98h-90z" />
    <glyph glyph-name="ring" unicode="&#x2da;" horiz-adv-x="222" 
d="M110 792q-26 0 -43 -18t-17 -44t17 -43t43 -17t44 17t18 43t-18 44t-44 18zM110 622q-23 0 -42.5 8.5t-34 23t-23 34t-8.5 42.5q0 22 8.5 42t23 35t34 24t42.5 9q22 0 42 -9t35 -24t24 -35t9 -42q0 -23 -9 -42.5t-24 -34t-35 -23t-42 -8.5z" />
    <glyph glyph-name="cedilla" unicode="&#xb8;" horiz-adv-x="222" 
d="M41 -87l63 87h48l-43 -57q9 2 17.5 3t17.5 1q36 0 56.5 -23t20.5 -57q0 -25 -10.5 -42.5t-27 -29t-37.5 -16.5t-42 -5q-26 0 -50.5 6t-47.5 16l17 43q16 -5 32 -9t31 -4q29 0 44 7.5t15 27.5q0 21 -15 30.5t-34 9.5t-38 -8z" />
    <glyph glyph-name="hungarumlaut" unicode="&#x2dd;" horiz-adv-x="222" 
d="M57 764h109l-125 -142h-63zM213 764h109l-131 -142h-67z" />
    <glyph glyph-name="ogonek" unicode="&#x2db;" horiz-adv-x="222" 
d="M259 -155q-30 -21 -69.5 -39t-77.5 -18q-42 0 -71 20.5t-29 66.5q0 34 18 57.5t49 40t71 27.5t85 20v-10q-31 -10 -58 -23t-46.5 -28.5t-31 -33t-11.5 -37.5q0 -26 15 -37t42 -11q11 0 24 4t26.5 10.5t26 13.5t21.5 13z" />
    <glyph glyph-name="caron" unicode="&#x2c7;" horiz-adv-x="222" 
d="M157 622h-91l-100 142h79l66 -94l66 94h79z" />
    <glyph glyph-name="emdash" unicode="&#x2014;" horiz-adv-x="1000" 
d="M0 311h1000v-62h-1000v62z" />
    <glyph glyph-name="AE" unicode="&#xc6;" horiz-adv-x="833" 
d="M394 306v326h-2l-158 -326h160zM-18 0l359 724h426v-92h-271v-208h271v-92h-271v-240h271v-92h-373v214h-206l-101 -214h-105z" />
    <glyph glyph-name="ordfeminine" unicode="&#xaa;" horiz-adv-x="300" 
d="M202 587q0 40 -14 62.5t-43 22.5q-26 0 -43.5 -24.5t-17.5 -81.5q0 -33 5 -55t13 -35t18.5 -18.5t21.5 -5.5q60 0 60 80v55zM277 394h-58v48h-2q-5 -13 -11.5 -23t-15.5 -17t-22 -10.5t-32 -3.5q-65 0 -96.5 46t-31.5 128q0 33 7 64.5t22.5 56t40 39t58.5 14.5
q29 0 49.5 -13.5t31.5 -47.5h2v55h58v-336z" />
    <glyph glyph-name="Oslash" unicode="&#xd8;" horiz-adv-x="611" 
d="M410 601q-20 24 -46 37.5t-59 13.5q-44 0 -75.5 -23t-52 -62.5t-30 -92.5t-9.5 -112q0 -44 5.5 -84.5t16.5 -76.5zM199 124q20 -25 46 -38.5t60 -13.5q44 0 75.5 23t52 62.5t30 92.5t9.5 112q0 45 -5.5 86t-16.5 76zM8 -42l91 145q-31 49 -47 114t-16 145q0 85 18 154
t52.5 118t84.5 75.5t114 26.5q92 0 155 -55l53 85h89l-91 -145q31 -48 47 -113.5t16 -145.5q0 -85 -18 -154t-52.5 -118t-84.5 -75.5t-114 -26.5q-91 0 -156 56l-54 -86h-87z" />
    <glyph glyph-name="OE" unicode="&#x152;" horiz-adv-x="889" 
d="M468 362q0 67 -9.5 120.5t-30 91t-52 58t-76.5 20.5t-76.5 -23t-52 -62.5t-30 -92.5t-9.5 -112q0 -67 9.5 -120.5t30 -91t52 -58t76.5 -20.5t76.5 20.5t52 58t30 91t9.5 120.5zM472 724h351v-92h-253v-208h253v-92h-253v-240h253v-92h-351v73h-2q-34 -48 -75 -66.5
t-95 -18.5q-134 0 -202 97.5t-68 276.5q0 79 17 147t51 118.5t84.5 79.5t117.5 29q60 0 102 -23.5t68 -66.5h2v78z" />
    <glyph glyph-name="ordmasculine" unicode="&#xba;" horiz-adv-x="300" 
d="M151 680q-60 0 -60 -118t60 -118q58 0 58 118t-58 118zM151 736q70 0 105 -44.5t35 -129.5t-35 -129.5t-105 -44.5q-71 0 -106.5 44.5t-35.5 129.5t35.5 129.5t106.5 44.5z" />
    <glyph glyph-name="ae" unicode="&#xe6;" horiz-adv-x="778" 
d="M648 330q0 80 -25 118t-74 38t-79 -38t-30 -118h208zM344 335q0 72 -28.5 107.5t-73.5 35.5q-23 0 -43 -9t-35.5 -31.5t-24.5 -59.5t-9 -92q0 -62 8 -102t22 -62.5t34 -31t43 -8.5q48 0 77.5 32t29.5 103v118zM440 254q0 -76 28.5 -124t84.5 -48q42 0 68.5 31t26.5 85h96
q-3 -40 -17 -77.5t-38 -66.5t-56.5 -46.5t-72.5 -17.5q-42 0 -72.5 20t-45.5 71h-2v-81h-82v80h-2q-8 -21 -17.5 -37.5t-24 -28.5t-34.5 -18t-50 -6q-99 0 -147.5 76.5t-48.5 213.5q0 56 11 108t35 92.5t61 65t89 24.5q46 0 78.5 -22.5t46.5 -65.5h3v78h82v-81h2
q16 51 46 71t72 20q46 0 80.5 -20t57.5 -55t34.5 -82t11.5 -101v-58h-304z" />
    <glyph glyph-name="dotlessi" unicode="&#x131;" horiz-adv-x="222" 
d="M63 0v560h96v-560h-96z" />
    <glyph glyph-name="oslash" unicode="&#xf8;" 
d="M313 468q-24 18 -63 18q-29 0 -51 -11t-37.5 -35t-23.5 -63.5t-8 -96.5q0 -80 16 -124zM185 94q24 -20 65 -20q28 0 50.5 11t38 35t23.5 63.5t8 96.5q0 42 -4 73t-12 54zM404 500q31 -38 46.5 -93.5t15.5 -126.5q0 -67 -14 -120.5t-41.5 -91t-68 -58t-92.5 -20.5
q-60 0 -106 29l-51 -95h-71l73 137q-61 78 -61 219q0 67 14 120.5t41.5 91t67.5 58t93 20.5q60 0 104 -26l49 92h75z" />
    <glyph glyph-name="oe" unicode="&#x153;" horiz-adv-x="778" 
d="M648 330q0 80 -27.5 118t-72.5 38q-44 0 -72 -38t-28 -118h200zM130 280q0 -57 8 -96.5t22 -63.5t34 -35t44 -11q25 0 45.5 11t35.5 35t23 63.5t8 96.5t-8 96.5t-23 63.5t-35.5 35t-45.5 11q-24 0 -44 -11t-34 -35t-22 -63.5t-8 -96.5zM446 254q0 -76 28 -124t79 -48
q42 0 68.5 31t26.5 85h96q-3 -40 -17.5 -77.5t-38.5 -66.5t-58 -46.5t-76 -17.5q-51 0 -91.5 28.5t-65.5 85.5q-25 -55 -65.5 -84.5t-93.5 -29.5q-48 0 -86 20.5t-64 58t-40 91t-14 120.5t14 120.5t40 91t64 58t86 20.5q53 0 93.5 -29.5t65.5 -84.5q26 57 67.5 85.5
t95.5 28.5q46 0 80.5 -20t57.5 -55t34.5 -82t11.5 -101v-58h-298z" />
    <glyph glyph-name="germandbls" unicode="&#xdf;" horiz-adv-x="556" 
d="M156 209h33q0 -26 8 -49t23 -40.5t36 -27.5t47 -10q63 0 93 33.5t30 90.5q0 34 -12.5 57.5t-35 37t-52.5 19.5t-65 6h-24v76h26q56 0 87 31t31 91q0 52 -30.5 85t-81.5 33q-50 0 -81.5 -30.5t-31.5 -99.5v-303zM60 0v518q0 43 14.5 81t42.5 65.5t67.5 43.5t89.5 16
q44 0 81 -14t64 -39.5t42.5 -61.5t15.5 -81q0 -54 -24.5 -96t-81.5 -55v-2q35 -3 63 -18t47.5 -38.5t30 -54t10.5 -65.5q0 -42 -14.5 -80t-41.5 -66.5t-65.5 -45.5t-85.5 -17q-58 0 -96.5 21t-62.5 73h-2v-84h-94z" />
    <glyph glyph-name="logicalnot" unicode="&#xac;" horiz-adv-x="600" 
d="M469 316h-422v84h506v-294h-84v210z" />
    <glyph glyph-name="mu" unicode="&#xb5;" 
d="M440 560v-560h-86v84h-2q-15 -50 -48 -72t-84 -22q-34 0 -64 11v-199h-96v758h96v-362q0 -60 21 -88t63 -28q19 0 38 7t33.5 21.5t23.5 36t9 51.5v362h96z" />
    <glyph glyph-name="mu" unicode="&#x3bc;" 
d="M440 560v-560h-86v84h-2q-15 -50 -48 -72t-84 -22q-34 0 -64 11v-199h-96v758h96v-362q0 -60 21 -88t63 -28q19 0 38 7t33.5 21.5t23.5 36t9 51.5v362h96z" />
    <glyph glyph-name="trademark" unicode="&#x2122;" horiz-adv-x="990" 
d="M414 662h-125v-350h-82v350h-125v62h332v-62zM680 432l112 292h116v-412h-76v324h-2l-123 -324h-56l-123 324h-2v-324h-76v412h117z" />
    <glyph glyph-name="plusminus" unicode="&#xb1;" horiz-adv-x="600" 
d="M47 84h506v-84h-506v84zM258 506h84v-152h211v-84h-211v-152h-84v152h-211v84h211v152z" />
    <glyph glyph-name="divide" unicode="&#xf7;" horiz-adv-x="600" 
d="M300 532q29 0 50.5 -21t21.5 -51t-21.5 -51t-50.5 -21t-50.5 21t-21.5 51t21.5 51t50.5 21zM300 118q29 0 50.5 -21t21.5 -51t-21.5 -51t-50.5 -21t-50.5 21t-21.5 51t21.5 51t50.5 21zM47 211v84h506v-84h-506z" />
    <glyph glyph-name="degree" unicode="&#xb0;" horiz-adv-x="400" 
d="M200 500q18 0 34.5 7.5t28.5 20.5t19 30t7 36q0 18 -7 35t-19 29.5t-28.5 20t-34.5 7.5t-34.5 -7.5t-28.5 -20t-19 -29.5t-7 -35q0 -19 7 -36t19 -30t28.5 -20.5t34.5 -7.5zM200 450q-30 0 -56 11t-45.5 30.5t-30.5 45.5t-11 56t11 56t30.5 45.5t45.5 30.5t56 11t56 -11
t45.5 -30.5t30.5 -45.5t11 -56t-11 -56t-30.5 -45.5t-45.5 -30.5t-56 -11z" />
    <glyph glyph-name="registered" unicode="&#xae;" horiz-adv-x="800" 
d="M352 395h64q48 0 68 12t20 51q0 24 -17 39.5t-64 15.5h-71v-118zM352 148h-84v427h162q78 0 117 -28.5t39 -93.5q0 -29 -8.5 -50t-22.5 -35t-32 -21.5t-38 -10.5l108 -188h-88l-103 185h-50v-185zM401 670q-63 0 -117 -23.5t-94 -65t-63 -97.5t-23 -121q0 -67 23 -123.5
t63 -98t94 -64.5t117 -23q62 0 116 23t93.5 64.5t62.5 98t23 123.5q0 65 -23 121t-62.5 97.5t-93.5 65t-116 23.5zM401 -12q-77 0 -146 27.5t-121 77t-83 118.5t-31 152q0 82 31 150.5t83 118t121 77t146 27.5q76 0 145 -27.5t121 -77t82.5 -118t30.5 -150.5
q0 -83 -30.5 -152t-82.5 -118.5t-121 -77t-145 -27.5z" />
    <glyph glyph-name="copyright" unicode="&#xa9;" horiz-adv-x="800" 
d="M598 294q-7 -37 -24 -66t-41 -49.5t-54.5 -31.5t-64.5 -11q-50 0 -90 17.5t-68.5 48.5t-44 72.5t-15.5 89.5q0 49 15 90.5t42.5 71.5t67.5 47t91 17q35 0 66.5 -10t56 -29.5t40.5 -48.5t22 -67h-72q-8 40 -38 62.5t-75 22.5q-33 0 -58 -11.5t-42 -32t-25.5 -49
t-8.5 -62.5q0 -32 9.5 -61t27 -51t42.5 -34.5t57 -12.5q46 0 76 24t35 64h73zM401 670q-63 0 -117 -23.5t-94 -65t-63 -97.5t-23 -121q0 -67 23 -123.5t63 -98t94 -64.5t117 -23q62 0 116 23t93.5 64.5t62.5 98t23 123.5q0 65 -23 121t-62.5 97.5t-93.5 65t-116 23.5z
M401 -12q-77 0 -146 27.5t-121 77t-83 118.5t-31 152q0 82 31 150.5t83 118t121 77t146 27.5q76 0 145 -27.5t121 -77t82.5 -118t30.5 -150.5q0 -83 -30.5 -152t-82.5 -118.5t-121 -77t-145 -27.5z" />
    <glyph glyph-name="Aacute" unicode="&#xc1;" 
d="M272 904h109l-131 -142h-67zM175 306h145l-72 258h-2zM-3 0l200 724h98l208 -724h-96l-63 214h-192l-58 -214h-97z" />
    <glyph glyph-name="Acircumflex" unicode="&#xc2;" 
d="M175 306h145l-72 258h-2zM204 904h91l100 -142h-79l-66 94l-66 -94h-79zM-3 0l200 724h98l208 -724h-96l-63 214h-192l-58 -214h-97z" />
    <glyph glyph-name="Adieresis" unicode="&#xc4;" 
d="M287 778v98h90v-98h-90zM123 778v98h90v-98h-90zM175 306h145l-72 258h-2zM-3 0l200 724h98l208 -724h-96l-63 214h-192l-58 -214h-97z" />
    <glyph glyph-name="Agrave" unicode="&#xc0;" 
d="M317 762h-67l-131 142h109zM175 306h145l-72 258h-2zM-3 0l200 724h98l208 -724h-96l-63 214h-192l-58 -214h-97z" />
    <glyph glyph-name="Aring" unicode="&#xc5;" 
d="M249 932q-26 0 -43 -18t-17 -44t17 -43t43 -17t44 17t18 43t-18 44t-44 18zM175 306h145l-72 258h-2zM249 762q-23 0 -42.5 8.5t-34 23t-23 34t-8.5 42.5q0 22 8.5 42t23 35t34 24t42.5 9q22 0 42 -9t35 -24t24 -35t9 -42q0 -23 -9 -42.5t-24 -34t-35 -23t-42 -8.5zM-3 0
l200 724h98l208 -724h-96l-63 214h-192l-58 -214h-97z" />
    <glyph glyph-name="Atilde" unicode="&#xc3;" 
d="M175 306h145l-72 258h-2zM420 889q-2 -19 -9.5 -38.5t-20 -35t-30 -25.5t-38.5 -10q-20 0 -39 6t-39 13t-38 13t-34 6q-17 0 -28.5 -15t-13.5 -30h-50q2 44 30 75.5t74 31.5q20 0 38.5 -5.5t35.5 -12.5t32.5 -12.5t32.5 -5.5q22 0 33.5 12t13.5 33h50zM-3 0l200 724h98
l208 -724h-96l-63 214h-192l-58 -214h-97z" />
    <glyph glyph-name="Ccedilla" unicode="&#xc7;" horiz-adv-x="556" 
d="M208 -87l55 76q-48 4 -89 29t-72 71.5t-48.5 114.5t-17.5 158q0 95 19.5 165.5t53.5 117t79.5 69t96.5 22.5q64 0 108 -22.5t72 -61.5t41.5 -92t18.5 -114h-96q-5 38 -13 75t-24.5 66t-42 47t-64.5 18q-35 0 -62.5 -20.5t-46 -58.5t-28.5 -91.5t-10 -119.5t10 -119.5
t28.5 -91.5t46 -58.5t62.5 -20.5q44 0 70.5 17t41.5 45.5t21 64.5t10 74h96q0 -59 -12 -109t-37.5 -87.5t-66.5 -60.5t-98 -27l-34 -46q9 2 17.5 3t17.5 1q36 0 56.5 -23t20.5 -57q0 -25 -10.5 -42.5t-27 -29t-37.5 -16.5t-42 -5q-26 0 -50.5 6t-47.5 16l17 43q16 -5 32 -9
t31 -4q29 0 44 7.5t15 27.5q0 21 -15 30.5t-34 9.5t-38 -8z" />
    <glyph glyph-name="Eacute" unicode="&#xc9;" 
d="M278 904h109l-131 -142h-67zM70 0v724h364v-92h-262v-208h262v-92h-262v-240h262v-92h-364z" />
    <glyph glyph-name="Ecircumflex" unicode="&#xca;" 
d="M210 904h91l100 -142h-79l-66 94l-66 -94h-79zM70 0v724h364v-92h-262v-208h262v-92h-262v-240h262v-92h-364z" />
    <glyph glyph-name="Edieresis" unicode="&#xcb;" 
d="M129 778v98h90v-98h-90zM293 778v98h90v-98h-90zM70 0v724h364v-92h-262v-208h262v-92h-262v-240h262v-92h-364z" />
    <glyph glyph-name="Egrave" unicode="&#xc8;" 
d="M323 762h-67l-131 142h109zM70 0v724h364v-92h-262v-208h262v-92h-262v-240h262v-92h-364z" />
    <glyph glyph-name="Iacute" unicode="&#xcd;" horiz-adv-x="222" 
d="M133 904h109l-131 -142h-67zM60 0v724h102v-724h-102z" />
    <glyph glyph-name="Icircumflex" unicode="&#xce;" horiz-adv-x="222" 
d="M65 904h91l100 -142h-79l-66 94l-66 -94h-79zM60 0v724h102v-724h-102z" />
    <glyph glyph-name="Idieresis" unicode="&#xcf;" horiz-adv-x="222" 
d="M-16 778v98h90v-98h-90zM148 778v98h90v-98h-90zM60 0v724h102v-724h-102z" />
    <glyph glyph-name="Igrave" unicode="&#xcc;" horiz-adv-x="222" 
d="M178 762h-67l-131 142h109zM60 0v724h102v-724h-102z" />
    <glyph glyph-name="Ntilde" unicode="&#xd1;" horiz-adv-x="611" 
d="M476 889q-2 -19 -9.5 -38.5t-20 -35t-30 -25.5t-38.5 -10q-20 0 -39 6t-39 13t-38 13t-34 6q-17 0 -28.5 -15t-13.5 -30h-50q2 44 30 75.5t74 31.5q20 0 38.5 -5.5t35.5 -12.5t32.5 -12.5t32.5 -5.5q22 0 33.5 12t13.5 33h50zM76 0v724h102l258 -516h2v516h96v-724h-94
l-266 536h-2v-536h-96z" />
    <glyph glyph-name="Oacute" unicode="&#xd3;" horiz-adv-x="611" 
d="M328 904h109l-131 -142h-67zM305 652q-44 0 -75.5 -23t-52 -62.5t-30 -92.5t-9.5 -112t9.5 -112t30 -92.5t52 -62.5t75.5 -23t75.5 23t52 62.5t30 92.5t9.5 112t-9.5 112t-30 92.5t-52 62.5t-75.5 23zM305 736q64 0 114 -26.5t84.5 -75.5t52.5 -118t18 -154t-18 -154
t-52.5 -118t-84.5 -75.5t-114 -26.5t-114 26.5t-84.5 75.5t-52.5 118t-18 154t18 154t52.5 118t84.5 75.5t114 26.5z" />
    <glyph glyph-name="Ocircumflex" unicode="&#xd4;" horiz-adv-x="611" 
d="M260 904h91l100 -142h-79l-66 94l-66 -94h-79zM305 652q-44 0 -75.5 -23t-52 -62.5t-30 -92.5t-9.5 -112t9.5 -112t30 -92.5t52 -62.5t75.5 -23t75.5 23t52 62.5t30 92.5t9.5 112t-9.5 112t-30 92.5t-52 62.5t-75.5 23zM305 736q64 0 114 -26.5t84.5 -75.5t52.5 -118
t18 -154t-18 -154t-52.5 -118t-84.5 -75.5t-114 -26.5t-114 26.5t-84.5 75.5t-52.5 118t-18 154t18 154t52.5 118t84.5 75.5t114 26.5z" />
    <glyph glyph-name="Odieresis" unicode="&#xd6;" horiz-adv-x="611" 
d="M343 778v98h90v-98h-90zM179 778v98h90v-98h-90zM305 652q-44 0 -75.5 -23t-52 -62.5t-30 -92.5t-9.5 -112t9.5 -112t30 -92.5t52 -62.5t75.5 -23t75.5 23t52 62.5t30 92.5t9.5 112t-9.5 112t-30 92.5t-52 62.5t-75.5 23zM305 736q64 0 114 -26.5t84.5 -75.5t52.5 -118
t18 -154t-18 -154t-52.5 -118t-84.5 -75.5t-114 -26.5t-114 26.5t-84.5 75.5t-52.5 118t-18 154t18 154t52.5 118t84.5 75.5t114 26.5z" />
    <glyph glyph-name="Ograve" unicode="&#xd2;" horiz-adv-x="611" 
d="M373 762h-67l-131 142h109zM305 652q-44 0 -75.5 -23t-52 -62.5t-30 -92.5t-9.5 -112t9.5 -112t30 -92.5t52 -62.5t75.5 -23t75.5 23t52 62.5t30 92.5t9.5 112t-9.5 112t-30 92.5t-52 62.5t-75.5 23zM305 736q64 0 114 -26.5t84.5 -75.5t52.5 -118t18 -154t-18 -154
t-52.5 -118t-84.5 -75.5t-114 -26.5t-114 26.5t-84.5 75.5t-52.5 118t-18 154t18 154t52.5 118t84.5 75.5t114 26.5z" />
    <glyph glyph-name="Otilde" unicode="&#xd5;" horiz-adv-x="611" 
d="M476 889q-2 -19 -9.5 -38.5t-20 -35t-30 -25.5t-38.5 -10q-20 0 -39 6t-39 13t-38 13t-34 6q-17 0 -28.5 -15t-13.5 -30h-50q2 44 30 75.5t74 31.5q20 0 38.5 -5.5t35.5 -12.5t32.5 -12.5t32.5 -5.5q22 0 33.5 12t13.5 33h50zM305 652q-44 0 -75.5 -23t-52 -62.5
t-30 -92.5t-9.5 -112t9.5 -112t30 -92.5t52 -62.5t75.5 -23t75.5 23t52 62.5t30 92.5t9.5 112t-9.5 112t-30 92.5t-52 62.5t-75.5 23zM305 736q64 0 114 -26.5t84.5 -75.5t52.5 -118t18 -154t-18 -154t-52.5 -118t-84.5 -75.5t-114 -26.5t-114 26.5t-84.5 75.5t-52.5 118
t-18 154t18 154t52.5 118t84.5 75.5t114 26.5z" />
    <glyph glyph-name="Uacute" unicode="&#xda;" horiz-adv-x="556" 
d="M300 904h109l-131 -142h-67zM500 724v-513q0 -49 -13 -90t-40.5 -70.5t-69.5 -46t-99 -16.5t-99 16.5t-69.5 46t-40.5 70.5t-13 90v513h102v-531q0 -56 33.5 -84.5t86.5 -28.5t86.5 28.5t33.5 84.5v531h102z" />
    <glyph glyph-name="Ucircumflex" unicode="&#xdb;" horiz-adv-x="556" 
d="M232 904h91l100 -142h-79l-66 94l-66 -94h-79zM500 724v-513q0 -49 -13 -90t-40.5 -70.5t-69.5 -46t-99 -16.5t-99 16.5t-69.5 46t-40.5 70.5t-13 90v513h102v-531q0 -56 33.5 -84.5t86.5 -28.5t86.5 28.5t33.5 84.5v531h102z" />
    <glyph glyph-name="Udieresis" unicode="&#xdc;" horiz-adv-x="556" 
d="M151 778v98h90v-98h-90zM315 778v98h90v-98h-90zM500 724v-513q0 -49 -13 -90t-40.5 -70.5t-69.5 -46t-99 -16.5t-99 16.5t-69.5 46t-40.5 70.5t-13 90v513h102v-531q0 -56 33.5 -84.5t86.5 -28.5t86.5 28.5t33.5 84.5v531h102z" />
    <glyph glyph-name="Ugrave" unicode="&#xd9;" horiz-adv-x="556" 
d="M345 762h-67l-131 142h109zM500 724v-513q0 -49 -13 -90t-40.5 -70.5t-69.5 -46t-99 -16.5t-99 16.5t-69.5 46t-40.5 70.5t-13 90v513h102v-531q0 -56 33.5 -84.5t86.5 -28.5t86.5 28.5t33.5 84.5v531h102z" />
    <glyph glyph-name="Ydieresis" unicode="&#x178;" 
d="M123 778v98h90v-98h-90zM287 778v98h90v-98h-90zM392 724h108l-199 -432v-292h-102v292l-199 432h107l143 -320z" />
    <glyph glyph-name="aacute" unicode="&#xe1;" 
d="M272 764h109l-131 -142h-67zM344 335q0 72 -28.5 107.5t-73.5 35.5q-23 0 -43 -9t-35.5 -31.5t-24.5 -59.5t-9 -92q0 -62 8 -102t22 -62.5t34 -31t43 -8.5q48 0 77.5 32t29.5 103v118zM440 0h-82v80h-2q-8 -22 -17.5 -38.5t-24 -28t-34.5 -17.5t-50 -6q-99 0 -147.5 76.5
t-48.5 213.5q0 56 11 108t35 92.5t61 65t89 24.5q46 0 77.5 -22.5t48.5 -79.5h2v92h82v-560z" />
    <glyph glyph-name="acircumflex" unicode="&#xe2;" 
d="M204 764h91l100 -142h-79l-66 94l-66 -94h-79zM344 335q0 72 -28.5 107.5t-73.5 35.5q-23 0 -43 -9t-35.5 -31.5t-24.5 -59.5t-9 -92q0 -62 8 -102t22 -62.5t34 -31t43 -8.5q48 0 77.5 32t29.5 103v118zM440 0h-82v80h-2q-8 -22 -17.5 -38.5t-24 -28t-34.5 -17.5t-50 -6
q-99 0 -147.5 76.5t-48.5 213.5q0 56 11 108t35 92.5t61 65t89 24.5q46 0 77.5 -22.5t48.5 -79.5h2v92h82v-560z" />
    <glyph glyph-name="adieresis" unicode="&#xe4;" 
d="M287 638v98h90v-98h-90zM123 638v98h90v-98h-90zM344 335q0 72 -28.5 107.5t-73.5 35.5q-23 0 -43 -9t-35.5 -31.5t-24.5 -59.5t-9 -92q0 -62 8 -102t22 -62.5t34 -31t43 -8.5q48 0 77.5 32t29.5 103v118zM440 0h-82v80h-2q-8 -22 -17.5 -38.5t-24 -28t-34.5 -17.5
t-50 -6q-99 0 -147.5 76.5t-48.5 213.5q0 56 11 108t35 92.5t61 65t89 24.5q46 0 77.5 -22.5t48.5 -79.5h2v92h82v-560z" />
    <glyph glyph-name="agrave" unicode="&#xe0;" 
d="M317 622h-67l-131 142h109zM344 335q0 72 -28.5 107.5t-73.5 35.5q-23 0 -43 -9t-35.5 -31.5t-24.5 -59.5t-9 -92q0 -62 8 -102t22 -62.5t34 -31t43 -8.5q48 0 77.5 32t29.5 103v118zM440 0h-82v80h-2q-8 -22 -17.5 -38.5t-24 -28t-34.5 -17.5t-50 -6q-99 0 -147.5 76.5
t-48.5 213.5q0 56 11 108t35 92.5t61 65t89 24.5q46 0 77.5 -22.5t48.5 -79.5h2v92h82v-560z" />
    <glyph glyph-name="aring" unicode="&#xe5;" 
d="M249 792q-26 0 -43 -18t-17 -44t17 -43t43 -17t44 17t18 43t-18 44t-44 18zM249 622q-23 0 -42.5 8.5t-34 23t-23 34t-8.5 42.5q0 22 8.5 42t23 35t34 24t42.5 9q22 0 42 -9t35 -24t24 -35t9 -42q0 -23 -9 -42.5t-24 -34t-35 -23t-42 -8.5zM344 335q0 72 -28.5 107.5
t-73.5 35.5q-23 0 -43 -9t-35.5 -31.5t-24.5 -59.5t-9 -92q0 -62 8 -102t22 -62.5t34 -31t43 -8.5q48 0 77.5 32t29.5 103v118zM440 0h-82v80h-2q-8 -22 -17.5 -38.5t-24 -28t-34.5 -17.5t-50 -6q-99 0 -147.5 76.5t-48.5 213.5q0 56 11 108t35 92.5t61 65t89 24.5
q46 0 77.5 -22.5t48.5 -79.5h2v92h82v-560z" />
    <glyph glyph-name="atilde" unicode="&#xe3;" 
d="M420 749q-2 -19 -9.5 -38.5t-20 -35t-30 -25.5t-38.5 -10q-20 0 -39 6t-39 13t-38 13t-34 6q-17 0 -28.5 -15t-13.5 -30h-50q2 44 30 75.5t74 31.5q20 0 38.5 -5.5t35.5 -12.5t32.5 -12.5t32.5 -5.5q22 0 33.5 12t13.5 33h50zM344 335q0 72 -28.5 107.5t-73.5 35.5
q-23 0 -43 -9t-35.5 -31.5t-24.5 -59.5t-9 -92q0 -62 8 -102t22 -62.5t34 -31t43 -8.5q48 0 77.5 32t29.5 103v118zM440 0h-82v80h-2q-8 -22 -17.5 -38.5t-24 -28t-34.5 -17.5t-50 -6q-99 0 -147.5 76.5t-48.5 213.5q0 56 11 108t35 92.5t61 65t89 24.5q46 0 77.5 -22.5
t48.5 -79.5h2v92h82v-560z" />
    <glyph glyph-name="ccedilla" unicode="&#xe7;" horiz-adv-x="444" 
d="M152 -87l56 79q-47 5 -80 31t-54 65.5t-30.5 89t-9.5 102.5q0 56 11 108t34.5 92.5t61 65t90.5 24.5q49 0 84 -18t57.5 -47t34.5 -67.5t15 -78.5h-96q-2 20 -8 41t-17 38.5t-28.5 28.5t-42.5 11q-50 0 -75 -47t-25 -152q0 -94 25 -145.5t79 -51.5q28 0 44.5 11.5
t26.5 29.5t14 40t7 43h96q-1 -40 -11.5 -77t-31 -66t-51 -48t-72.5 -23l-36 -49q9 2 17.5 3t17.5 1q36 0 56.5 -23t20.5 -57q0 -25 -10.5 -42.5t-27 -29t-37.5 -16.5t-42 -5q-26 0 -50.5 6t-47.5 16l17 43q16 -5 32 -9t31 -4q29 0 44 7.5t15 27.5q0 21 -15 30.5t-34 9.5
t-38 -8z" />
    <glyph glyph-name="eacute" unicode="&#xe9;" horiz-adv-x="444" 
d="M244 764h109l-131 -142h-67zM318 330q0 80 -22.5 118t-68.5 38t-70.5 -38t-24.5 -118h186zM130 254q0 -76 24 -124t75 -48q38 0 63.5 31t25.5 85h96q-3 -40 -17 -77.5t-38 -66.5t-56.5 -46.5t-72.5 -17.5q-43 0 -79 19t-62 56t-40.5 91t-14.5 124t14.5 124t40.5 91t62 56
t79 19q47 0 82 -20t57.5 -55t33.5 -82t11 -101v-58h-284z" />
    <glyph glyph-name="ecircumflex" unicode="&#xea;" horiz-adv-x="444" 
d="M176 764h91l100 -142h-79l-66 94l-66 -94h-79zM318 330q0 80 -22.5 118t-68.5 38t-70.5 -38t-24.5 -118h186zM130 254q0 -76 24 -124t75 -48q38 0 63.5 31t25.5 85h96q-3 -40 -17 -77.5t-38 -66.5t-56.5 -46.5t-72.5 -17.5q-43 0 -79 19t-62 56t-40.5 91t-14.5 124
t14.5 124t40.5 91t62 56t79 19q47 0 82 -20t57.5 -55t33.5 -82t11 -101v-58h-284z" />
    <glyph glyph-name="edieresis" unicode="&#xeb;" horiz-adv-x="444" 
d="M259 638v98h90v-98h-90zM95 638v98h90v-98h-90zM318 330q0 80 -22.5 118t-68.5 38t-70.5 -38t-24.5 -118h186zM130 254q0 -76 24 -124t75 -48q38 0 63.5 31t25.5 85h96q-3 -40 -17 -77.5t-38 -66.5t-56.5 -46.5t-72.5 -17.5q-43 0 -79 19t-62 56t-40.5 91t-14.5 124
t14.5 124t40.5 91t62 56t79 19q47 0 82 -20t57.5 -55t33.5 -82t11 -101v-58h-284z" />
    <glyph glyph-name="egrave" unicode="&#xe8;" horiz-adv-x="444" 
d="M289 622h-67l-131 142h109zM318 330q0 80 -22.5 118t-68.5 38t-70.5 -38t-24.5 -118h186zM130 254q0 -76 24 -124t75 -48q38 0 63.5 31t25.5 85h96q-3 -40 -17 -77.5t-38 -66.5t-56.5 -46.5t-72.5 -17.5q-43 0 -79 19t-62 56t-40.5 91t-14.5 124t14.5 124t40.5 91t62 56
t79 19q47 0 82 -20t57.5 -55t33.5 -82t11 -101v-58h-284z" />
    <glyph glyph-name="iacute" unicode="&#xed;" horiz-adv-x="222" 
d="M133 764h109l-131 -142h-67zM63 0v560h96v-560h-96z" />
    <glyph glyph-name="icircumflex" unicode="&#xee;" horiz-adv-x="222" 
d="M65 764h91l100 -142h-79l-66 94l-66 -94h-79zM63 0v560h96v-560h-96z" />
    <glyph glyph-name="idieresis" unicode="&#xef;" horiz-adv-x="222" 
d="M-16 638v98h90v-98h-90zM148 638v98h90v-98h-90zM63 0v560h96v-560h-96z" />
    <glyph glyph-name="igrave" unicode="&#xec;" horiz-adv-x="222" 
d="M178 622h-67l-131 142h109zM63 0v560h96v-560h-96z" />
    <glyph glyph-name="ntilde" unicode="&#xf1;" 
d="M420 749q-2 -19 -9.5 -38.5t-20 -35t-30 -25.5t-38.5 -10q-20 0 -39 6t-39 13t-38 13t-34 6q-17 0 -28.5 -15t-13.5 -30h-50q2 44 30 75.5t74 31.5q20 0 38.5 -5.5t35.5 -12.5t32.5 -12.5t32.5 -5.5q22 0 33.5 12t13.5 33h50zM60 0v560h86v-70h2q22 43 51.5 61.5
t80.5 18.5q77 0 118.5 -47.5t41.5 -130.5v-392h-96v362q0 60 -21 88t-63 28q-20 0 -38.5 -7t-33 -21.5t-23.5 -36t-9 -51.5v-362h-96z" />
    <glyph glyph-name="oacute" unicode="&#xf3;" 
d="M272 764h109l-131 -142h-67zM370 280q0 57 -8 96.5t-23.5 63.5t-38 35t-50.5 11q-29 0 -51 -11t-37.5 -35t-23.5 -63.5t-8 -96.5t8 -96.5t23.5 -63.5t37.5 -35t51 -11q28 0 50.5 11t38 35t23.5 63.5t8 96.5zM466 280q0 -67 -14 -120.5t-41.5 -91t-68 -58t-92.5 -20.5
q-53 0 -93 20.5t-67.5 58t-41.5 91t-14 120.5t14 120.5t41.5 91t67.5 58t93 20.5q52 0 92.5 -20.5t68 -58t41.5 -91t14 -120.5z" />
    <glyph glyph-name="ocircumflex" unicode="&#xf4;" 
d="M204 764h91l100 -142h-79l-66 94l-66 -94h-79zM370 280q0 57 -8 96.5t-23.5 63.5t-38 35t-50.5 11q-29 0 -51 -11t-37.5 -35t-23.5 -63.5t-8 -96.5t8 -96.5t23.5 -63.5t37.5 -35t51 -11q28 0 50.5 11t38 35t23.5 63.5t8 96.5zM466 280q0 -67 -14 -120.5t-41.5 -91
t-68 -58t-92.5 -20.5q-53 0 -93 20.5t-67.5 58t-41.5 91t-14 120.5t14 120.5t41.5 91t67.5 58t93 20.5q52 0 92.5 -20.5t68 -58t41.5 -91t14 -120.5z" />
    <glyph glyph-name="odieresis" unicode="&#xf6;" 
d="M287 638v98h90v-98h-90zM123 638v98h90v-98h-90zM370 280q0 57 -8 96.5t-23.5 63.5t-38 35t-50.5 11q-29 0 -51 -11t-37.5 -35t-23.5 -63.5t-8 -96.5t8 -96.5t23.5 -63.5t37.5 -35t51 -11q28 0 50.5 11t38 35t23.5 63.5t8 96.5zM466 280q0 -67 -14 -120.5t-41.5 -91
t-68 -58t-92.5 -20.5q-53 0 -93 20.5t-67.5 58t-41.5 91t-14 120.5t14 120.5t41.5 91t67.5 58t93 20.5q52 0 92.5 -20.5t68 -58t41.5 -91t14 -120.5z" />
    <glyph glyph-name="ograve" unicode="&#xf2;" 
d="M317 622h-67l-131 142h109zM370 280q0 57 -8 96.5t-23.5 63.5t-38 35t-50.5 11q-29 0 -51 -11t-37.5 -35t-23.5 -63.5t-8 -96.5t8 -96.5t23.5 -63.5t37.5 -35t51 -11q28 0 50.5 11t38 35t23.5 63.5t8 96.5zM466 280q0 -67 -14 -120.5t-41.5 -91t-68 -58t-92.5 -20.5
q-53 0 -93 20.5t-67.5 58t-41.5 91t-14 120.5t14 120.5t41.5 91t67.5 58t93 20.5q52 0 92.5 -20.5t68 -58t41.5 -91t14 -120.5z" />
    <glyph glyph-name="otilde" unicode="&#xf5;" 
d="M420 749q-2 -19 -9.5 -38.5t-20 -35t-30 -25.5t-38.5 -10q-20 0 -39 6t-39 13t-38 13t-34 6q-17 0 -28.5 -15t-13.5 -30h-50q2 44 30 75.5t74 31.5q20 0 38.5 -5.5t35.5 -12.5t32.5 -12.5t32.5 -5.5q22 0 33.5 12t13.5 33h50zM370 280q0 57 -8 96.5t-23.5 63.5t-38 35
t-50.5 11q-29 0 -51 -11t-37.5 -35t-23.5 -63.5t-8 -96.5t8 -96.5t23.5 -63.5t37.5 -35t51 -11q28 0 50.5 11t38 35t23.5 63.5t8 96.5zM466 280q0 -67 -14 -120.5t-41.5 -91t-68 -58t-92.5 -20.5q-53 0 -93 20.5t-67.5 58t-41.5 91t-14 120.5t14 120.5t41.5 91t67.5 58
t93 20.5q52 0 92.5 -20.5t68 -58t41.5 -91t14 -120.5z" />
    <glyph glyph-name="uacute" unicode="&#xfa;" 
d="M272 764h109l-131 -142h-67zM440 560v-560h-86v84h-2q-15 -50 -48 -72t-84 -22q-77 0 -118.5 47.5t-41.5 130.5v392h96v-362q0 -60 21 -88t63 -28q19 0 38 7t33.5 21.5t23.5 36t9 51.5v362h96z" />
    <glyph glyph-name="ucircumflex" unicode="&#xfb;" 
d="M204 764h91l100 -142h-79l-66 94l-66 -94h-79zM440 560v-560h-86v84h-2q-15 -50 -48 -72t-84 -22q-77 0 -118.5 47.5t-41.5 130.5v392h96v-362q0 -60 21 -88t63 -28q19 0 38 7t33.5 21.5t23.5 36t9 51.5v362h96z" />
    <glyph glyph-name="udieresis" unicode="&#xfc;" 
d="M123 638v98h90v-98h-90zM287 638v98h90v-98h-90zM440 560v-560h-86v84h-2q-15 -50 -48 -72t-84 -22q-77 0 -118.5 47.5t-41.5 130.5v392h96v-362q0 -60 21 -88t63 -28q19 0 38 7t33.5 21.5t23.5 36t9 51.5v362h96z" />
    <glyph glyph-name="ugrave" unicode="&#xf9;" 
d="M317 622h-67l-131 142h109zM440 560v-560h-86v84h-2q-15 -50 -48 -72t-84 -22q-77 0 -118.5 47.5t-41.5 130.5v392h96v-362q0 -60 21 -88t63 -28q19 0 38 7t33.5 21.5t23.5 36t9 51.5v362h96z" />
    <glyph glyph-name="ydieresis" unicode="&#xff;" horiz-adv-x="444" 
d="M95 638v98h90v-98h-90zM259 638v98h90v-98h-90zM206 -198h-100l63 213l-163 545h99l117 -399h2l114 399h100z" />
    <glyph glyph-name="space" unicode=" " horiz-adv-x="278" 
 />
    <glyph glyph-name="space" unicode="&#xa0;" horiz-adv-x="278" 
 />
    <glyph glyph-name="Lslash" unicode="&#x141;" horiz-adv-x="444" 
d="M172 92h258v-92h-360v283l-69 -28v88l69 28v353h102v-311l176 71v-88l-176 -71v-233z" />
    <glyph glyph-name="lslash" unicode="&#x142;" horiz-adv-x="222" 
d="M159 0h-96v333l-60 -31v80l60 31v311h96v-261l60 31v-80l-60 -31v-383z" />
    <glyph glyph-name="onesuperior" unicode="&#xb9;" horiz-adv-x="333" 
d="M221 728v-434h-78v372h-77v62h155z" />
    <glyph glyph-name="Eth" unicode="&#xd0;" horiz-adv-x="611" 
d="M350 426v-92h-178v-242h97q60 0 99 21t62 58t32.5 86t9.5 105t-9.5 105t-32.5 86t-62 58t-99 21h-97v-206h178zM70 426v298h215q79 0 134 -28.5t89.5 -78t50 -115.5t15.5 -140t-15.5 -140t-50 -115.5t-89.5 -78t-134 -28.5h-215v334h-84v92h84z" />
    <glyph glyph-name="onehalf" unicode="&#xbd;" horiz-adv-x="834" 
d="M249 728v-434h-78v372h-77v62h155zM626 736l-379 -748h-82l380 748h81zM483 0v61q63 69 103.5 108.5t64 64.5t32.5 42.5t9 43.5q0 23 -16 38.5t-51 15.5t-53.5 -20.5t-17.5 -49.5h-74q0 65 40.5 101.5t114.5 36.5q28 0 52.5 -9t43 -25t29 -38t10.5 -48q0 -29 -6 -50
t-25 -46.5t-55 -62t-97 -95.5h183v-68h-287z" />
    <glyph glyph-name="Thorn" unicode="&#xde;" horiz-adv-x="556" 
d="M172 236h107q63 0 97.5 34.5t34.5 97.5t-34.5 97.5t-97.5 34.5h-107v-264zM172 592h124q48 0 88 -16t68.5 -45t44.5 -70.5t16 -92.5t-16 -92.5t-44.5 -70.5t-68.5 -45t-88 -16h-124v-144h-102v724h102v-132z" />
    <glyph glyph-name="onequarter" unicode="&#xbc;" horiz-adv-x="834" 
d="M656 310h-2l-95 -152h97v152zM249 728v-434h-78v372h-77v62h155zM662 736l-379 -748h-82l380 748h81zM477 167l172 263h85v-272h51v-68h-51v-90h-78v90h-179v77z" />
    <glyph glyph-name="brokenbar" unicode="&#xa6;" horiz-adv-x="222" 
d="M69 736h84v-284h-84v284zM69 272h84v-284h-84v284z" />
    <glyph glyph-name="thorn" unicode="&#xfe;" 
d="M156 225q0 -72 28.5 -107.5t73.5 -35.5q22 0 42.5 9t36 31.5t24.5 59t9 92.5q0 62 -8 102t-22.5 62.5t-34 31t-42.5 8.5q-48 0 -77.5 -32t-29.5 -103v-118zM60 724h96v-234h2q6 16 13 30.5t19 25.5t31 17.5t49 6.5q99 0 147.5 -76.5t48.5 -213.5q0 -56 -11 -108
t-35 -92.5t-61 -65t-89 -24.5q-43 0 -71.5 19.5t-39.5 42.5h-3v-250h-96v922z" />
    <glyph glyph-name="threequarters" unicode="&#xbe;" horiz-adv-x="834" 
d="M656 310h-2l-95 -152h97v152zM678 736l-379 -748h-82l380 748h81zM172 558q19 0 37 2.5t31.5 9t21.5 18t8 29.5q0 20 -17 35.5t-47 15.5q-32 0 -49.5 -14t-22.5 -40h-72q1 63 44 92.5t109 29.5q25 0 48.5 -8t42 -22.5t29.5 -35t11 -45.5q0 -35 -11.5 -58t-46.5 -37v-2
q36 -9 57 -39.5t21 -72.5q0 -32 -13.5 -56t-35.5 -40.5t-50.5 -25t-58.5 -8.5q-81 0 -117.5 36.5t-36.5 106.5h76q0 -32 18.5 -53.5t58.5 -21.5q38 0 60.5 19t22.5 48q0 35 -27.5 54t-69.5 19h-10t-11 -1v65zM477 167l172 263h85v-272h51v-68h-51v-90h-78v90h-179v77z" />
    <glyph glyph-name="twosuperior" unicode="&#xb2;" horiz-adv-x="333" 
d="M24 294v61q63 69 103.5 108.5t64 64.5t32.5 42.5t9 43.5q0 23 -16 38.5t-51 15.5t-53.5 -20.5t-17.5 -49.5h-74q0 65 40.5 101.5t114.5 36.5q28 0 52.5 -9t43 -25t29 -38t10.5 -48q0 -29 -6 -50t-25 -46.5t-55 -62t-97 -95.5h183v-68h-287z" />
    <glyph glyph-name="minus" unicode="&#x2212;" horiz-adv-x="600" 
d="M47 211v84h506v-84h-506z" />
    <glyph glyph-name="eth" unicode="&#xf0;" 
d="M250 370q-57 0 -88.5 -41t-31.5 -107q0 -72 31.5 -110t88.5 -38t88.5 38t31.5 110q0 66 -31.5 107t-88.5 41zM386 738l37 -50l-103 -73q67 -72 106.5 -167.5t39.5 -201.5q0 -124 -55 -190t-161 -66q-53 0 -93 17t-67.5 47.5t-41.5 72t-14 91.5t14 93t41.5 75t67.5 50
t93 18q20 0 38 -3t44 -11q-12 33 -30.5 65.5t-45.5 64.5l-111 -78l-37 50l103 73q-41 37 -98 65l35 56q69 -29 126 -77z" />
    <glyph glyph-name="multiply" unicode="&#xd7;" horiz-adv-x="600" 
d="M553 60l-59 -60l-194 194l-194 -194l-59 60l193 193l-193 193l59 60l194 -194l194 194l59 -60l-193 -193z" />
    <glyph glyph-name="threesuperior" unicode="&#xb3;" horiz-adv-x="333" 
d="M132 558q19 0 37 2.5t31.5 9t21.5 18t8 29.5q0 20 -17 35.5t-47 15.5q-32 0 -49.5 -14t-22.5 -40h-72q1 63 44 92.5t109 29.5q25 0 48.5 -8t42 -22.5t29.5 -35t11 -45.5q0 -35 -11.5 -58t-46.5 -37v-2q36 -9 57 -39.5t21 -72.5q0 -32 -13.5 -56t-35.5 -40.5t-50.5 -25
t-58.5 -8.5q-81 0 -117.5 36.5t-36.5 106.5h76q0 -32 18.5 -53.5t58.5 -21.5q38 0 60.5 19t22.5 48q0 35 -27.5 54t-69.5 19h-10t-11 -1v65z" />
    <glyph glyph-name="Scaron" unicode="&#x160;" 
d="M296 762h-91l-100 142h79l66 -94l66 94h79zM126 223q0 -31 6 -58.5t20.5 -48t38 -32.5t58.5 -12q63 0 93.5 32.5t30.5 90.5q0 34 -14.5 56t-38 37t-54 26t-62 22.5t-61.5 26.5t-53.5 37.5t-38 55.5t-14.5 81q0 45 16 81.5t43.5 62.5t65.5 40.5t82 14.5q101 0 157.5 -55
t59.5 -156h-102q0 26 -7 49t-21 40.5t-35 27.5t-49 10q-48 0 -78 -30.5t-30 -77.5q0 -43 25 -66.5t62 -38.5t81 -28.5t81 -37t62 -63.5t25 -109q0 -53 -17.5 -92.5t-47.5 -66.5t-70 -40.5t-84 -13.5q-61 0 -104.5 16.5t-72 47.5t-42 74.5t-13.5 96.5h102z" />
    <glyph glyph-name="Yacute" unicode="&#xdd;" 
d="M272 904h109l-131 -142h-67zM392 724h108l-199 -432v-292h-102v292l-199 432h107l143 -320z" />
    <glyph glyph-name="Zcaron" unicode="&#x17d;" horiz-adv-x="444" 
d="M268 762h-91l-100 142h79l66 -94l66 94h79zM296 632h-255v92h377v-93l-281 -539h290v-92h-410v84z" />
    <glyph glyph-name="scaron" unicode="&#x161;" horiz-adv-x="389" 
d="M241 622h-91l-100 142h79l66 -94l66 94h79zM274 397q-4 38 -23 59.5t-61 21.5q-35 0 -52.5 -17t-17.5 -47q0 -28 18 -43t45 -26t59 -21.5t59 -29t45 -49t18 -81.5q0 -85 -47 -129.5t-125 -44.5q-39 0 -71 14.5t-55.5 39t-36 57.5t-12.5 70h90q2 -41 26 -65t66 -24
q35 0 55 20t20 55q0 30 -18 46.5t-45 27.5t-59 21.5t-59 28t-45 46.5t-18 79q0 78 44.5 121t120.5 43q38 0 69 -13t53 -36t34.5 -55t12.5 -69h-90z" />
    <glyph glyph-name="yacute" unicode="&#xfd;" horiz-adv-x="444" 
d="M244 764h109l-131 -142h-67zM206 -198h-100l63 213l-163 545h99l117 -399h2l114 399h100z" />
    <glyph glyph-name="zcaron" unicode="&#x17e;" horiz-adv-x="444" 
d="M268 622h-91l-100 142h79l66 -94l66 94h79zM410 0h-376v90l254 378h-235v92h349v-92l-258 -376h266v-92z" />
    <glyph glyph-name="Euro" horiz-adv-x="556" 
d="M87 484q4 43 19.5 86t41.5 77q22 28 47 45.5t50 27.5t49.5 13t45.5 3q15 0 38 -2t49.5 -10.5t54.5 -26t54 -47.5l-43 -86q-26 37 -66.5 58.5t-91.5 21.5q-35 0 -59.5 -13t-44.5 -39q-17 -23 -27 -52.5t-14 -55.5h273l-32 -80h-248q-1 -11 -1 -21v-21v-19t1 -19h216
l-32 -80h-178q2 -29 12.5 -60.5t27.5 -53.5q19 -24 44.5 -37t50.5 -13q38 0 68.5 26.5t38.5 70.5h105q-8 -44 -27.5 -79t-47.5 -59.5t-62 -37.5t-72 -13q-49 0 -94 20t-80 62q-29 35 -46 80.5t-20 93.5h-77l32 80h39q-1 10 -1 19v19v21t1 21h-71l32 80h45z" />
    <glyph glyph-name="Euro" unicode="&#x20ac;" horiz-adv-x="556" 
d="M87 484q4 43 19.5 86t41.5 77q22 28 47 45.5t50 27.5t49.5 13t45.5 3q15 0 38 -2t49.5 -10.5t54.5 -26t54 -47.5l-43 -86q-26 37 -66.5 58.5t-91.5 21.5q-35 0 -59.5 -13t-44.5 -39q-17 -23 -27 -52.5t-14 -55.5h273l-32 -80h-248q-1 -11 -1 -21v-21v-19t1 -19h216
l-32 -80h-178q2 -29 12.5 -60.5t27.5 -53.5q19 -24 44.5 -37t50.5 -13q38 0 68.5 26.5t38.5 70.5h105q-8 -44 -27.5 -79t-47.5 -59.5t-62 -37.5t-72 -13q-49 0 -94 20t-80 62q-29 35 -46 80.5t-20 93.5h-77l32 80h39q-1 10 -1 19v19v21t1 21h-71l32 80h45z" />
    <glyph glyph-name="nonbreakingspace" horiz-adv-x="278" 
 />
    <glyph glyph-name="hyphenminus" horiz-adv-x="333" 
d="M47 322h239v-84h-239v84z" />
    </font>
</defs>
</svg>
