<?xml version="1.0" standalone="no"?>
<!DOCTYPE svg PUBLIC "-//W3C//DTD SVG 1.1//EN" "http://www.w3.org/Graphics/SVG/1.1/DTD/svg11.dtd" >
<svg>
<metadata>
Created by FontForge 20120731 at Tue Jan 26 16:52:46 2016
 By ,,,
Copyright (c) 1985, 1987, 1989, 1990, 1991, 1992, 1997, 1998, 1999 Adobe Systems Incorporated. All Rights Reserved.ITC Avant Garde Gothic is a registered trademark of International Typeface Corporation.
</metadata>
<defs>
<font id="AvantGardeLT-BookOblique" horiz-adv-x="554" >
  <font-face 
    font-family="AvantGarde LT Book"
    font-weight="500"
    font-style="oblique"
    font-stretch="normal"
    units-per-em="1000"
    panose-1="2 0 6 3 4 0 0 9 0 4"
    ascent="800"
    descent="-200"
    x-height="547"
    cap-height="740"
    bbox="-113 -222 1276 955"
    underline-thickness="50"
    underline-position="-75"
    slope="-12"
    unicode-range="U+0020-FB02"
  />
<missing-glyph horiz-adv-x="277" 
 />
    <glyph glyph-name=".notdef" horiz-adv-x="277" 
 />
    <glyph glyph-name=".null" horiz-adv-x="0" 
 />
    <glyph glyph-name="nonmarkingreturn" horiz-adv-x="277" 
 />
    <glyph glyph-name="space" unicode=" " horiz-adv-x="277" 
 />
    <glyph glyph-name="space" unicode="&#xa0;" horiz-adv-x="277" 
 />
    <glyph glyph-name="dollar" unicode="$" 
d="M246 29q-37 4 -65.5 21.5t-46.5 43t-25 57t-1 63.5l3 14h74q-8 -42 1 -69t27 -42.5t41 -21t43 -5.5q61 0 102 36t52 97q7 39 -3.5 64.5t-29.5 40.5t-42 22.5t-39 12.5q-19 5 -47.5 14.5t-53 29.5t-39.5 53.5t-7 85.5q13 70 62.5 119.5t120.5 61.5l15 84h74l-14 -81
q49 -7 76.5 -29.5t40 -50.5t14 -57t-1.5 -49h-74v4q4 23 0 44t-16.5 37.5t-34 26t-52.5 9.5q-23 0 -45 -7.5t-40.5 -22t-31.5 -36.5t-19 -53q-4 -31 4 -51t24 -33t37 -20.5t43 -13.5q18 -5 48 -16t57 -33.5t42.5 -60t5.5 -95.5q-6 -32 -22.5 -64.5t-43 -60t-61.5 -46.5
t-78 -23l-18 -99h-74z" />
    <glyph glyph-name="percent" unicode="%" horiz-adv-x="775" 
d="M206 0h-68l558 740h68zM185 572q-5 -26 0 -48t18.5 -39t33.5 -26.5t46 -9.5q25 0 49 9.5t43.5 26.5t33 39t18.5 48q4 25 -1 47.5t-18.5 39.5t-34 26.5t-45.5 9.5q-26 0 -49.5 -9.5t-43 -26.5t-33 -39.5t-17.5 -47.5zM125 572q7 37 27 69.5t49 57t64.5 38.5t72.5 14
t67.5 -14t51 -38.5t29 -57t1.5 -69.5t-27 -69.5t-49.5 -57t-65 -38.5t-72.5 -14t-67.5 14t-50.5 38.5t-28.5 57t-1.5 69.5zM421 166q7 37 27 69.5t49 57t64.5 38.5t72.5 14t67.5 -14t51 -38.5t29 -57t1.5 -69.5t-27 -69.5t-49.5 -57t-65 -38.5t-72.5 -14t-67.5 14
t-50.5 38.5t-28.5 57t-1.5 69.5zM481 166q-5 -26 0 -48t18.5 -39t33.5 -26.5t46 -9.5q25 0 49 9.5t43.5 26.5t33 39t18.5 48q4 25 -1 47.5t-18.5 39.5t-34 26.5t-45.5 9.5q-26 0 -49.5 -9.5t-43 -26.5t-33 -39.5t-17.5 -47.5z" />
    <glyph glyph-name="ampersand" unicode="&#x26;" horiz-adv-x="757" 
d="M532 590q3 18 -1.5 34.5t-16 29.5t-29 21t-40.5 8q-23 -1 -43.5 -9t-36.5 -21t-26.5 -29.5t-13.5 -33.5q-3 -19 1.5 -36t13.5 -32.5t21 -30t25 -27.5q15 5 37.5 13.5t44.5 22.5t40 34.5t23 49.5v3zM349 381q-7 -2 -17.5 -6.5t-22 -10t-22.5 -11t-18 -10.5
q-53 -35 -74.5 -68.5t-26.5 -64.5q-6 -34 2 -62t26 -48t43.5 -31t53.5 -11q37 0 68 15.5t56 38t44.5 48t33.5 46.5zM773 482l-184 -261l154 -182l-63 -51l-139 165q-13 -18 -35 -46.5t-53.5 -54.5t-73 -45t-93.5 -19q-53 0 -92.5 19.5t-64 51.5t-34 72.5t-1.5 82.5
q8 43 29 77.5t50 61.5t63.5 46.5t69.5 34.5q-12 14 -23.5 30t-20.5 34.5t-12.5 41t1.5 49.5q6 35 26.5 65t49 52t63 34.5t69.5 12.5q34 0 63.5 -13t50 -36.5t29.5 -55t2 -68.5q-7 -39 -29.5 -68.5t-49.5 -50t-53.5 -32.5t-41.5 -17l114 -138l146 208h83z" />
    <glyph glyph-name="quoteright" unicode="&#x2019;" horiz-adv-x="351" 
d="M193 546l123 194h74l-123 -194h-74z" />
    <glyph glyph-name="parenleft" unicode="(" horiz-adv-x="369" 
d="M479 682q-72 -39 -126 -91t-92 -107.5t-60 -110t-30 -97.5q-7 -37 -6.5 -89.5t16.5 -109.5t51 -112t98 -98l-13 -72q-49 17 -95.5 59.5t-80 105.5t-47.5 143t3 173t60 173t99.5 143t118.5 105.5t117 59.5z" />
    <glyph glyph-name="parenright" unicode=")" horiz-adv-x="369" 
d="M151 757q49 -17 96 -59.5t80.5 -105.5t47.5 -143t-3 -173t-60.5 -173t-99.5 -143t-118.5 -105.5t-116.5 -59.5l13 72q78 43 133.5 98t92 112t56 109.5t26.5 89.5q8 43 5.5 97.5t-20 110t-52.5 107.5t-93 91z" />
    <glyph glyph-name="asterisk" unicode="*" horiz-adv-x="425" 
d="M318 740h58l-23 -116l116 37l8 -55l-116 -34l51 -92l-53 -34l-50 94l-83 -93l-41 34l86 92l-103 34l28 56l102 -38z" />
    <glyph glyph-name="plus" unicode="+" horiz-adv-x="606" 
d="M389 287h218l-13 -68h-218l-39 -219h-68l39 219h-218l13 68h218l40 219h68z" />
    <glyph glyph-name="comma" unicode="," horiz-adv-x="277" 
d="M124 126h74l-123 -193h-74z" />
    <glyph glyph-name="hyphen" unicode="-" horiz-adv-x="332" 
d="M359 315l-12 -67h-272l12 67h272z" />
    <glyph glyph-name="hyphen" unicode="&#xad;" horiz-adv-x="332" 
d="M359 315l-12 -67h-272l12 67h272z" />
    <glyph glyph-name="period" unicode="." horiz-adv-x="277" 
d="M124 126h74l-22 -126h-74z" />
    <glyph glyph-name="slash" unicode="/" horiz-adv-x="437" 
d="M458 740h79l-436 -840h-76z" />
    <glyph glyph-name="zero" unicode="0" 
d="M536 469q0 2 2.5 18t3.5 37.5t-1 44.5t-11 41q-9 19 -23.5 33.5t-32 24t-36 14t-36.5 4.5t-38.5 -4.5t-41.5 -14t-40.5 -24t-35.5 -33.5q-15 -18 -26 -41t-18 -44.5t-10.5 -37.5t-3.5 -18l-34 -188q-2 -9 -4.5 -27t-4 -40t0 -43.5t9.5 -37.5q18 -41 51.5 -60t79.5 -19
t87 19t74 60q13 16 22.5 37.5t16 43.5t10.5 40l6 27zM574 270q-11 -56 -28 -97.5t-40 -70.5q-26 -36 -57.5 -58t-63 -35t-60.5 -17.5t-51 -4.5t-49 4.5t-54 17.5t-50.5 35t-36.5 58q-12 29 -14.5 70.5t8.5 97.5l39 216q8 42 21.5 76t31.5 60q23 34 53 59t62.5 41t65.5 23.5
t63 7.5t60 -7.5t56.5 -23.5t47.5 -41t32 -59q8 -26 9.5 -60t-6.5 -76z" />
    <glyph glyph-name="one" unicode="1" 
d="M384 673h-127l12 67h201l-134 -740h-74z" />
    <glyph glyph-name="two" unicode="2" 
d="M52 67l305 250q38 31 68.5 57t53.5 51t37.5 50t19.5 54q5 28 -1 56.5t-23 50.5t-44 36t-63 14q-4 0 -17 -1t-32 -6.5t-40.5 -16.5t-42 -31.5t-37.5 -52t-25 -77.5h-74v2q13 72 45.5 120.5t73.5 77t85 40.5t80 12q57 0 96 -21.5t62 -55t30 -73t1 -75.5q-6 -33 -19.5 -61
t-35.5 -56t-53 -56t-71 -61l-279 -227h370l-12 -67h-470z" />
    <glyph glyph-name="three" unicode="3" 
d="M184 555q9 47 31.5 83.5t52.5 62t66 39t73 13.5q42 0 73.5 -15.5t51.5 -41.5t27 -60.5t0 -72.5q-10 -53 -39.5 -85t-61.5 -54q37 -21 56.5 -48.5t27.5 -55t8 -52.5q0 -24 -3 -40q-10 -55 -37.5 -99.5t-65.5 -76t-83 -48.5t-91 -17q-18 0 -41.5 4t-47.5 14t-46 28
t-37.5 45t-22 65t0.5 89h74q-3 -28 -3 -52q0 -23 11 -47q14 -34 45 -56.5t79 -22.5q32 0 63 11.5t57 33t44.5 53t25.5 72.5q5 27 0.5 52.5t-17 46.5t-33 36.5t-47.5 22.5q-16 4 -34 5t-51 2l12 65q3 0 11 -0.5t14 -0.5q44 0 73.5 13t48 31.5t27 38t10.5 33.5q3 16 1 36.5
t-11.5 38.5t-29.5 30t-53 12q-22 0 -44 -9t-40 -25.5t-31.5 -41t-19.5 -55.5h-74z" />
    <glyph glyph-name="four" unicode="4" 
d="M423 202l80 436h-2l-366 -436h288zM411 135h-373l12 67l457 538h88l-98 -538h67l-12 -67h-67l-24 -135h-74z" />
    <glyph glyph-name="five" unicode="5" 
d="M269 740h333l-12 -67h-274l-74 -204q20 10 53.5 22.5t78.5 12.5q52 0 93.5 -20t68.5 -55.5t37.5 -82.5t0.5 -101q-9 -50 -36 -96.5t-66.5 -82.5t-90 -57.5t-105.5 -21.5q-15 0 -37 3t-46 12.5t-48 26t-42 44t-28 67t-7 93.5h74q-3 -42 7 -75.5t30 -56.5t48 -35t61 -12
q39 0 74.5 16t64 43t47.5 61.5t26 70.5q7 41 0 76.5t-26.5 61.5t-49 40.5t-65.5 14.5q-46 0 -89.5 -23t-79.5 -61l-54 21z" />
    <glyph glyph-name="six" unicode="6" 
d="M142 243q-6 -31 -1 -64.5t22 -61t47.5 -45.5t75.5 -18q39 0 75 15t64.5 41t48 60.5t26.5 74.5q7 39 0 73.5t-25.5 60.5t-49 41.5t-69.5 15.5q-35 0 -70 -14t-64.5 -39t-50.5 -61t-29 -79zM515 739l-217 -251l2 -1q37 16 72 16q54 0 96 -20.5t69 -55.5t37 -81.5t0 -99.5
q-9 -48 -34 -94.5t-64 -83t-90.5 -59t-111.5 -22.5q-59 0 -102 21t-69 57t-35 83.5t1 101.5q6 32 18.5 60t30 54.5t38 51.5t42.5 51l233 272h84z" />
    <glyph glyph-name="seven" unicode="7" 
d="M537 673h-352l12 67h428l-12 -67l-425 -673h-78z" />
    <glyph glyph-name="eight" unicode="8" 
d="M257 564q-3 -19 1 -40t16.5 -39t33 -29.5t50.5 -11.5q26 0 50 10t43.5 26.5t32.5 38t17 45.5q4 22 0 43.5t-16 39t-32.5 28.5t-48.5 11q-27 0 -52 -10t-44.5 -26.5t-33 -39t-17.5 -46.5zM154 218q-8 -45 2.5 -76t31.5 -50.5t48 -28.5t52 -9q27 0 57 10.5t57.5 30.5
t48 50.5t27.5 69.5q7 40 -3 70t-30.5 50t-47 30t-53.5 10q-33 0 -65 -13t-58 -35t-43.5 -50t-23.5 -59zM243 413q-41 30 -54.5 69.5t-5.5 78.5q8 44 31 79.5t55 60.5t69.5 38.5t75.5 13.5q41 0 74 -15t54.5 -41t30 -61.5t1.5 -77.5q-1 -6 -6.5 -23.5t-18.5 -39t-34.5 -44
t-54.5 -38.5q34 -18 54 -42.5t30 -51.5t11 -54.5t-3 -49.5q-8 -44 -33.5 -85.5t-62.5 -73t-83.5 -50.5t-97.5 -19q-52 0 -92 19t-65.5 50.5t-35.5 73t-2 85.5q5 27 18 56t33.5 56.5t48.5 50t63 35.5z" />
    <glyph glyph-name="nine" unicode="9" 
d="M546 496q6 31 1 64t-22.5 61t-48 46t-75.5 18q-39 0 -74.5 -15t-64 -41t-48 -60.5t-26.5 -74.5q-7 -39 0 -73.5t25.5 -60.5t49 -41.5t69.5 -15.5q35 0 70 14t64.5 39t50.5 60.5t29 79.5zM173 0l216 251l-2 1q-17 -8 -35.5 -12t-35.5 -4q-54 0 -96 20.5t-69 55.5t-37 81.5
t-1 99.5q9 48 34.5 94.5t64.5 83t90.5 59t111.5 22.5q58 0 101 -21t69.5 -57t35.5 -83.5t-1 -101.5q-6 -32 -18.5 -60t-30 -54.5t-38 -51.5t-42.5 -51l-233 -272h-84z" />
    <glyph glyph-name="colon" unicode=":" horiz-adv-x="277" 
d="M201 548h74l-23 -126h-74zM124 126h74l-22 -126h-74z" />
    <glyph glyph-name="semicolon" unicode=";" horiz-adv-x="277" 
d="M201 548h74l-23 -126h-74zM124 126h74l-123 -193h-74z" />
    <glyph glyph-name="less" unicode="&#x3c;" horiz-adv-x="606" 
d="M635 446l-460 -193l389 -193l-12 -68l-466 230l11 62l550 230z" />
    <glyph glyph-name="equal" unicode="=" horiz-adv-x="606" 
d="M84 186h504l-12 -68h-504zM613 320h-504l12 68h504z" />
    <glyph glyph-name="greater" unicode="&#x3e;" horiz-adv-x="606" 
d="M62 60l461 193l-390 193l12 68l466 -230l-11 -62l-550 -230z" />
    <glyph glyph-name="question" unicode="?" horiz-adv-x="591" 
d="M285 126h74l-22 -126h-74zM156 508l4 19q8 44 33 84.5t62.5 72t84 50t96.5 18.5t88.5 -17.5t63 -48t33.5 -71t1 -85.5q-5 -30 -16.5 -53t-28.5 -44t-40.5 -41.5t-53.5 -44.5q-14 -11 -30.5 -25.5t-32 -33t-28.5 -42.5t-20 -53h-74v4q7 37 24 68.5t38 56t42.5 43.5
t37.5 31q41 32 71 62t38 75q5 27 -1.5 53.5t-23 48t-43 34.5t-61.5 13q-48 0 -84.5 -21.5t-64.5 -51.5q-22 -26 -29 -52t-12 -49h-74z" />
    <glyph glyph-name="at" unicode="@" horiz-adv-x="867" 
d="M616 394q10 52 -13 82t-65 30q-31 0 -59 -13.5t-51 -36.5t-39 -53.5t-22 -64.5q-11 -63 14 -94.5t70 -31.5h1q32 0 59.5 16t48.5 41.5t35.5 58t20.5 66.5zM740 548l-85 -237q-7 -19 -12 -32.5t-6 -20.5l-1 -5q-3 -17 3 -29t23 -12q24 0 48.5 16.5t46 45t38.5 67t25 82.5
q12 68 -2 119.5t-47.5 86t-83.5 51.5t-108 17q-71 0 -135.5 -24.5t-116 -68.5t-87 -104t-48.5 -131q-10 -54 -3.5 -111.5t37 -105.5t89.5 -78.5t155 -30.5q45 0 84 5.5t70.5 13.5t55 16.5t37.5 14.5l6 -51q-65 -28 -131 -41.5t-132 -13.5q-108 0 -177.5 34.5t-107 89.5
t-46.5 123t3 136q18 85 61 154.5t103 119.5t134.5 78t157.5 31q75 0 135 -22.5t99.5 -65t55.5 -103.5t2 -138q-10 -54 -33.5 -103t-55 -85.5t-68 -58t-73.5 -21.5q-10 0 -22.5 3t-23 12t-16.5 24.5t-3 40.5h-2q-23 -29 -45.5 -45t-43 -23.5t-37.5 -9.5t-27 -2
q-33 0 -59 12.5t-42.5 36t-23 57t1.5 74.5q8 43 29 83.5t52.5 72t71 51t83.5 19.5q35 0 55.5 -10.5t32 -24.5t15 -29.5t5.5 -24.5h2l27 75h60z" />
    <glyph glyph-name="A" unicode="A" horiz-adv-x="740" 
d="M282 316h287l-80 340zM462 740h83l184 -740h-81l-62 249h-344l-153 -249h-77z" />
    <glyph glyph-name="B" unicode="B" horiz-adv-x="574" 
d="M224 421h93q44 0 73 3.5t58 17.5t51 42.5t28 61.5q5 26 0 45t-16 36q-17 25 -51 35.5t-91 10.5h-99zM160 67h104q47 0 79 3.5t64 15.5q38 14 65.5 49t35.5 77q8 43 -11 77t-53 48q-12 5 -24.5 8.5t-28.5 5.5t-37 2.5t-51 0.5h-91zM208 740h186q58 0 96.5 -12.5t62 -32
t34.5 -43t14.5 -45t1.5 -39.5t-3 -25q-6 -33 -19 -57t-29 -42t-32.5 -30l-27.5 -20q52 -23 77 -70.5t13 -111.5q-10 -54 -41 -99.5t-75 -71.5q-24 -13 -45.5 -21t-44 -12.5t-46.5 -6t-52 -1.5h-204z" />
    <glyph glyph-name="C" unicode="C" horiz-adv-x="813" 
d="M806 194q-40 -54 -87.5 -93.5t-97.5 -64.5t-99.5 -37t-94.5 -12q-78 0 -142.5 29t-108.5 80t-62.5 121t-3.5 152t58.5 152t105.5 121.5t137.5 80.5t154.5 29q71 0 125 -22t91 -53.5t58.5 -66t27.5 -60.5h-83q-22 45 -55 72t-67 41t-64 18t-47 4q-65 0 -126.5 -26.5
t-111.5 -70.5t-84.5 -101t-45.5 -119q-12 -65 3.5 -122t51.5 -100t87.5 -67.5t111.5 -24.5q14 0 42.5 3t66.5 16.5t83.5 41.5t92.5 79h83z" />
    <glyph glyph-name="D" unicode="D" horiz-adv-x="744" 
d="M160 67h107q25 0 56 1t65.5 6.5t71 17.5t72.5 35q19 14 43.5 36t47.5 52t41.5 69t27.5 87q14 74 -8 138.5t-73 106.5q-44 32 -98 44.5t-136 12.5h-107zM208 740h216q69 0 129.5 -16t100.5 -45q43 -30 68 -70t37 -82.5t12.5 -84t-5.5 -74.5q-5 -26 -18.5 -64.5t-39.5 -81
t-66.5 -85t-99.5 -76.5q-51 -29 -117 -45t-135 -16h-216z" />
    <glyph glyph-name="E" unicode="E" horiz-adv-x="536" 
d="M204 740h405l-12 -67h-331l-48 -266h320l-13 -67h-320l-49 -273h331l-12 -67h-405z" />
    <glyph glyph-name="F" unicode="F" horiz-adv-x="485" 
d="M204 740h374l-12 -67h-300l-49 -268h289l-12 -67h-289l-61 -338h-74z" />
    <glyph glyph-name="G" unicode="G" horiz-adv-x="872" 
d="M889 340q-21 -83 -69.5 -148t-111.5 -111t-134.5 -70t-139.5 -24q-83 0 -149.5 31t-110.5 84t-62.5 122t-4.5 146q13 72 54 141t103 122.5t141 86.5t168 33q73 0 129 -22.5t94.5 -54.5t60 -68.5t27.5 -64.5h-86q-11 27 -31.5 53t-50.5 46t-69 32t-85 12q-70 0 -134 -26.5
t-115 -70.5t-86 -101t-46 -119t2.5 -119t49 -100.5t90.5 -69.5t126 -26q59 0 113 19.5t98.5 51t77.5 70.5t50 78h-413l12 67h502z" />
    <glyph glyph-name="H" unicode="H" horiz-adv-x="683" 
d="M210 740h74l-59 -326h383l59 326h74l-134 -740h-74l63 347h-383l-63 -347h-74z" />
    <glyph glyph-name="I" unicode="I" horiz-adv-x="226" 
d="M210 740h74l-134 -740h-74z" />
    <glyph glyph-name="J" unicode="J" horiz-adv-x="482" 
d="M444 235q-9 -45 -17 -76t-27 -65q-34 -51 -85 -79t-111 -28q-34 0 -66.5 11t-56.5 34t-36.5 58.5t-6.5 85.5h73q-3 -30 4 -53t22 -38t35.5 -23t44.5 -8q45 0 72.5 18.5t44 45.5t24 57.5t12.5 56.5l92 508h74z" />
    <glyph glyph-name="K" unicode="K" horiz-adv-x="591" 
d="M215 740h74l-77 -425h2l416 425h95l-358 -361l224 -379h-93l-189 321l-118 -118l-36 -203h-74z" />
    <glyph glyph-name="L" unicode="L" horiz-adv-x="462" 
d="M216 740h74l-122 -673h306l-12 -67h-380z" />
    <glyph glyph-name="M" unicode="M" horiz-adv-x="919" 
d="M210 740h114l155 -630l384 630h114l-134 -740h-74l120 659h-2l-397 -659h-63l-155 659h-2l-120 -659h-74z" />
    <glyph glyph-name="N" unicode="N" horiz-adv-x="740" 
d="M209 740h100l301 -614h2l112 614h74l-134 -740h-74l-321 651h-2l-118 -651h-74z" />
    <glyph glyph-name="O" unicode="O" horiz-adv-x="869" 
d="M183 366q-12 -63 3 -120t50.5 -99.5t88.5 -67.5t118 -25q64 0 126.5 24.5t114 67t87.5 100t48 123.5q12 65 -3 122.5t-50 101t-88 68.5t-119 25q-63 0 -124.5 -24t-113.5 -67t-88.5 -101.5t-49.5 -127.5zM109 366q16 87 62.5 158.5t110.5 122.5t139.5 78.5t149.5 27.5
q78 0 143.5 -29t110.5 -80.5t64 -121.5t4 -152t-60 -152t-108.5 -121.5t-139.5 -80.5t-154 -29q-79 0 -144.5 30t-109.5 81.5t-63 120.5t-5 147z" />
    <glyph glyph-name="P" unicode="P" horiz-adv-x="592" 
d="M215 365h107q30 0 51 0.5t37.5 2t31 5.5t31.5 11q48 20 75.5 56.5t35.5 78.5t-6.5 78.5t-54.5 56.5q-15 7 -28 11t-29.5 5.5t-37 2t-50.5 0.5h-107zM209 740h206q38 0 66.5 -3t50 -8.5t37.5 -13.5t30 -18q36 -28 53 -73.5t6 -104.5t-44.5 -104.5t-79.5 -73.5
q-17 -10 -36 -18t-42.5 -13.5t-53 -8.5t-67.5 -3h-132l-54 -298h-74z" />
    <glyph glyph-name="Q" unicode="Q" horiz-adv-x="871" 
d="M177 279q23 7 62.5 16t98.5 9q69 0 121.5 -14.5t93 -37.5t72.5 -52t61 -58q65 54 99 111.5t44 112.5q13 69 -2.5 128t-52 101.5t-91 66.5t-118.5 24q-62 0 -124.5 -22.5t-116 -64.5t-92.5 -102t-52 -134q-5 -28 -5 -48q0 -19 2 -36zM196 216q5 -15 20.5 -42t45 -53.5
t75.5 -46.5t112 -20q7 0 24.5 0.5t40.5 5t50.5 14.5t56.5 28q-5 4 -17 15t-25.5 23t-26 22.5t-18.5 14.5q-32 22 -68 34.5t-67.5 18t-54.5 6.5t-29 1q-46 0 -71.5 -6.5t-47.5 -14.5zM822 -13q-35 0 -58.5 5t-40.5 14t-29.5 20.5t-24.5 24.5q-40 -24 -78.5 -37t-70.5 -19
t-54.5 -7t-30.5 -1q-83 0 -150.5 30t-111.5 82t-62.5 121t-4.5 147q13 73 53.5 142.5t102 123.5t141.5 87t173 33q85 0 152.5 -30t111.5 -82t61 -123.5t2 -153.5q-14 -74 -56.5 -143t-114.5 -127q14 -14 27 -22t25.5 -12t24.5 -5t25 -1z" />
    <glyph glyph-name="R" unicode="R" horiz-adv-x="607" 
d="M204 740h188q74 0 114 -8t63 -20q57 -29 81.5 -85.5t12.5 -125.5q-8 -40 -29 -79t-55 -70.5t-78.5 -52t-98.5 -23.5l159 -276h-93l-190 335q35 0 60 0.5t43 1.5t31.5 3t26.5 6q32 9 57.5 25t44.5 37t31 45.5t17 49.5q8 44 -7 84t-48 58q-30 17 -61 22.5t-78 5.5h-129
l-122 -673h-74z" />
    <glyph glyph-name="S" unicode="S" horiz-adv-x="498" 
d="M133 207q-10 -70 23.5 -111.5t102.5 -41.5q29 0 58 10.5t53 30t41.5 46.5t23.5 60q8 43 -5.5 71t-37 45.5t-49.5 26.5t-44 15q-24 7 -55 18t-57 32t-40.5 55.5t-4.5 89.5q8 43 30.5 79.5t55.5 63t74 41.5t85 15q45 0 80 -16t57 -44t30 -64.5t1 -76.5h-74q5 28 -1 52.5
t-20.5 42.5t-36.5 28.5t-48 10.5q-32 0 -59 -11t-47.5 -29.5t-34 -41.5t-17.5 -47q-6 -34 4 -56t31 -37t51 -25.5t65 -20.5q43 -12 70.5 -31t43.5 -40.5t22.5 -44t8 -42t0 -34.5t-2.5 -21v-1q-8 -43 -31.5 -82t-58.5 -69t-79.5 -48t-93.5 -18q-36 0 -73.5 11.5t-66 37.5
t-43.5 68t-5 103h74z" />
    <glyph glyph-name="T" unicode="T" horiz-adv-x="426" 
d="M298 673h-170l12 67h413l-12 -67h-169l-122 -673h-74z" />
    <glyph glyph-name="U" unicode="U" horiz-adv-x="655" 
d="M283 740l-84 -461q-7 -41 -7 -76t8 -58q11 -31 29 -49t37.5 -27.5t38 -12t31.5 -2.5t33 2.5t43 12t47 27.5t47 49q17 23 29.5 58t19.5 76l84 461h74l-84 -461q-8 -47 -22.5 -86t-33.5 -68q-27 -42 -59.5 -68.5t-66 -42t-65.5 -21.5t-58 -6t-56 6t-58 21.5t-50.5 42
t-34.5 68.5q-17 59 0 154l84 461h74z" />
    <glyph glyph-name="V" unicode="V" horiz-adv-x="702" 
d="M142 740h82l143 -648l380 648h80l-441 -740h-73z" />
    <glyph glyph-name="W" unicode="W" horiz-adv-x="960" 
d="M145 740h76l64 -645h2l293 645h69l60 -644h2l298 644h75l-346 -740h-94l-53 607h-2l-272 -607h-95z" />
    <glyph glyph-name="X" unicode="X" horiz-adv-x="609" 
d="M327 378l-171 362h87l143 -296l249 296h86l-304 -362l185 -378h-88l-151 316l-268 -316h-87z" />
    <glyph glyph-name="Y" unicode="Y" horiz-adv-x="592" 
d="M303 247l-168 493h82l136 -415l292 415h81l-349 -493l-45 -247h-74z" />
    <glyph glyph-name="Z" unicode="Z" horiz-adv-x="480" 
d="M24 67l474 606h-353l12 67h436l-12 -67l-473 -606h374l-12 -67h-458z" />
    <glyph glyph-name="bracketleft" unicode="[" horiz-adv-x="351" 
d="M304 -179q-28 8 -60.5 26.5t-57 51t-36.5 81t0 117.5l69 378q9 51 28.5 90.5t43.5 69.5t51.5 51t52.5 35t46 21.5t33 10.5l-14 -75q-30 -12 -57 -29t-48.5 -41.5t-37.5 -57t-24 -75.5l-66 -365q-5 -27 -7.5 -56t5.5 -57.5t29.5 -54t63.5 -46.5z" />
    <glyph glyph-name="backslash" unicode="\" horiz-adv-x="605" 
d="M458 -100h-76l-130 840h79z" />
    <glyph glyph-name="bracketright" unicode="]" horiz-adv-x="351" 
d="M-4 -104q49 21 79.5 46.5t48.5 54t26.5 57.5t13.5 56l66 365q8 43 4 75.5t-17 57t-34 41.5t-46 29l14 75q11 -3 29 -10.5t38.5 -21.5t39.5 -35t32.5 -51t18 -69.5t-4.5 -90.5l-69 -378q-12 -69 -41.5 -117.5t-66.5 -81t-75.5 -51t-69.5 -26.5z" />
    <glyph glyph-name="asciicircum" unicode="^" horiz-adv-x="606" 
d="M405 740h64l139 -433h-70l-115 360l-244 -360h-71z" />
    <glyph glyph-name="underscore" unicode="_" horiz-adv-x="500" 
d="M486 -75l-9 -50h-499l9 50h499z" />
    <glyph glyph-name="quoteleft" unicode="&#x2018;" horiz-adv-x="351" 
d="M282 546l-53 194h74l53 -194h-74z" />
    <glyph glyph-name="a" unicode="a" horiz-adv-x="683" 
d="M161 272q-8 -46 0.5 -86.5t32.5 -70.5t62.5 -47.5t88.5 -17.5q44 0 87 17t78 46.5t60 70.5t34 89q8 45 -1 86t-32.5 71.5t-60.5 49t-84 18.5q-45 0 -88.5 -16t-79.5 -45t-62 -71t-35 -94zM621 0h-70l17 96h-2q-29 -34 -60.5 -55t-63 -33t-60 -16.5t-49.5 -4.5
q-65 0 -114.5 23t-81.5 62t-44 91.5t-1 111.5q10 55 40 106.5t75.5 91.5t104.5 64t126 24q22 0 49 -4.5t54 -16.5t50.5 -33.5t39.5 -55.5h2l17 96h70z" />
    <glyph glyph-name="b" unicode="b" horiz-adv-x="682" 
d="M626 272q9 52 -1.5 94t-36 71t-63 45t-82.5 16q-47 0 -90.5 -18.5t-78.5 -49t-59 -71.5t-32 -86q-9 -48 1.5 -89t35 -70.5t61.5 -46.5t81 -17q50 0 94.5 17.5t79.5 47.5t58.5 70.5t31.5 86.5zM202 740h70l-52 -289h2q29 33 61 54.5t62.5 34t59 17t50.5 4.5q67 0 117 -24
t81 -64t42.5 -91.5t1.5 -106.5q-11 -59 -42.5 -111.5t-77.5 -91.5t-104.5 -62t-122.5 -23q-21 0 -47.5 4.5t-53.5 16.5t-51 33.5t-41 54.5h-2l-17 -96h-70z" />
    <glyph glyph-name="c" unicode="c" horiz-adv-x="647" 
d="M636 161q-18 -26 -44.5 -56t-64 -56.5t-86 -44t-109.5 -17.5q-64 0 -114 23t-82 62.5t-44.5 91.5t-1.5 109q11 59 43.5 111.5t79.5 91.5t105 62t119 23q36 0 74 -9.5t71 -31t58 -55.5t36 -83h-77q-11 31 -29.5 53t-41.5 36t-49 20.5t-52 6.5q-40 0 -83 -14.5t-80.5 -43
t-65 -70t-37.5 -95.5q-9 -46 0.5 -87t34 -71.5t63 -48.5t87.5 -18q43 0 77.5 11.5t60.5 28.5t45 36t30 35h77z" />
    <glyph glyph-name="d" unicode="d" horiz-adv-x="685" 
d="M158 272q-8 -46 0.5 -86.5t32.5 -70.5t62.5 -47.5t88.5 -17.5q44 0 87 17t78 46.5t60 70.5t34 89q8 45 -1 86t-32.5 71.5t-60.5 49t-84 18.5q-45 0 -88.5 -16t-79.5 -45t-62 -71t-35 -94zM618 0h-70l17 96h-2q-28 -33 -59.5 -54t-63 -33t-60 -17t-50.5 -5
q-65 0 -114.5 23t-81.5 62t-44 91.5t-1 111.5q10 55 40 106.5t75.5 91.5t104.5 64t126 24q22 0 49 -5t53.5 -17t50.5 -33t40 -53h2l52 287h70z" />
    <glyph glyph-name="e" unicode="e" horiz-adv-x="650" 
d="M593 311q1 48 -15 83.5t-41.5 58.5t-58 34t-65.5 11q-32 0 -68.5 -11t-70.5 -34t-63 -58.5t-45 -83.5h427zM155 248q-6 -40 6 -76t36.5 -63t59 -43t74.5 -16q37 1 71 11.5t62 28t50 40.5t36 49h74q-22 -41 -54.5 -76t-72 -61t-85 -40.5t-92.5 -14.5q-57 0 -105 22
t-80 60.5t-45.5 90.5t-2.5 113q10 58 41.5 110t77.5 91t102 62.5t116 24.5q45 0 81 -12.5t63 -32.5t45.5 -45t28.5 -50q17 -39 19.5 -78t-4.5 -75l-2 -10l-2 -10h-498z" />
    <glyph glyph-name="f" unicode="f" horiz-adv-x="314" 
d="M192 484h-85l11 63h85q6 28 17 63.5t37 67t72 53t122 22.5l-12 -65q-52 0 -83 -14t-48 -35t-24 -45t-10 -43l-1 -4h140l-11 -63h-140l-88 -484h-70z" />
    <glyph glyph-name="g" unicode="g" horiz-adv-x="673" 
d="M156 273q-8 -45 1 -85t32.5 -71t59.5 -49t83 -18q54 0 98.5 22t77.5 55t54 72t27 74q8 45 -1 86t-32.5 71.5t-60 49t-82.5 18.5q-47 0 -89.5 -18.5t-77 -49t-58.5 -71.5t-32 -86zM621 86q-4 -22 -9.5 -46.5t-14.5 -50.5t-24 -52t-38 -51q-33 -36 -70.5 -56.5t-71.5 -30
t-60 -12t-34 -2.5q-29 0 -68 7.5t-75.5 29t-64.5 61t-35 103.5h74q4 -17 14 -40.5t30 -45.5t53 -37t83 -15q34 0 71.5 10.5t70 34.5t57.5 63t36 96l9 48h-2q-21 -29 -48.5 -50.5t-58 -35.5t-63 -20.5t-62.5 -6.5q-54 0 -101.5 20t-81 57.5t-48.5 89.5t-3 117t46 118.5
t81.5 91.5t102.5 59t109 21q19 0 44.5 -4t52.5 -16t51.5 -34t41.5 -58h2l18 98h70z" />
    <glyph glyph-name="h" unicode="h" horiz-adv-x="610" 
d="M196 740h70l-48 -263h2q10 12 27 27t40 27.5t52.5 21t64.5 8.5q51 0 90.5 -14.5t70.5 -52.5q25 -30 35 -77.5t-3 -115.5l-54 -301h-70l54 301q10 54 2 91t-26 59q-24 28 -56 37.5t-55 9.5t-58.5 -9.5t-68.5 -37.5q-26 -21 -47 -57.5t-31 -87.5l-55 -306h-70z" />
    <glyph glyph-name="i" unicode="i" horiz-adv-x="200" 
d="M199 740h70l-23 -126h-70zM164 547h70l-99 -547h-70z" />
    <glyph glyph-name="j" unicode="j" horiz-adv-x="203" 
d="M201 740h70l-23 -126h-70zM143 38q-5 -25 -10 -49.5t-15 -48.5t-26 -46t-42 -42q-21 -16 -39 -24.5t-34 -13t-29.5 -5.5t-25.5 -1l12 69q34 1 58 13t39.5 33t25.5 50.5t16 64.5l93 509h70z" />
    <glyph glyph-name="k" unicode="k" horiz-adv-x="502" 
d="M204 740h70l-96 -527h2l316 334h90l-266 -276l178 -271h-90l-141 216l-109 -112l-18 -104h-70z" />
    <glyph glyph-name="l" unicode="l" horiz-adv-x="200" 
d="M199 740h70l-134 -740h-70z" />
    <glyph glyph-name="m" unicode="m" horiz-adv-x="938" 
d="M224 484q30 37 72.5 57t90.5 20q60 0 102.5 -27t62.5 -78q84 105 203 105q48 0 85.5 -16.5t60.5 -47t31.5 -74t-1.5 -98.5l-59 -325h-70l57 317q17 88 -14.5 134.5t-101.5 46.5t-117.5 -46.5t-64.5 -134.5l-57 -317h-70l57 317q17 88 -14.5 134.5t-101.5 46.5
t-117.5 -46.5t-64.5 -134.5l-57 -317h-70l99 547h70z" />
    <glyph glyph-name="n" unicode="n" horiz-adv-x="610" 
d="M164 547h70l-13 -70h2q10 12 27 27t40 27.5t52.5 21t64.5 8.5q51 0 90.5 -14.5t70.5 -52.5q25 -30 35 -77.5t-3 -115.5l-54 -301h-70l54 301q10 54 2 91t-26 59q-24 28 -56 37.5t-55 9.5t-58.5 -9.5t-68.5 -37.5q-26 -21 -47 -57.5t-31 -87.5l-55 -306h-70z" />
    <glyph glyph-name="o" unicode="o" horiz-adv-x="655" 
d="M161 271q-9 -48 1.5 -88.5t35.5 -70t61 -46t78 -16.5q40 0 81.5 15.5t77 44.5t62 71t36.5 96t-3 95.5t-40 69t-62.5 42t-70.5 14.5q-38 0 -79 -15t-77.5 -44t-63.5 -71.5t-37 -96.5zM91 270q12 65 46 118.5t81 92t102 59.5t109 21q61 0 109 -24t79.5 -63.5t43.5 -91.5
t2 -108t-41 -108t-77 -91.5t-103 -63.5t-118 -24q-60 0 -107.5 23.5t-79 62.5t-44 90t-2.5 107z" />
    <glyph glyph-name="p" unicode="p" horiz-adv-x="682" 
d="M622 272q9 52 -1.5 94t-36 71t-63 45t-82.5 16q-47 0 -90.5 -18.5t-78.5 -49t-59 -71.5t-32 -86q-9 -48 1.5 -89t35 -70.5t61.5 -46.5t81 -17q50 0 94.5 17.5t79.5 47.5t58.5 70.5t31.5 86.5zM163 547h70l-17 -96h2q30 34 61.5 55.5t62.5 33.5t59 16.5t50 4.5
q67 0 117 -24t81 -64t42.5 -91.5t1.5 -106.5q-11 -59 -42.5 -111.5t-77.5 -91.5t-104.5 -62t-122.5 -23q-21 0 -47.5 4.5t-53.5 16.5t-51 33.5t-41 54.5h-2l-52 -288h-70z" />
    <glyph glyph-name="q" unicode="q" horiz-adv-x="682" 
d="M156 272q-8 -46 0.5 -86.5t32.5 -70.5t62.5 -47.5t88.5 -17.5q44 0 87 17t78 46.5t60 70.5t34 89q8 45 -1 86t-32.5 71.5t-60.5 49t-84 18.5q-45 0 -88.5 -16t-79.5 -45t-62 -71t-35 -94zM581 -192h-70l52 288h-2q-28 -34 -60 -55t-63.5 -33t-60 -16.5t-49.5 -4.5
q-65 0 -114.5 23t-81.5 62t-44 91.5t-1 111.5q10 55 40 106.5t75.5 91.5t104.5 64t126 24q22 0 49 -4.5t54 -16.5t50.5 -33.5t39.5 -55.5h2l17 96h70z" />
    <glyph glyph-name="r" unicode="r" horiz-adv-x="301" 
d="M164 547h70l-14 -79h2q18 29 38.5 46.5t42.5 27.5t44.5 13.5t45.5 5.5l-14 -74q-37 -3 -70 -16.5t-58 -37.5q-22 -23 -37 -51.5t-21 -61.5l-58 -320h-70z" />
    <glyph glyph-name="s" unicode="s" horiz-adv-x="388" 
d="M123 162q-6 -39 1.5 -61.5t21.5 -33.5t30 -14t25 -3q50 0 80.5 26.5t38.5 71.5q5 28 -3 46t-22 30t-32 19.5t-32 13.5q-20 7 -43 17t-42 27.5t-29 43t-3 64.5q5 29 20.5 56.5t39 48.5t55 34t69.5 13q30 0 55 -11t42 -30.5t24 -46.5t1 -59v-2h-70q3 25 -3 41.5t-16.5 26.5
t-23 14t-24.5 4q-21 0 -38 -7.5t-29.5 -19.5t-20 -26.5t-10.5 -28.5q-4 -22 3 -37t20 -25.5t29 -17t30 -11.5q22 -8 47.5 -19.5t45.5 -30.5t30 -48t2 -71v-2q-6 -35 -22.5 -65.5t-42 -53t-60.5 -35.5t-78 -13q-28 0 -56 9.5t-49 30t-30.5 52.5t-1.5 77l1 6h70z" />
    <glyph glyph-name="t" unicode="t" horiz-adv-x="339" 
d="M217 484h-115l11 63h115l35 193h70l-35 -193h131l-11 -63h-131l-88 -484h-70z" />
    <glyph glyph-name="u" unicode="u" horiz-adv-x="608" 
d="M541 0h-66l15 85h-2q-10 -15 -27 -32.5t-41 -32t-55.5 -24t-69.5 -9.5q-41 0 -70 8.5t-49.5 21t-33.5 27t-20 25.5q-11 18 -16.5 39.5t-6.5 44.5t1 46.5t6 45.5l55 302h70l-55 -301q-9 -52 -5 -86.5t18 -57.5q23 -32 56 -42t62 -10t60.5 9t63.5 35q14 12 26.5 25.5
t24 32.5t20.5 44.5t16 61.5l52 289h70z" />
    <glyph glyph-name="v" unicode="v" 
d="M106 547h75l109 -460l280 460h75l-330 -547h-77z" />
    <glyph glyph-name="w" unicode="w" horiz-adv-x="831" 
d="M112 547h73l89 -458h2l196 392h61l55 -392h2l257 458h72l-308 -547h-79l-50 364h-2l-180 -364h-79z" />
    <glyph glyph-name="x" unicode="x" horiz-adv-x="480" 
d="M249 278l-138 269h84l106 -211l181 211h85l-236 -269l137 -278h-83l-106 219l-184 -219h-83z" />
    <glyph glyph-name="y" unicode="y" horiz-adv-x="536" 
d="M231 18l-117 529h74l95 -436l265 436h74l-451 -739h-73z" />
    <glyph glyph-name="z" unicode="z" horiz-adv-x="425" 
d="M21 61l380 423h-293l11 63h377l-11 -63l-377 -421h318l-11 -63h-405z" />
    <glyph glyph-name="braceleft" unicode="{" horiz-adv-x="351" 
d="M454 680h-50q-15 0 -25.5 -7.5t-18 -19.5t-12 -27.5t-7.5 -31.5l-34 -183q-6 -35 -21 -59.5t-32 -40.5t-33 -24t-25 -10l-1 -3q9 -1 22.5 -8t25 -22t17 -40.5t-1.5 -63.5l-33 -183q-3 -15 -4 -30.5t2 -28t11 -20t23 -7.5h50l-11 -60h-66q-44 0 -69 33.5t-13 97.5l33 182
q5 27 1.5 49t-13 37t-24 23.5t-31.5 9.5l11 64q18 1 35.5 10t33 24.5t26.5 37.5t16 48l33 182q12 64 49 97.5t81 33.5h66z" />
    <glyph glyph-name="bar" unicode="|" horiz-adv-x="672" 
d="M514 778l-182 -1000h-74l182 1000h74z" />
    <glyph glyph-name="braceright" unicode="}" horiz-adv-x="351" 
d="M154 740h66q44 0 69 -33.5t13 -97.5l-33 -182q-9 -53 12 -85.5t55 -34.5l-11 -64q-18 -1 -35.5 -9.5t-32.5 -23.5t-26.5 -37t-16.5 -49l-33 -182q-12 -64 -49 -97.5t-81 -33.5h-65l11 60h49q15 0 25.5 7.5t18 20t12.5 28t8 30.5l33 183q7 38 22 63.5t32 40.5t32.5 22
t24.5 8l1 3q-8 2 -21.5 10t-24.5 24t-17 40.5t0 59.5l34 183q3 16 3.5 31.5t-2.5 27.5t-11 19.5t-23 7.5h-50z" />
    <glyph glyph-name="asciitilde" unicode="~" horiz-adv-x="606" 
d="M583 269q-14 -16 -29 -31.5t-32.5 -27.5t-37 -19.5t-42.5 -7.5q-28 0 -50.5 9.5t-45.5 23.5q-22 14 -47.5 26.5t-60.5 12.5q-17 0 -31 -7t-26 -18t-22.5 -24.5t-18.5 -26.5l-27 50q11 16 25 31.5t31.5 27.5t38.5 19.5t46 7.5q26 0 52.5 -9.5t52.5 -22.5q26 -12 50.5 -26
t44.5 -14q15 0 28.5 7t26 18t24.5 24.5t23 26.5z" />
    <glyph glyph-name="exclamdown" unicode="&#xa1;" horiz-adv-x="295" 
d="M209 548h74l-23 -126h-74zM174 355h74l-99 -547h-74z" />
    <glyph glyph-name="cent" unicode="&#xa2;" 
d="M257 62l17 94q-42 6 -74.5 26.5t-53.5 50.5t-29 68.5t0 81.5t30 81.5t54 68.5t72 50.5t84 26.5l17 97h74l-17 -96q66 -8 108.5 -48t54.5 -100h-81q-6 15 -15.5 30t-24.5 27t-37 19.5t-52 7.5q-38 0 -70.5 -15t-58 -38.5t-42.5 -52.5t-22 -58t1 -58t23 -52.5t44 -38.5
t65 -15q29 0 52 6.5t41.5 17t32 23t24.5 25.5h83q-33 -54 -88 -91t-121 -45l-17 -93h-74z" />
    <glyph glyph-name="sterling" unicode="&#xa3;" 
d="M40 63h148q21 26 36 56.5t21 62.5q4 30 -1.5 52.5t-17 41.5t-26 36.5t-27.5 36.5h-106l12 63h59q-5 16 -8 39.5t3 58.5q9 49 34 93t61.5 77.5t83.5 53t101 19.5q43 0 80.5 -14.5t64.5 -41.5t41.5 -66.5t11.5 -89.5h-72q0 31 -9 58.5t-26.5 47.5t-43.5 31.5t-59 11.5
q-34 0 -65.5 -13t-57.5 -36.5t-45 -56.5t-26 -74q-3 -20 -3.5 -34.5t2 -26t6 -20t7.5 -17.5h285l-12 -63h-225v-2q32 -33 46 -75t6 -90q-8 -38 -24 -68t-28 -51h43q19 0 50 4t62.5 20t58 46t36.5 83q3 16 2 27.5t-2 24.5h74q2 -12 2.5 -24t-3.5 -32q-4 -22 -18.5 -58
t-47 -70t-86.5 -59t-136 -25h-273z" />
    <glyph glyph-name="fraction" unicode="&#x2044;" horiz-adv-x="166" 
d="M354 740h60l-467 -740h-60z" />
    <glyph glyph-name="fraction" unicode="&#x2215;" horiz-adv-x="166" 
d="M354 740h60l-467 -740h-60z" />
    <glyph glyph-name="yen" unicode="&#xa5;" 
d="M281 227h-207l11 63h207l11 58l-12 26h-190l11 63h152l-126 303h80l135 -325l251 325h80l-236 -303h152l-11 -63h-190l-22 -26l-11 -58h207l-11 -64h-207l-41 -226h-74z" />
    <glyph glyph-name="florin" unicode="&#x192;" 
d="M582 584l-24 -67h-112l-160 -431q-13 -36 -23 -62.5t-21.5 -47.5t-25.5 -38t-35 -35q-24 -20 -50 -31.5t-49 -17t-41 -6.5t-25 -1q-23 0 -35.5 2.5t-18.5 4.5l25 64q7 -2 18.5 -4t28.5 -2q41 0 69.5 13t49 36.5t35.5 57t30 74.5l159 424h-114l25 67h112l8 22
q15 42 30.5 70.5t29.5 46.5t25.5 28t18.5 16q24 19 46.5 29.5t40.5 15t30.5 5.5t16.5 1h6t14 -2l-23 -67q-5 1 -8 1h-7q-36 0 -61.5 -16t-43 -38.5t-28.5 -47t-17 -42.5l-8 -22h112z" />
    <glyph glyph-name="section" unicode="&#xa7;" horiz-adv-x="615" 
d="M300 453q-35 -18 -54 -47t-24 -55q-5 -31 8.5 -49t30.5 -27l170 -94q31 17 50.5 45t24.5 54q3 18 -0.5 31.5t-11 24t-17 18t-18.5 12.5zM518 606q6 35 -14.5 57.5t-66.5 22.5q-49 0 -81.5 -27t-40.5 -70q-5 -27 4 -48t38 -36l133 -73q18 -10 36.5 -22t32.5 -29
t20.5 -41.5t0.5 -58.5q-2 -13 -10 -30t-21 -36t-32 -37t-43 -32q26 -26 31 -56t-1 -63q-6 -32 -24.5 -62t-47 -53.5t-66 -38t-80.5 -14.5q-45 0 -79 15.5t-55.5 43.5t-29.5 65t-2 81h74q-5 -36 1.5 -62.5t21 -43t35.5 -24.5t46 -8q27 0 50 9t40.5 23.5t28 32.5t13.5 36
q3 15 2.5 28.5t-7.5 26.5t-22.5 26.5t-42.5 28.5l-140 80q-13 7 -27.5 18t-26.5 26.5t-17.5 36.5t-0.5 49q5 29 19 52t31.5 41t35 30.5t29.5 20.5q-12 15 -17.5 31.5t-6.5 31t0.5 25t1.5 13.5q6 34 25 63t46.5 51t62.5 34.5t74 12.5q37 0 66.5 -10t48.5 -28.5t26.5 -46
t1.5 -62.5h-74z" />
    <glyph glyph-name="currency" unicode="&#xa4;" 
d="M23 84l116 98q-16 25 -21.5 58t1.5 71t25.5 72t41.5 57l-81 96l52 44l78 -98q29 20 64 31.5t73 11.5q39 0 71 -12t50 -31l116 98l34 -44l-113 -96q14 -23 20 -57t-1 -72q-7 -39 -25 -72.5t-41 -56.5l78 -98l-50 -42l-80 96q-27 -19 -62.5 -31t-74.5 -12t-70 12t-51 31
l-114 -96zM362 467q-32 0 -62.5 -13t-55.5 -34.5t-42 -49.5t-23 -59q-6 -32 1 -60.5t23.5 -50t42.5 -34.5t58 -13q33 0 64 13t56 34.5t42 50t23 60.5q6 31 -1 59t-24 49.5t-43 34.5t-59 13z" />
    <glyph glyph-name="quotesingle" unicode="'" horiz-adv-x="198" 
d="M151 444l42 296h81l-66 -296h-57z" />
    <glyph glyph-name="quotedblleft" unicode="&#x201c;" horiz-adv-x="502" 
d="M284 546l-53 194h74l53 -194h-74zM431 546l-52 194h73l53 -194h-74z" />
    <glyph glyph-name="guillemotleft" unicode="&#xab;" horiz-adv-x="425" 
d="M265 282l149 199l54 -31l-126 -168l64 -168l-65 -33zM91 282l149 199l54 -31l-125 -168l63 -168l-65 -33z" />
    <glyph glyph-name="guilsinglleft" unicode="&#x2039;" horiz-adv-x="251" 
d="M91 282l149 199l54 -31l-125 -168l63 -168l-65 -33z" />
    <glyph glyph-name="guilsinglright" unicode="&#x203a;" horiz-adv-x="251" 
d="M59 114l125 168l-63 168l63 31l78 -199l-151 -201z" />
    <glyph glyph-name="fi" unicode="&#xfb01;" horiz-adv-x="487" 
d="M486 740h70l-23 -126h-70zM262 484l-88 -484h-70l88 484h-85l11 63h85q6 28 17 63.5t37 67t72 53t122 22.5l-12 -65q-52 0 -83 -14t-48 -35t-24 -45t-10 -43l-1 -4h248l-99 -547h-70l88 484h-178z" />
    <glyph glyph-name="fl" unicode="&#xfb02;" horiz-adv-x="485" 
d="M262 484l-88 -484h-70l88 484h-85l11 63h85q6 28 17 63.5t37 67t72 53t122 22.5l-12 -65q-52 0 -83 -14t-48 -35t-24 -45t-10 -43l-1 -4h176l35 193h70l-134 -740h-70l88 484h-176z" />
    <glyph glyph-name="endash" unicode="&#x2013;" horiz-adv-x="500" 
d="M522 315l-12 -67h-430l12 67h430z" />
    <glyph glyph-name="dagger" unicode="&#x2020;" horiz-adv-x="553" 
d="M411 539h180l-12 -67h-180l-111 -605h-74l111 605h-180l12 67h180l36 201h74z" />
    <glyph glyph-name="daggerdbl" unicode="&#x2021;" horiz-adv-x="553" 
d="M411 539h180l-12 -67h-180l-62 -337h180l-12 -67h-180l-37 -201h-74l37 201h-180l12 67h180l62 337h-180l12 67h180l36 201h74z" />
    <glyph glyph-name="periodcentered" unicode="&#xb7;" horiz-adv-x="277" 
d="M159 316h74l-23 -126h-74z" />
    <glyph glyph-name="periodcentered" unicode="&#x2219;" horiz-adv-x="277" 
d="M159 316h74l-23 -126h-74z" />
    <glyph glyph-name="paragraph" unicode="&#xb6;" horiz-adv-x="564" 
d="M306 348h-17q-44 0 -79 14t-57.5 39.5t-31.5 61t-1 79.5q11 57 44 100t75 66q26 14 69 23t91 9h286l-10 -56h-64l-145 -794h-62l145 794h-120l-145 -794h-62z" />
    <glyph glyph-name="bullet" unicode="&#x2022;" horiz-adv-x="606" 
d="M400 532q31 0 56.5 -12.5t42 -33.5t23.5 -49t1 -60t-23 -60.5t-41.5 -49.5t-54.5 -33t-61 -12q-32 0 -57.5 12.5t-42.5 33.5t-24 49t-1 60q6 31 22.5 59t41 49.5t55 34t63.5 12.5z" />
    <glyph glyph-name="quotesinglbase" unicode="&#x201a;" horiz-adv-x="354" 
d="M76 -68l123 194h74l-123 -194h-74z" />
    <glyph glyph-name="quotedblbase" unicode="&#x201e;" horiz-adv-x="502" 
d="M347 126h74l-123 -194h-74zM199 126h74l-123 -194h-74z" />
    <glyph glyph-name="quotedblright" unicode="&#x201d;" horiz-adv-x="484" 
d="M342 546l123 194h74l-123 -194h-74zM195 546l123 194h73l-122 -194h-74z" />
    <glyph glyph-name="guillemotright" unicode="&#xbb;" horiz-adv-x="425" 
d="M59 114l125 168l-63 168l63 31l78 -199l-151 -201zM233 114l125 168l-63 168l63 31l78 -199l-151 -201z" />
    <glyph glyph-name="ellipsis" unicode="&#x2026;" horiz-adv-x="1000" 
d="M818 126h74l-22 -126h-74zM485 126h74l-22 -126h-74zM152 126h74l-22 -126h-74z" />
    <glyph glyph-name="perthousand" unicode="&#x2030;" horiz-adv-x="1174" 
d="M210 0h-68l558 740h68zM189 572q-5 -26 0 -48t18.5 -39t33.5 -26.5t46 -9.5q25 0 49 9.5t43.5 26.5t33 39t18.5 48q4 25 -1 47.5t-18.5 39.5t-34 26.5t-45.5 9.5q-26 0 -49.5 -9.5t-43 -26.5t-33 -39.5t-17.5 -47.5zM129 572q7 37 27 69.5t49 57t64.5 38.5t72.5 14
t67.5 -14t51 -38.5t29 -57t1.5 -69.5t-27 -69.5t-49.5 -57t-65 -38.5t-72.5 -14t-67.5 14t-50.5 38.5t-28.5 57t-1.5 69.5zM876 166q-5 -26 0 -48t18.5 -39t33.5 -26.5t46 -9.5q25 0 49 9.5t43.5 26.5t33 39t18.5 48q4 25 -1 47.5t-18.5 39.5t-34 26.5t-45.5 9.5
q-26 0 -49.5 -9.5t-43 -26.5t-33 -39.5t-17.5 -47.5zM816 166q7 37 27 69.5t49 57t64.5 38.5t72.5 14t67.5 -14t51 -38.5t29 -57t1.5 -69.5t-27 -69.5t-49.5 -57t-65 -38.5t-72.5 -14t-67.5 14t-50.5 38.5t-28.5 57t-1.5 69.5zM425 166q7 37 27 69.5t49 57t64.5 38.5
t72.5 14t67.5 -14t51 -38.5t29 -57t1.5 -69.5t-27 -69.5t-49.5 -57t-65 -38.5t-72.5 -14t-67.5 14t-50.5 38.5t-28.5 57t-1.5 69.5zM485 166q-5 -26 0 -48t18.5 -39t33.5 -26.5t46 -9.5q25 0 49 9.5t43.5 26.5t33 39t18.5 48q4 25 -1 47.5t-18.5 39.5t-34 26.5t-45.5 9.5
q-26 0 -49.5 -9.5t-43 -26.5t-33 -39.5t-17.5 -47.5z" />
    <glyph glyph-name="questiondown" unicode="&#xbf;" horiz-adv-x="591" 
d="M404 422h-74l23 126h74zM534 39l-4 -19q-8 -44 -33 -84.5t-62.5 -72t-84 -50t-96.5 -18.5t-88.5 17.5t-63 48t-33.5 71t-1 85.5q5 30 16.5 53.5t28.5 44t40.5 41t53.5 44.5q13 11 29.5 25.5t32.5 33.5t29 42.5t20 53.5h74l-1 -4q-7 -38 -24 -69t-37.5 -55.5t-42 -43.5
t-37.5 -31q-41 -33 -71 -62.5t-38 -74.5q-5 -27 1.5 -54t23 -48.5t43 -34.5t61.5 -13q48 0 84 21.5t64 51.5q23 26 30 52t12 49h74z" />
    <glyph glyph-name="grave" unicode="`" horiz-adv-x="378" 
d="M423 677l-44 -58l-178 107l43 60z" />
    <glyph glyph-name="acute" unicode="&#xb4;" horiz-adv-x="375" 
d="M420 786l21 -60l-218 -107l-22 58z" />
    <glyph glyph-name="circumflex" unicode="&#x2c6;" horiz-adv-x="502" 
d="M358 764h66l120 -125h-89l-73 73l-101 -73h-91z" />
    <glyph glyph-name="tilde" unicode="&#x2dc;" horiz-adv-x="439" 
d="M517 690q-27 -18 -54.5 -28.5t-50.5 -10.5q-25 0 -43.5 7.5t-32.5 13.5q-20 11 -32.5 15.5t-28.5 4.5q-18 0 -37.5 -8.5t-35.5 -21.5l-26 50q52 42 112 42q26 0 42.5 -6.5t33.5 -15.5q7 -3 24 -11t34 -8q16 0 29.5 6t38.5 20z" />
    <glyph glyph-name="macron" unicode="&#xaf;" horiz-adv-x="485" 
d="M545 736l-13 -67h-338l13 67h338z" />
    <glyph glyph-name="macron" unicode="&#x2c9;" horiz-adv-x="485" 
d="M545 736l-13 -67h-338l13 67h338z" />
    <glyph glyph-name="breve" unicode="&#x2d8;" horiz-adv-x="453" 
d="M254 754q9 -17 24.5 -26.5t31.5 -14t28.5 -5t16.5 -0.5t17 0.5t30.5 5t36.5 14t34 26.5h65q-18 -33 -42.5 -53.5t-51.5 -31.5t-53 -14.5t-47 -3.5q-20 0 -44 3.5t-47 14t-40.5 31t-23.5 54.5h65z" />
    <glyph glyph-name="dotaccent" unicode="&#x2d9;" horiz-adv-x="222" 
d="M287 765l-23 -126h-74l23 126h74z" />
    <glyph glyph-name="dieresis" unicode="&#xa8;" horiz-adv-x="369" 
d="M434 765l-23 -126h-74l23 126h74zM286 765l-23 -126h-74l23 126h74z" />
    <glyph glyph-name="ring" unicode="&#x2da;" horiz-adv-x="332" 
d="M242 703q-4 -21 8 -36t33 -15q22 0 40 15t22 36q4 22 -8.5 37t-34.5 15q-20 0 -38 -15t-22 -37zM190 703q4 21 15.5 40t28 33.5t37 22.5t41.5 8q22 0 39.5 -8t28.5 -22t16 -33t1 -41q-4 -21 -16 -40t-28.5 -33t-37 -22t-41.5 -8t-38.5 8t-29 22t-16 33t-0.5 40z" />
    <glyph glyph-name="cedilla" unicode="&#xb8;" horiz-adv-x="324" 
d="M138 -56q15 4 25 4h9q32 -2 47.5 -26t9.5 -58l-1 -2q-10 -38 -39.5 -61t-61.5 -23h-6q-28 2 -49 19.5t-20 57.5l42 2q0 -19 10 -29.5t26 -12.5h3q20 0 35 14t20 34v4q4 21 -5.5 33t-27.5 14h-6q-17 0 -27 -6.5t-17 -12.5l-32 21l62 87l42 -3z" />
    <glyph glyph-name="hungarumlaut" unicode="&#x2dd;" horiz-adv-x="552" 
d="M589 786l31 -46l-188 -135l-30 46zM413 786l32 -46l-188 -135l-30 46z" />
    <glyph glyph-name="ogonek" unicode="&#x2db;" horiz-adv-x="302" 
d="M197 0q-43 -29 -65.5 -51t-27.5 -47q-3 -14 1.5 -23.5t12 -15.5t17.5 -8.5t18 -2.5q12 0 24.5 2.5t24.5 7.5l-8 -44q-9 -3 -21.5 -6t-30.5 -3q-27 0 -45.5 8t-29 21t-13.5 29t0 32q4 21 15 37.5t24.5 28.5t27.5 20.5t24 14.5h52z" />
    <glyph glyph-name="caron" unicode="&#x2c7;" horiz-adv-x="502" 
d="M299 764l72 -73l102 73h89l-166 -125h-67l-122 125h92z" />
    <glyph glyph-name="emdash" unicode="&#x2014;" horiz-adv-x="1000" 
d="M1022 315l-12 -67h-930l12 67h930z" />
    <glyph glyph-name="AE" unicode="&#xc6;" horiz-adv-x="992" 
d="M347 317h226l60 328h-2zM629 740h412l-12 -67h-317l-48 -266h306l-13 -67h-306l-49 -273h317l-12 -67h-391l45 250h-273l-219 -250h-89z" />
    <glyph glyph-name="ordfeminine" unicode="&#xaa;" horiz-adv-x="369" 
d="M162 579q-4 -23 1.5 -44t18.5 -37t33 -25.5t46 -9.5q25 0 48.5 8.5t43 24t33 37t18.5 48.5q4 25 -1.5 46t-19 36.5t-34 24.5t-45.5 9q-23 0 -46 -8.5t-43 -24t-34 -37t-19 -48.5zM431 415h-60l10 52h-2q-25 -32 -59.5 -46t-71.5 -14t-67 14t-49.5 38t-27.5 55.5t-2 66.5
q6 32 24.5 63t46 55t63 39t75.5 15q13 0 29 -2t31 -8.5t28 -18.5t21 -31h2l9 52h60z" />
    <glyph glyph-name="Oslash" unicode="&#xd8;" horiz-adv-x="868" 
d="M291 98q45 -29 85.5 -36.5t67.5 -7.5q63 0 125 24.5t113.5 67t88 100t48.5 123.5q12 68 -3.5 125.5t-55.5 105.5zM712 641q-35 23 -71.5 34t-81.5 11q-65 0 -127.5 -25t-113.5 -68.5t-86.5 -101t-47.5 -122.5q-11 -59 2 -119.5t58 -110.5zM879 819l47 -40l-114 -123
q33 -35 52 -72.5t27.5 -75t8 -73t-6.5 -65.5q-15 -82 -60 -152t-108.5 -121.5t-139.5 -80.5t-154 -29q-55 0 -101.5 14t-89.5 42l-117 -126l-47 40l116 126q-53 55 -75 129t-7 158q15 82 60 152t108.5 121.5t139.5 80.5t153 29q57 0 103 -14t90 -43z" />
    <glyph glyph-name="OE" unicode="&#x152;" horiz-adv-x="1194" 
d="M187 374q-14 -75 2.5 -134.5t53 -100.5t88.5 -63t109 -22q61 0 123 22.5t114.5 64t90.5 100t51 130.5q12 64 -1.5 121t-48 100t-88 68.5t-120.5 25.5q-68 0 -130.5 -25t-113 -67.5t-84.5 -99t-46 -120.5zM1276 740l-12 -67h-317l-49 -267h306l-12 -67h-306l-49 -272h317
l-12 -67h-391l27 151h-2q-27 -38 -66.5 -68.5t-85 -51.5t-93.5 -32.5t-93 -11.5q-80 0 -147 27.5t-112 78t-64 121.5t-3 157q15 83 59 153t106.5 121t138 79.5t153.5 28.5q45 0 90.5 -11t84.5 -31.5t69 -50t44 -67.5h2l26 147h391z" />
    <glyph glyph-name="ordmasculine" unicode="&#xba;" horiz-adv-x="369" 
d="M177 579q-5 -26 0 -47.5t18 -36.5t32 -23.5t42 -8.5q21 0 42.5 7.5t39.5 22.5t31.5 37t18.5 51t-1 50.5t-19.5 36t-32 22t-36.5 7.5q-20 0 -42 -8t-40.5 -23t-33 -37t-19.5 -50zM117 577q7 40 27.5 72.5t49 55.5t61.5 35.5t66 12.5q36 0 65 -14t47.5 -38t26 -55t1.5 -65
q-6 -35 -24.5 -66.5t-46 -55.5t-61.5 -38t-71 -14q-36 0 -65 14t-48 37.5t-26.5 54t-1.5 64.5z" />
    <glyph glyph-name="ae" unicode="&#xe6;" horiz-adv-x="1157" 
d="M597 272q8 45 0 86t-31.5 72t-61 49.5t-87.5 18.5t-94.5 -19.5t-79.5 -51t-58.5 -73t-31.5 -84.5q-8 -44 1.5 -84t34 -70t62 -48t84.5 -18q44 0 87 15.5t78.5 44.5t61.5 70t35 92zM1099 310q1 49 -14.5 84.5t-41 58.5t-57.5 34t-65 11q-32 0 -68.5 -11t-70.5 -34
t-62.5 -58.5t-45.5 -84.5h425zM663 247q-5 -49 10 -86t41 -61.5t59.5 -37t66.5 -12.5t66 10t61.5 27t52 40.5t37.5 50.5h70q-21 -43 -54 -78t-73 -60t-84.5 -39t-87.5 -14q-30 0 -59.5 7t-55 21.5t-46 35.5t-32.5 48h-2l-18 -99h-70l18 99h-2q-28 -33 -58 -54.5t-60.5 -34.5
t-61 -18t-58.5 -5q-72 0 -122 27t-79 68.5t-38.5 92t-0.5 97.5q9 46 36.5 97t72 94t104.5 70.5t133 27.5q70 0 121.5 -28.5t73.5 -86.5h2l18 101h70l-18 -101h2q19 27 46.5 48t59 36t65 23t63.5 8q44 0 79.5 -12.5t62.5 -32.5t45.5 -45t28.5 -50q17 -39 19 -78t-5 -76
l-2 -10l-2 -10h-495z" />
    <glyph glyph-name="dotlessi" unicode="&#x131;" horiz-adv-x="200" 
d="M164 547h70l-99 -547h-70z" />
    <glyph glyph-name="oslash" unicode="&#xf8;" horiz-adv-x="653" 
d="M701 573l-89 -94q33 -40 47 -93t3 -112q-10 -56 -41 -108t-77 -91.5t-103 -63.5t-118 -24q-81 0 -137 42l-88 -93l-47 38l89 95q-33 40 -47 92t-3 109q12 65 46 118.5t81 92t102 59.5t109 21q41 0 75 -10.5t61 -30.5l89 94zM235 81q43 -31 101 -31q40 0 81.5 15.5
t77 44.5t62 71t36.5 96q8 48 -0.5 85t-30.5 64zM516 468q-23 16 -48.5 23t-50.5 7q-38 0 -79 -15t-77.5 -44t-63.5 -71.5t-37 -96.5q-8 -44 0 -81.5t31 -66.5z" />
    <glyph glyph-name="oe" unicode="&#x153;" horiz-adv-x="1137" 
d="M1090 311q1 48 -14.5 83.5t-41 58.5t-57.5 34t-65 11q-32 0 -68.5 -11t-70.5 -34t-62.5 -58.5t-45.5 -83.5h425zM329 50q42 0 84.5 16.5t78 46t60.5 70t34 88.5q10 54 -2.5 96.5t-38.5 71.5t-62 44t-73 15q-38 0 -79 -15t-77.5 -44t-63.5 -71.5t-37 -96.5
q-9 -48 1.5 -88.5t35.5 -70t61 -46t78 -16.5zM83 270q12 65 46 118.5t81 92t102 59.5t109 21q41 0 77 -11.5t64.5 -31.5t49 -48t32.5 -61q48 67 121 108.5t157 43.5q44 0 79.5 -12.5t62.5 -32.5t45.5 -45t28.5 -50q17 -39 19.5 -78t-4.5 -75l-2 -10l-2 -10h-497
q-5 -40 6.5 -76t36 -63t59 -43t75.5 -16q36 1 69.5 11.5t62 28t50.5 40.5t35 49h74q-21 -41 -53.5 -76t-72.5 -61t-85 -40.5t-91 -14.5q-41 0 -76.5 11t-64.5 30.5t-50.5 47.5t-33.5 62q-24 -33 -54.5 -60.5t-66.5 -48t-75.5 -31.5t-80.5 -11q-60 0 -107.5 23.5t-79 62.5
t-44 90t-2.5 107z" />
    <glyph glyph-name="germandbls" unicode="&#xdf;" 
d="M167 203h51q-5 -34 1 -62t20.5 -48.5t36.5 -31.5t49 -11q24 0 50.5 9t49.5 27t41 45t24 62q5 32 -1 60t-26 48q-14 15 -32.5 23.5t-38 12.5t-38.5 4.5t-34 0.5h-34l12 67h5q25 0 56.5 5.5t60.5 20.5t52 43t31 73q6 31 0 56.5t-21 44t-38 28.5t-51 10q-38 0 -71 -18.5
t-53 -47.5q-11 -14 -18 -28t-13 -31t-10.5 -37.5t-9.5 -46.5zM148 481q13 71 28 111t40 69q33 40 84.5 66t104.5 26q43 0 77.5 -14.5t57.5 -42t32 -66t0 -86.5q-11 -59 -41 -95t-75 -59q27 -10 49.5 -26.5t37.5 -39.5t20 -54t-2 -70q-10 -56 -36.5 -96t-61.5 -66t-74 -38.5
t-75 -12.5q-63 0 -107 32t-55 90h-2l-19 -109h-70z" />
    <glyph glyph-name="degree" unicode="&#xb0;" horiz-adv-x="400" 
d="M208 565q-3 -18 0.5 -34.5t13 -30t25.5 -21.5t38 -8t41 8t33.5 21.5t24 30t12.5 34.5t0 34.5t-12.5 30t-25.5 21.5t-38 8t-41 -8t-33.5 -21.5t-24.5 -30t-13 -34.5zM158 565q6 30 22 56t39 45.5t51.5 31t58.5 11.5t54 -11.5t40 -31t22.5 -45.5t0.5 -56q-5 -30 -21 -56.5
t-39 -46t-51.5 -30.5t-58.5 -11t-54 11t-40 30.5t-22.5 46t-1.5 56.5z" />
    <glyph glyph-name="oacute" unicode="&#xf3;" horiz-adv-x="655" 
d="M590 786l21 -60l-218 -107l-22 58zM161 271q-9 -48 1.5 -88.5t35.5 -70t61 -46t78 -16.5q40 0 81.5 15.5t77 44.5t62 71t36.5 96t-3 95.5t-40 69t-62.5 42t-70.5 14.5q-38 0 -79 -15t-77.5 -44t-63.5 -71.5t-37 -96.5zM91 270q12 65 46 118.5t81 92t102 59.5t109 21
q61 0 109 -24t79.5 -63.5t43.5 -91.5t2 -108t-41 -108t-77 -91.5t-103 -63.5t-118 -24q-60 0 -107.5 23.5t-79 62.5t-44 90t-2.5 107z" />
    <glyph glyph-name="Odieresis" unicode="&#xd6;" horiz-adv-x="869" 
d="M714 928l-23 -126h-74l23 126h74zM566 928l-23 -126h-74l23 126h74zM183 366q-12 -63 3 -120t50.5 -99.5t88.5 -67.5t118 -25q64 0 126.5 24.5t114 67t87.5 100t48 123.5q12 65 -3 122.5t-50 101t-88 68.5t-119 25q-63 0 -124.5 -24t-113.5 -67t-88.5 -101.5
t-49.5 -127.5zM109 366q16 87 62.5 158.5t110.5 122.5t139.5 78.5t149.5 27.5q78 0 143.5 -29t110.5 -80.5t64 -121.5t4 -152t-60 -152t-108.5 -121.5t-139.5 -80.5t-154 -29q-79 0 -144.5 30t-109.5 81.5t-63 120.5t-5 147z" />
    <glyph glyph-name="odieresis" unicode="&#xf6;" horiz-adv-x="655" 
d="M577 765l-23 -126h-74l23 126h74zM429 765l-23 -126h-74l23 126h74zM161 271q-9 -48 1.5 -88.5t35.5 -70t61 -46t78 -16.5q40 0 81.5 15.5t77 44.5t62 71t36.5 96t-3 95.5t-40 69t-62.5 42t-70.5 14.5q-38 0 -79 -15t-77.5 -44t-63.5 -71.5t-37 -96.5zM91 270
q12 65 46 118.5t81 92t102 59.5t109 21q61 0 109 -24t79.5 -63.5t43.5 -91.5t2 -108t-41 -108t-77 -91.5t-103 -63.5t-118 -24q-60 0 -107.5 23.5t-79 62.5t-44 90t-2.5 107z" />
    <glyph glyph-name="Ecircumflex" unicode="&#xca;" horiz-adv-x="536" 
d="M404 927h66l121 -125h-89l-73 73l-101 -73h-91zM204 740h405l-12 -67h-331l-48 -266h320l-13 -67h-320l-49 -273h331l-12 -67h-405z" />
    <glyph glyph-name="ucircumflex" unicode="&#xfb;" horiz-adv-x="608" 
d="M411 764h66l120 -125h-89l-73 73l-101 -73h-91zM541 0h-66l15 85h-2q-10 -15 -27 -32.5t-41 -32t-55.5 -24t-69.5 -9.5q-41 0 -70 8.5t-49.5 21t-33.5 27t-20 25.5q-11 18 -16.5 39.5t-6.5 44.5t1 46.5t6 45.5l55 302h70l-55 -301q-9 -52 -5 -86.5t18 -57.5
q23 -32 56 -42t62 -10t60.5 9t63.5 35q14 12 26.5 25.5t24 32.5t20.5 44.5t16 61.5l52 289h70z" />
    <glyph glyph-name="logicalnot" unicode="&#xac;" horiz-adv-x="606" 
d="M574 109h-68l39 211h-436l12 68h504z" />
    <glyph glyph-name="Edieresis" unicode="&#xcb;" horiz-adv-x="536" 
d="M548 928l-23 -126h-74l23 126h74zM400 928l-23 -126h-74l23 126h74zM204 740h405l-12 -67h-331l-48 -266h320l-13 -67h-320l-49 -273h331l-12 -67h-405z" />
    <glyph glyph-name="Otilde" unicode="&#xd5;" horiz-adv-x="869" 
d="M762 853q-27 -18 -54.5 -28.5t-50.5 -10.5q-25 0 -44 7.5t-32 13.5q-21 11 -33.5 15.5t-28.5 4.5q-18 0 -37 -8.5t-35 -21.5l-26 50q52 42 112 42q26 0 42.5 -6.5t33.5 -15.5q7 -3 24 -11t34 -8q16 0 29.5 6t38.5 20zM183 366q-12 -63 3 -120t50.5 -99.5t88.5 -67.5
t118 -25q64 0 126.5 24.5t114 67t87.5 100t48 123.5q12 65 -3 122.5t-50 101t-88 68.5t-119 25q-63 0 -124.5 -24t-113.5 -67t-88.5 -101.5t-49.5 -127.5zM109 366q16 87 62.5 158.5t110.5 122.5t139.5 78.5t149.5 27.5q78 0 143.5 -29t110.5 -80.5t64 -121.5t4 -152
t-60 -152t-108.5 -121.5t-139.5 -80.5t-154 -29q-79 0 -144.5 30t-109.5 81.5t-63 120.5t-5 147z" />
    <glyph glyph-name="uacute" unicode="&#xfa;" horiz-adv-x="608" 
d="M557 786l21 -60l-218 -107l-22 58zM541 0h-66l15 85h-2q-10 -15 -27 -32.5t-41 -32t-55.5 -24t-69.5 -9.5q-41 0 -70 8.5t-49.5 21t-33.5 27t-20 25.5q-11 18 -16.5 39.5t-6.5 44.5t1 46.5t6 45.5l55 302h70l-55 -301q-9 -52 -5 -86.5t18 -57.5q23 -32 56 -42t62 -10
t60.5 9t63.5 35q14 12 26.5 25.5t24 32.5t20.5 44.5t16 61.5l52 289h70z" />
    <glyph glyph-name="eacute" unicode="&#xe9;" horiz-adv-x="650" 
d="M558 786l21 -60l-218 -107l-22 58zM593 311q1 48 -15 83.5t-41.5 58.5t-58 34t-65.5 11q-32 0 -68.5 -11t-70.5 -34t-63 -58.5t-45 -83.5h427zM155 248q-6 -40 6 -76t36.5 -63t59 -43t74.5 -16q37 1 71 11.5t62 28t50 40.5t36 49h74q-22 -41 -54.5 -76t-72 -61t-85 -40.5
t-92.5 -14.5q-57 0 -105 22t-80 60.5t-45.5 90.5t-2.5 113q10 58 41.5 110t77.5 91t102 62.5t116 24.5q45 0 81 -12.5t63 -32.5t45.5 -45t28.5 -50q17 -39 19.5 -78t-4.5 -75l-2 -10l-2 -10h-498z" />
    <glyph glyph-name="iacute" unicode="&#xed;" horiz-adv-x="200" 
d="M372 786l21 -60l-218 -107l-22 58zM164 547h70l-99 -547h-70z" />
    <glyph glyph-name="icircumflex" unicode="&#xee;" horiz-adv-x="200" 
d="M207 764h66l120 -125h-89l-73 73l-101 -73h-91zM164 547h70l-99 -547h-70z" />
    <glyph glyph-name="registered" unicode="&#xae;" horiz-adv-x="747" 
d="M500 701q-70 0 -134.5 -26.5t-116.5 -72t-88 -105.5t-48 -127q-12 -68 2 -128t50 -105t91 -71.5t124 -26.5q67 0 131.5 26t117 70.5t89 105t49.5 129.5q12 67 -2 127t-50 105.5t-91 72t-124 26.5zM511 752q79 0 143 -30.5t106 -82.5t59 -121.5t3 -147.5
q-15 -80 -58 -149.5t-104.5 -121t-136 -81.5t-152.5 -30q-80 0 -144.5 30.5t-106.5 82.5t-59 121.5t-3 147.5t56.5 147.5t103.5 121.5t136.5 82.5t156.5 30.5zM334 383h110q11 0 31 1t41 8.5t38 24t23 46.5q5 27 -5 41t-26.5 21t-34.5 8t-29 1h-120zM500 585q10 0 35 -2
t49.5 -13t40 -35t7.5 -69q-6 -36 -29.5 -65.5t-70.5 -40.5v-2q21 -6 33.5 -16t17.5 -23.5t5 -31.5q0 -17 -3 -38q-4 -28 -6 -44.5t-2.5 -27t0.5 -16.5t3 -13h-55q-2 5 -3 10.5t-1 14.5t1.5 22t4.5 34q5 26 5 45q0 20 -9 33t-30.5 19.5t-58.5 6.5h-109l-34 -185h-55l80 437
h184z" />
    <glyph glyph-name="Atilde" unicode="&#xc3;" horiz-adv-x="740" 
d="M698 853q-27 -18 -54.5 -28.5t-50.5 -10.5q-25 0 -44 7.5t-32 13.5q-21 11 -33.5 15.5t-28.5 4.5q-18 0 -37 -8.5t-35 -21.5l-26 50q52 42 112 42q26 0 42.5 -6.5t33.5 -15.5q7 -3 24 -11t34 -8q16 0 29.5 6t38.5 20zM282 316h287l-80 340zM462 740h83l184 -740h-81
l-62 249h-344l-153 -249h-77z" />
    <glyph glyph-name="Aacute" unicode="&#xc1;" horiz-adv-x="740" 
d="M632 949l22 -60l-218 -107l-22 58zM282 316h287l-80 340zM462 740h83l184 -740h-81l-62 249h-344l-153 -249h-77z" />
    <glyph glyph-name="Ccedilla" unicode="&#xc7;" horiz-adv-x="813" 
d="M806 194q-40 -54 -87.5 -93.5t-97 -64.5t-99.5 -37t-94 -12l-30 -43q15 4 25 4h9q32 -2 47.5 -26t9.5 -58l-1 -2q-10 -38 -39.5 -61t-61.5 -23h-6q-28 2 -49 19.5t-20 57.5l42 2q0 -19 10 -29.5t26 -12.5h3q20 0 35 14t20 34v4q4 21 -5.5 33t-27.5 14h-6q-17 0 -27 -6.5
t-17 -12.5l-32 21l53 74q-70 7 -127 38.5t-94.5 82t-53 116t-1.5 142.5q15 82 58.5 152t105.5 121.5t137.5 80.5t154.5 29q71 0 125 -22t91 -53.5t58.5 -66t27.5 -60.5h-83q-22 45 -55 72t-67 41t-64 18t-47 4q-65 0 -126.5 -26.5t-111.5 -70.5t-84.5 -101t-45.5 -119
q-12 -65 3.5 -122t51.5 -100t87.5 -67.5t111.5 -24.5q14 0 42.5 3t66.5 16.5t83.5 41.5t92.5 79h83z" />
    <glyph glyph-name="ntilde" unicode="&#xf1;" horiz-adv-x="610" 
d="M603 690q-27 -18 -54.5 -28.5t-50.5 -10.5q-25 0 -43.5 7.5t-32.5 13.5q-20 11 -32.5 15.5t-28.5 4.5q-18 0 -37.5 -8.5t-35.5 -21.5l-26 50q52 42 112 42q26 0 42.5 -6.5t33.5 -15.5q7 -3 24 -11t34 -8q16 0 29.5 6t38.5 20zM164 547h70l-13 -70h2q10 12 27 27t40 27.5
t52.5 21t64.5 8.5q51 0 90.5 -14.5t70.5 -52.5q25 -30 35 -77.5t-3 -115.5l-54 -301h-70l54 301q10 54 2 91t-26 59q-24 28 -56 37.5t-55 9.5t-58.5 -9.5t-68.5 -37.5q-26 -21 -47 -57.5t-31 -87.5l-55 -306h-70z" />
    <glyph glyph-name="Aring" unicode="&#xc5;" horiz-adv-x="740" 
d="M473 851q-5 -21 7.5 -36t33.5 -15q22 0 39.5 15t22.5 36q4 22 -8.5 37t-34.5 15q-20 0 -38 -15t-22 -37zM421 851q4 21 15.5 40t28 33.5t37 22.5t41.5 8q22 0 39.5 -8t28.5 -22t16 -33t1 -41q-4 -21 -16 -40t-28.5 -33t-37 -22t-41.5 -8t-38.5 8t-29 22t-16 33t-0.5 40z
M282 316h287l-80 340zM462 740h83l184 -740h-81l-62 249h-344l-153 -249h-77z" />
    <glyph glyph-name="mu" unicode="&#xb5;" horiz-adv-x="608" 
d="M475 0l15 85h-2q-10 -15 -27 -32.5t-41 -32t-55.5 -24t-69.5 -9.5q-66 0 -101 18.5t-52 50.5l-45 -248h-70l134 739h70l-55 -301q-9 -52 -5.5 -87t18.5 -57q22 -33 55.5 -42.5t62.5 -9.5t60.5 9t63.5 35q14 12 26.5 25.5t24 32.5t20.5 44.5t16 61.5l52 289h70l-99 -547
h-66z" />
    <glyph glyph-name="mu" unicode="&#x3bc;" horiz-adv-x="608" 
d="M475 0l15 85h-2q-10 -15 -27 -32.5t-41 -32t-55.5 -24t-69.5 -9.5q-66 0 -101 18.5t-52 50.5l-45 -248h-70l134 739h70l-55 -301q-9 -52 -5.5 -87t18.5 -57q22 -33 55.5 -42.5t62.5 -9.5t60.5 9t63.5 35q14 12 26.5 25.5t24 32.5t20.5 44.5t16 61.5l52 289h70l-99 -547
h-66z" />
    <glyph glyph-name="Ugrave" unicode="&#xd9;" horiz-adv-x="655" 
d="M572 840l-44 -58l-178 107l42 60zM283 740l-84 -461q-7 -41 -7 -76t8 -58q11 -31 29 -49t37.5 -27.5t38 -12t31.5 -2.5t33 2.5t43 12t47 27.5t47 49q17 23 29.5 58t19.5 76l84 461h74l-84 -461q-8 -47 -22.5 -86t-33.5 -68q-27 -42 -59.5 -68.5t-66 -42t-65.5 -21.5
t-58 -6t-56 6t-58 21.5t-50.5 42t-34.5 68.5q-17 59 0 154l84 461h74z" />
    <glyph glyph-name="Egrave" unicode="&#xc8;" horiz-adv-x="536" 
d="M532 840l-44 -58l-178 107l42 60zM204 740h405l-12 -67h-331l-48 -266h320l-13 -67h-320l-49 -273h331l-12 -67h-405z" />
    <glyph glyph-name="otilde" unicode="&#xf5;" horiz-adv-x="655" 
d="M625 690q-27 -18 -54.5 -28.5t-50.5 -10.5q-25 0 -43.5 7.5t-32.5 13.5q-20 11 -32.5 15.5t-28.5 4.5q-18 0 -37.5 -8.5t-35.5 -21.5l-26 50q52 42 112 42q26 0 42.5 -6.5t33.5 -15.5q7 -3 24 -11t34 -8q16 0 29.5 6t38.5 20zM161 271q-9 -48 1.5 -88.5t35.5 -70t61 -46
t78 -16.5q40 0 81.5 15.5t77 44.5t62 71t36.5 96t-3 95.5t-40 69t-62.5 42t-70.5 14.5q-38 0 -79 -15t-77.5 -44t-63.5 -71.5t-37 -96.5zM91 270q12 65 46 118.5t81 92t102 59.5t109 21q61 0 109 -24t79.5 -63.5t43.5 -91.5t2 -108t-41 -108t-77 -91.5t-103 -63.5t-118 -24
q-60 0 -107.5 23.5t-79 62.5t-44 90t-2.5 107z" />
    <glyph glyph-name="Ntilde" unicode="&#xd1;" horiz-adv-x="740" 
d="M698 853q-27 -18 -54.5 -28.5t-50.5 -10.5q-25 0 -44 7.5t-32 13.5q-21 11 -33.5 15.5t-28.5 4.5q-18 0 -37 -8.5t-35 -21.5l-26 50q52 42 112 42q26 0 42.5 -6.5t33.5 -15.5q7 -3 24 -11t34 -8q16 0 29.5 6t38.5 20zM209 740h100l301 -614h2l112 614h74l-134 -740h-74
l-321 651h-2l-118 -651h-74z" />
    <glyph glyph-name="Uacute" unicode="&#xda;" horiz-adv-x="655" 
d="M609 949l22 -60l-218 -107l-22 58zM283 740l-84 -461q-7 -41 -7 -76t8 -58q11 -31 29 -49t37.5 -27.5t38 -12t31.5 -2.5t33 2.5t43 12t47 27.5t47 49q17 23 29.5 58t19.5 76l84 461h74l-84 -461q-8 -47 -22.5 -86t-33.5 -68q-27 -42 -59.5 -68.5t-66 -42t-65.5 -21.5
t-58 -6t-56 6t-58 21.5t-50.5 42t-34.5 68.5q-17 59 0 154l84 461h74z" />
    <glyph glyph-name="Acircumflex" unicode="&#xc2;" horiz-adv-x="740" 
d="M506 927h66l121 -125h-89l-73 73l-101 -73h-91zM282 316h287l-80 340zM462 740h83l184 -740h-81l-62 249h-344l-153 -249h-77z" />
    <glyph glyph-name="ocircumflex" unicode="&#xf4;" horiz-adv-x="655" 
d="M435 764h66l120 -125h-89l-73 73l-101 -73h-91zM161 271q-9 -48 1.5 -88.5t35.5 -70t61 -46t78 -16.5q40 0 81.5 15.5t77 44.5t62 71t36.5 96t-3 95.5t-40 69t-62.5 42t-70.5 14.5q-38 0 -79 -15t-77.5 -44t-63.5 -71.5t-37 -96.5zM91 270q12 65 46 118.5t81 92t102 59.5
t109 21q61 0 109 -24t79.5 -63.5t43.5 -91.5t2 -108t-41 -108t-77 -91.5t-103 -63.5t-118 -24q-60 0 -107.5 23.5t-79 62.5t-44 90t-2.5 107z" />
    <glyph glyph-name="ydieresis" unicode="&#xff;" horiz-adv-x="536" 
d="M518 765l-23 -126h-74l23 126h74zM370 765l-23 -126h-74l23 126h74zM231 18l-117 529h74l95 -436l265 436h74l-451 -739h-73z" />
    <glyph glyph-name="Eacute" unicode="&#xc9;" horiz-adv-x="536" 
d="M530 949l22 -60l-218 -107l-22 58zM204 740h405l-12 -67h-331l-48 -266h320l-13 -67h-320l-49 -273h331l-12 -67h-405z" />
    <glyph glyph-name="Ograve" unicode="&#xd2;" horiz-adv-x="869" 
d="M699 840l-44 -58l-178 107l42 60zM183 366q-12 -63 3 -120t50.5 -99.5t88.5 -67.5t118 -25q64 0 126.5 24.5t114 67t87.5 100t48 123.5q12 65 -3 122.5t-50 101t-88 68.5t-119 25q-63 0 -124.5 -24t-113.5 -67t-88.5 -101.5t-49.5 -127.5zM109 366q16 87 62.5 158.5
t110.5 122.5t139.5 78.5t149.5 27.5q78 0 143.5 -29t110.5 -80.5t64 -121.5t4 -152t-60 -152t-108.5 -121.5t-139.5 -80.5t-154 -29q-79 0 -144.5 30t-109.5 81.5t-63 120.5t-5 147z" />
    <glyph glyph-name="acircumflex" unicode="&#xe2;" horiz-adv-x="683" 
d="M449 764h66l120 -125h-89l-73 73l-101 -73h-91zM161 272q-8 -46 0.5 -86.5t32.5 -70.5t62.5 -47.5t88.5 -17.5q44 0 87 17t78 46.5t60 70.5t34 89q8 45 -1 86t-32.5 71.5t-60.5 49t-84 18.5q-45 0 -88.5 -16t-79.5 -45t-62 -71t-35 -94zM621 0h-70l17 96h-2
q-29 -34 -60.5 -55t-63 -33t-60 -16.5t-49.5 -4.5q-65 0 -114.5 23t-81.5 62t-44 91.5t-1 111.5q10 55 40 106.5t75.5 91.5t104.5 64t126 24q22 0 49 -4.5t54 -16.5t50.5 -33.5t39.5 -55.5h2l17 96h70z" />
    <glyph glyph-name="divide" unicode="&#xf7;" horiz-adv-x="606" 
d="M286 113h74l-23 -126h-74zM360 519h74l-23 -126h-74zM103 287h504l-13 -68h-504z" />
    <glyph glyph-name="ccedilla" unicode="&#xe7;" horiz-adv-x="647" 
d="M636 161q-18 -25 -44 -55t-62.5 -56t-84 -43.5t-107.5 -18.5l-30 -44q15 4 25 4h9q32 -2 47.5 -26t9.5 -58l-1 -2q-10 -38 -39.5 -61t-61.5 -23h-6q-28 2 -49 19.5t-20 57.5l42 2q0 -19 10 -29.5t26 -12.5h3q20 0 35 14t20 34v4q4 21 -5.5 33t-27.5 14h-6q-17 0 -27 -6.5
t-17 -12.5l-32 21l53 74q-56 6 -98.5 31t-69.5 63t-37.5 87t-0.5 102q11 59 43.5 111.5t79.5 91.5t105 62t119 23q36 0 74 -9.5t71 -31t58 -55.5t36 -83h-77q-11 31 -29.5 53t-41.5 36t-49 20.5t-52 6.5q-40 0 -83 -14.5t-80.5 -43t-65 -70t-37.5 -95.5q-9 -46 0.5 -87
t34 -71.5t63 -48.5t87.5 -18q43 0 77.5 11.5t60.5 28.5t45 36t30 35h77z" />
    <glyph glyph-name="ugrave" unicode="&#xf9;" horiz-adv-x="608" 
d="M518 677l-44 -58l-178 107l43 60zM541 0h-66l15 85h-2q-10 -15 -27 -32.5t-41 -32t-55.5 -24t-69.5 -9.5q-41 0 -70 8.5t-49.5 21t-33.5 27t-20 25.5q-11 18 -16.5 39.5t-6.5 44.5t1 46.5t6 45.5l55 302h70l-55 -301q-9 -52 -5 -86.5t18 -57.5q23 -32 56 -42t62 -10
t60.5 9t63.5 35q14 12 26.5 25.5t24 32.5t20.5 44.5t16 61.5l52 289h70z" />
    <glyph glyph-name="Agrave" unicode="&#xc0;" horiz-adv-x="740" 
d="M634 840l-44 -58l-178 107l42 60zM282 316h287l-80 340zM462 740h83l184 -740h-81l-62 249h-344l-153 -249h-77z" />
    <glyph glyph-name="Ucircumflex" unicode="&#xdb;" horiz-adv-x="655" 
d="M464 927h66l121 -125h-89l-73 73l-101 -73h-91zM283 740l-84 -461q-7 -41 -7 -76t8 -58q11 -31 29 -49t37.5 -27.5t38 -12t31.5 -2.5t33 2.5t43 12t47 27.5t47 49q17 23 29.5 58t19.5 76l84 461h74l-84 -461q-8 -47 -22.5 -86t-33.5 -68q-27 -42 -59.5 -68.5t-66 -42
t-65.5 -21.5t-58 -6t-56 6t-58 21.5t-50.5 42t-34.5 68.5q-17 59 0 154l84 461h74z" />
    <glyph glyph-name="Ydieresis" unicode="&#x178;" horiz-adv-x="592" 
d="M576 928l-23 -126h-74l23 126h74zM428 928l-23 -126h-74l23 126h74zM303 247l-168 493h82l136 -415l292 415h81l-349 -493l-45 -247h-74z" />
    <glyph glyph-name="Adieresis" unicode="&#xc4;" horiz-adv-x="740" 
d="M650 928l-23 -126h-74l23 126h74zM502 928l-23 -126h-74l23 126h74zM282 316h287l-80 340zM462 740h83l184 -740h-81l-62 249h-344l-153 -249h-77z" />
    <glyph glyph-name="Icircumflex" unicode="&#xce;" horiz-adv-x="226" 
d="M249 927h66l121 -125h-89l-73 73l-101 -73h-91zM210 740h74l-134 -740h-74z" />
    <glyph glyph-name="idieresis" unicode="&#xef;" horiz-adv-x="200" 
d="M350 765l-23 -126h-74l23 126h74zM202 765l-23 -126h-74l23 126h74zM164 547h70l-99 -547h-70z" />
    <glyph glyph-name="Oacute" unicode="&#xd3;" horiz-adv-x="869" 
d="M736 949l22 -60l-218 -107l-22 58zM183 366q-12 -63 3 -120t50.5 -99.5t88.5 -67.5t118 -25q64 0 126.5 24.5t114 67t87.5 100t48 123.5q12 65 -3 122.5t-50 101t-88 68.5t-119 25q-63 0 -124.5 -24t-113.5 -67t-88.5 -101.5t-49.5 -127.5zM109 366q16 87 62.5 158.5
t110.5 122.5t139.5 78.5t149.5 27.5q78 0 143.5 -29t110.5 -80.5t64 -121.5t4 -152t-60 -152t-108.5 -121.5t-139.5 -80.5t-154 -29q-79 0 -144.5 30t-109.5 81.5t-63 120.5t-5 147z" />
    <glyph glyph-name="aring" unicode="&#xe5;" horiz-adv-x="683" 
d="M418 703q-4 -21 8 -36t33 -15q22 0 40 15t22 36q4 22 -8.5 37t-34.5 15q-20 0 -38 -15t-22 -37zM366 703q4 21 15.5 40t28 33.5t37 22.5t41.5 8q22 0 39.5 -8t28.5 -22t16 -33t1 -41q-4 -21 -16 -40t-28.5 -33t-37 -22t-41.5 -8t-38.5 8t-29 22t-16 33t-0.5 40zM161 272
q-8 -46 0.5 -86.5t32.5 -70.5t62.5 -47.5t88.5 -17.5q44 0 87 17t78 46.5t60 70.5t34 89q8 45 -1 86t-32.5 71.5t-60.5 49t-84 18.5q-45 0 -88.5 -16t-79.5 -45t-62 -71t-35 -94zM621 0h-70l17 96h-2q-29 -34 -60.5 -55t-63 -33t-60 -16.5t-49.5 -4.5q-65 0 -114.5 23
t-81.5 62t-44 91.5t-1 111.5q10 55 40 106.5t75.5 91.5t104.5 64t126 24q22 0 49 -4.5t54 -16.5t50.5 -33.5t39.5 -55.5h2l17 96h70z" />
    <glyph glyph-name="trademark" unicode="&#x2122;" horiz-adv-x="1000" 
d="M465 740h78l98 -365l230 365h79l-81 -444h-55l68 372h-2l-231 -372h-46l-94 371h-2l-68 -371h-55zM240 693h-105l8 47h265l-8 -47h-105l-73 -397h-55z" />
    <glyph glyph-name="ograve" unicode="&#xf2;" horiz-adv-x="655" 
d="M562 677l-44 -58l-178 107l43 60zM161 271q-9 -48 1.5 -88.5t35.5 -70t61 -46t78 -16.5q40 0 81.5 15.5t77 44.5t62 71t36.5 96t-3 95.5t-40 69t-62.5 42t-70.5 14.5q-38 0 -79 -15t-77.5 -44t-63.5 -71.5t-37 -96.5zM91 270q12 65 46 118.5t81 92t102 59.5t109 21
q61 0 109 -24t79.5 -63.5t43.5 -91.5t2 -108t-41 -108t-77 -91.5t-103 -63.5t-118 -24q-60 0 -107.5 23.5t-79 62.5t-44 90t-2.5 107z" />
    <glyph glyph-name="udieresis" unicode="&#xfc;" horiz-adv-x="608" 
d="M554 765l-23 -126h-74l23 126h74zM406 765l-23 -126h-74l23 126h74zM541 0h-66l15 85h-2q-10 -15 -27 -32.5t-41 -32t-55.5 -24t-69.5 -9.5q-41 0 -70 8.5t-49.5 21t-33.5 27t-20 25.5q-11 18 -16.5 39.5t-6.5 44.5t1 46.5t6 45.5l55 302h70l-55 -301q-9 -52 -5 -86.5
t18 -57.5q23 -32 56 -42t62 -10t60.5 9t63.5 35q14 12 26.5 25.5t24 32.5t20.5 44.5t16 61.5l52 289h70z" />
    <glyph glyph-name="edieresis" unicode="&#xeb;" horiz-adv-x="650" 
d="M575 765l-23 -126h-74l23 126h74zM427 765l-23 -126h-74l23 126h74zM593 311q1 48 -15 83.5t-41.5 58.5t-58 34t-65.5 11q-32 0 -68.5 -11t-70.5 -34t-63 -58.5t-45 -83.5h427zM155 248q-6 -40 6 -76t36.5 -63t59 -43t74.5 -16q37 1 71 11.5t62 28t50 40.5t36 49h74
q-22 -41 -54.5 -76t-72 -61t-85 -40.5t-92.5 -14.5q-57 0 -105 22t-80 60.5t-45.5 90.5t-2.5 113q10 58 41.5 110t77.5 91t102 62.5t116 24.5q45 0 81 -12.5t63 -32.5t45.5 -45t28.5 -50q17 -39 19.5 -78t-4.5 -75l-2 -10l-2 -10h-498z" />
    <glyph glyph-name="plusminus" unicode="&#xb1;" horiz-adv-x="606" 
d="M59 44h504l-13 -68h-504zM363 518h68l-33 -178h218l-12 -68h-218l-32 -178h-68l32 178h-218l12 68h218z" />
    <glyph glyph-name="aacute" unicode="&#xe1;" horiz-adv-x="683" 
d="M574 786l21 -60l-218 -107l-22 58zM161 272q-8 -46 0.5 -86.5t32.5 -70.5t62.5 -47.5t88.5 -17.5q44 0 87 17t78 46.5t60 70.5t34 89q8 45 -1 86t-32.5 71.5t-60.5 49t-84 18.5q-45 0 -88.5 -16t-79.5 -45t-62 -71t-35 -94zM621 0h-70l17 96h-2q-29 -34 -60.5 -55
t-63 -33t-60 -16.5t-49.5 -4.5q-65 0 -114.5 23t-81.5 62t-44 91.5t-1 111.5q10 55 40 106.5t75.5 91.5t104.5 64t126 24q22 0 49 -4.5t54 -16.5t50.5 -33.5t39.5 -55.5h2l17 96h70z" />
    <glyph glyph-name="Idieresis" unicode="&#xcf;" horiz-adv-x="226" 
d="M393 928l-23 -126h-74l23 126h74zM245 928l-23 -126h-74l23 126h74zM210 740h74l-134 -740h-74z" />
    <glyph glyph-name="igrave" unicode="&#xec;" horiz-adv-x="200" 
d="M294 677l-44 -58l-178 107l43 60zM164 547h70l-99 -547h-70z" />
    <glyph glyph-name="Iacute" unicode="&#xcd;" horiz-adv-x="226" 
d="M414 949l22 -60l-218 -107l-22 58zM210 740h74l-134 -740h-74z" />
    <glyph glyph-name="copyright" unicode="&#xa9;" horiz-adv-x="747" 
d="M500 701q-70 0 -134.5 -26.5t-116.5 -72t-88 -105.5t-48 -127q-12 -68 2 -128t50 -105t91 -71.5t124 -26.5q67 0 131.5 26t117 70.5t89 105t49.5 129.5q12 67 -2 127t-50 105.5t-91 72t-124 26.5zM511 752q79 0 143 -30.5t106 -82.5t59 -121.5t3 -147.5
q-15 -80 -58 -149.5t-104.5 -121t-136 -81.5t-152.5 -30q-80 0 -144.5 30.5t-106.5 82.5t-59 121.5t-3 147.5t56.5 147.5t103.5 121.5t136.5 82.5t156.5 30.5zM597 447q-2 31 -12.5 51t-27 31t-37.5 15t-42 4q-73 0 -125 -46.5t-67 -130.5t20 -130.5t108 -46.5q21 0 43.5 4
t43 15t38 30.5t30.5 51.5h55q-9 -30 -29 -57.5t-49 -48.5t-65 -33.5t-76 -12.5q-49 0 -86 17.5t-59.5 48t-30 72t1.5 90.5t32 90.5t56.5 72t76.5 48t92 17.5q40 0 71.5 -12.5t53 -33.5t31.5 -48.5t8 -57.5h-55z" />
    <glyph glyph-name="adieresis" unicode="&#xe4;" horiz-adv-x="683" 
d="M591 765l-23 -126h-74l23 126h74zM443 765l-23 -126h-74l23 126h74zM161 272q-8 -46 0.5 -86.5t32.5 -70.5t62.5 -47.5t88.5 -17.5q44 0 87 17t78 46.5t60 70.5t34 89q8 45 -1 86t-32.5 71.5t-60.5 49t-84 18.5q-45 0 -88.5 -16t-79.5 -45t-62 -71t-35 -94zM621 0h-70
l17 96h-2q-29 -34 -60.5 -55t-63 -33t-60 -16.5t-49.5 -4.5q-65 0 -114.5 23t-81.5 62t-44 91.5t-1 111.5q10 55 40 106.5t75.5 91.5t104.5 64t126 24q22 0 49 -4.5t54 -16.5t50.5 -33.5t39.5 -55.5h2l17 96h70z" />
    <glyph glyph-name="agrave" unicode="&#xe0;" horiz-adv-x="683" 
d="M576 677l-44 -58l-178 107l43 60zM161 272q-8 -46 0.5 -86.5t32.5 -70.5t62.5 -47.5t88.5 -17.5q44 0 87 17t78 46.5t60 70.5t34 89q8 45 -1 86t-32.5 71.5t-60.5 49t-84 18.5q-45 0 -88.5 -16t-79.5 -45t-62 -71t-35 -94zM621 0h-70l17 96h-2q-29 -34 -60.5 -55t-63 -33
t-60 -16.5t-49.5 -4.5q-65 0 -114.5 23t-81.5 62t-44 91.5t-1 111.5q10 55 40 106.5t75.5 91.5t104.5 64t126 24q22 0 49 -4.5t54 -16.5t50.5 -33.5t39.5 -55.5h2l17 96h70z" />
    <glyph glyph-name="Igrave" unicode="&#xcc;" horiz-adv-x="226" 
d="M337 840l-44 -58l-178 107l42 60zM210 740h74l-134 -740h-74z" />
    <glyph glyph-name="Ocircumflex" unicode="&#xd4;" horiz-adv-x="869" 
d="M571 927h66l121 -125h-89l-73 73l-101 -73h-91zM183 366q-12 -63 3 -120t50.5 -99.5t88.5 -67.5t118 -25q64 0 126.5 24.5t114 67t87.5 100t48 123.5q12 65 -3 122.5t-50 101t-88 68.5t-119 25q-63 0 -124.5 -24t-113.5 -67t-88.5 -101.5t-49.5 -127.5zM109 366
q16 87 62.5 158.5t110.5 122.5t139.5 78.5t149.5 27.5q78 0 143.5 -29t110.5 -80.5t64 -121.5t4 -152t-60 -152t-108.5 -121.5t-139.5 -80.5t-154 -29q-79 0 -144.5 30t-109.5 81.5t-63 120.5t-5 147z" />
    <glyph glyph-name="egrave" unicode="&#xe8;" horiz-adv-x="650" 
d="M559 677l-44 -58l-178 107l43 60zM593 311q1 48 -15 83.5t-41.5 58.5t-58 34t-65.5 11q-32 0 -68.5 -11t-70.5 -34t-63 -58.5t-45 -83.5h427zM155 248q-6 -40 6 -76t36.5 -63t59 -43t74.5 -16q37 1 71 11.5t62 28t50 40.5t36 49h74q-22 -41 -54.5 -76t-72 -61t-85 -40.5
t-92.5 -14.5q-57 0 -105 22t-80 60.5t-45.5 90.5t-2.5 113q10 58 41.5 110t77.5 91t102 62.5t116 24.5q45 0 81 -12.5t63 -32.5t45.5 -45t28.5 -50q17 -39 19.5 -78t-4.5 -75l-2 -10l-2 -10h-498z" />
    <glyph glyph-name="atilde" unicode="&#xe3;" horiz-adv-x="683" 
d="M639 690q-27 -18 -54.5 -28.5t-50.5 -10.5q-25 0 -43.5 7.5t-32.5 13.5q-20 11 -32.5 15.5t-28.5 4.5q-18 0 -37.5 -8.5t-35.5 -21.5l-26 50q52 42 112 42q26 0 42.5 -6.5t33.5 -15.5q7 -3 24 -11t34 -8q16 0 29.5 6t38.5 20zM161 272q-8 -46 0.5 -86.5t32.5 -70.5
t62.5 -47.5t88.5 -17.5q44 0 87 17t78 46.5t60 70.5t34 89q8 45 -1 86t-32.5 71.5t-60.5 49t-84 18.5q-45 0 -88.5 -16t-79.5 -45t-62 -71t-35 -94zM621 0h-70l17 96h-2q-29 -34 -60.5 -55t-63 -33t-60 -16.5t-49.5 -4.5q-65 0 -114.5 23t-81.5 62t-44 91.5t-1 111.5
q10 55 40 106.5t75.5 91.5t104.5 64t126 24q22 0 49 -4.5t54 -16.5t50.5 -33.5t39.5 -55.5h2l17 96h70z" />
    <glyph glyph-name="Udieresis" unicode="&#xdc;" horiz-adv-x="655" 
d="M607 928l-23 -126h-74l23 126h74zM459 928l-23 -126h-74l23 126h74zM283 740l-84 -461q-7 -41 -7 -76t8 -58q11 -31 29 -49t37.5 -27.5t38 -12t31.5 -2.5t33 2.5t43 12t47 27.5t47 49q17 23 29.5 58t19.5 76l84 461h74l-84 -461q-8 -47 -22.5 -86t-33.5 -68
q-27 -42 -59.5 -68.5t-66 -42t-65.5 -21.5t-58 -6t-56 6t-58 21.5t-50.5 42t-34.5 68.5q-17 59 0 154l84 461h74z" />
    <glyph glyph-name="ecircumflex" unicode="&#xea;" horiz-adv-x="650" 
d="M432 764h66l120 -125h-89l-73 73l-101 -73h-91zM593 311q1 48 -15 83.5t-41.5 58.5t-58 34t-65.5 11q-32 0 -68.5 -11t-70.5 -34t-63 -58.5t-45 -83.5h427zM155 248q-6 -40 6 -76t36.5 -63t59 -43t74.5 -16q37 1 71 11.5t62 28t50 40.5t36 49h74q-22 -41 -54.5 -76
t-72 -61t-85 -40.5t-92.5 -14.5q-57 0 -105 22t-80 60.5t-45.5 90.5t-2.5 113q10 58 41.5 110t77.5 91t102 62.5t116 24.5q45 0 81 -12.5t63 -32.5t45.5 -45t28.5 -50q17 -39 19.5 -78t-4.5 -75l-2 -10l-2 -10h-498z" />
    <glyph glyph-name="numbersign" unicode="#" 
d="M321 467l-63 -194h123l63 194h-123zM167 206h-97l12 67h107l61 193h-107l13 68h117l66 206h69l-66 -206h124l66 206h69l-66 -206h83l-12 -67h-93l-63 -194h92l-12 -67h-101l-66 -206h-69l66 206h-124l-66 -206h-69z" />
    <glyph glyph-name="exclam" unicode="!" horiz-adv-x="295" 
d="M245 740h74l-99 -547h-74zM133 126h74l-22 -126h-74z" />
    <glyph glyph-name="quotedbl" unicode="&#x22;" horiz-adv-x="309" 
d="M284 444l42 296h81l-66 -296h-57zM128 444l42 296h81l-66 -296h-57z" />
    <glyph glyph-name="Lslash" unicode="&#x141;" horiz-adv-x="517" 
d="M119 334l89 56l63 350h74l-54 -296l174 111l-14 -77l-174 -111l-54 -300h306l-12 -67h-380l57 313l-89 -56z" />
    <glyph glyph-name="lslash" unicode="&#x142;" horiz-adv-x="300" 
d="M94 283l13 71l79 51l61 335h70l-51 -284l86 55l-13 -70l-86 -55l-70 -386h-70l61 335z" />
    <glyph glyph-name="onesuperior" unicode="&#xb9;" horiz-adv-x="332" 
d="M263 686h-75l9 54h135l-81 -444h-60z" />
    <glyph glyph-name="minus" unicode="&#x2212;" horiz-adv-x="606" 
d="M103 287h504l-13 -68h-504z" />
    <glyph glyph-name="onequarter" unicode="&#xbc;" horiz-adv-x="831" 
d="M643 78h-225l9 49l276 317h65l-56 -312h41l-10 -54h-41l-14 -78h-59zM300 686h-75l9 54h135l-81 -444h-60zM653 132l40 222h-2l-189 -222h151zM650 740h60l-467 -740h-60z" />
    <glyph glyph-name="onehalf" unicode="&#xbd;" horiz-adv-x="831" 
d="M459 49l185 147q24 19 42 34t30.5 28.5t20 26.5t10.5 28t-0.5 30t-13 27t-24 19.5t-34.5 7.5q-41 0 -69 -25.5t-39 -81.5h-60l1 5q10 53 34 84t52 47t54 20.5t39 4.5q34 0 59 -12.5t40 -32.5t20 -44t1 -46l-1 -4q-4 -24 -14.5 -44t-25.5 -36.5t-32 -31t-35 -28.5
l-151 -118h210l-9 -54h-298zM281 686h-75l9 54h135l-81 -444h-60zM631 740h60l-467 -740h-60z" />
    <glyph glyph-name="Eth" unicode="&#xd0;" horiz-adv-x="790" 
d="M251 347l-51 -280h107q25 0 56 1t65.5 6.5t71 17.5t72.5 35q19 14 43.5 36t47.5 52t41.5 69t27.5 87q14 74 -8 138.5t-73 106.5q-44 32 -98 44.5t-136 12.5h-107l-47 -259h210l-12 -67h-210zM103 347l12 67h74l59 326h212q83 0 142.5 -18.5t100 -49t64 -69.5t34 -80.5
t11 -82t-5.5 -72.5q-5 -25 -17.5 -62t-36 -78t-60 -81.5t-87.5 -73t-119 -53t-156 -20.5h-216l63 347h-74z" />
    <glyph glyph-name="brokenbar" unicode="&#xa6;" horiz-adv-x="672" 
d="M409 203l-63 -350h-74l63 350h74zM501 703l-64 -350h-74l64 350h74z" />
    <glyph glyph-name="thorn" unicode="&#xfe;" horiz-adv-x="682" 
d="M622 272q9 52 -1.5 94t-36 71t-63 45t-82.5 16q-47 0 -90.5 -18.5t-78.5 -49t-59 -71.5t-32 -86q-9 -48 1.5 -89t35 -70.5t61.5 -46.5t81 -17q50 0 94.5 17.5t79.5 47.5t58.5 70.5t31.5 86.5zM198 740h70l-52 -289h2q29 34 61 55.5t62.5 33.5t59 16.5t50.5 4.5
q67 0 117 -24t81 -64t42.5 -91.5t1.5 -106.5q-11 -59 -42.5 -111.5t-77.5 -91.5t-104.5 -62t-122.5 -23q-21 0 -47.5 4.5t-53.5 16.5t-51 33.5t-41 54.5h-2l-52 -288h-70z" />
    <glyph glyph-name="yacute" unicode="&#xfd;" horiz-adv-x="536" 
d="M521 786l21 -60l-218 -107l-22 58zM231 18l-117 529h74l95 -436l265 436h74l-451 -739h-73z" />
    <glyph glyph-name="eth" unicode="&#xf0;" horiz-adv-x="655" 
d="M274 577l-43 39l155 55q-33 19 -61.5 31t-46.5 18l84 33q12 -4 41.5 -16t67.5 -35l143 51l41 -37l-134 -49q39 -32 71 -71t52.5 -86t27 -102.5t-5.5 -121.5t-45.5 -121t-80 -94.5t-102.5 -61t-114 -21.5q-65 0 -113 24.5t-78 64.5t-40.5 92t-0.5 107q11 59 43 110.5
t77 89.5t98 60t106 22h7q43 0 75.5 -10.5t62.5 -35.5l2 2q-20 37 -53 68t-70 56zM161 272q-9 -51 2 -92t36 -69.5t60.5 -44t75.5 -15.5q37 0 78.5 14.5t78.5 43t64.5 71.5t37.5 99q10 55 -3 96t-40.5 67.5t-64 39.5t-72.5 13q-31 0 -70.5 -12t-76 -38t-66 -69t-40.5 -104z
" />
    <glyph glyph-name="Scaron" unicode="&#x160;" horiz-adv-x="498" 
d="M326 927l73 -73l101 73h89l-165 -125h-67l-123 125h92zM133 207q-10 -70 23.5 -111.5t102.5 -41.5q29 0 58 10.5t53 30t41.5 46.5t23.5 60q8 43 -5.5 71t-37 45.5t-49.5 26.5t-44 15q-24 7 -55 18t-57 32t-40.5 55.5t-4.5 89.5q8 43 30.5 79.5t55.5 63t74 41.5t85 15
q45 0 80 -16t57 -44t30 -64.5t1 -76.5h-74q5 28 -1 52.5t-20.5 42.5t-36.5 28.5t-48 10.5q-32 0 -59 -11t-47.5 -29.5t-34 -41.5t-17.5 -47q-6 -34 4 -56t31 -37t51 -25.5t65 -20.5q43 -12 70.5 -31t43.5 -40.5t22.5 -44t8 -42t0 -34.5t-2.5 -21v-1q-8 -43 -31.5 -82
t-58.5 -69t-79.5 -48t-93.5 -18q-36 0 -73.5 11.5t-66 37.5t-43.5 68t-5 103h74z" />
    <glyph glyph-name="multiply" unicode="&#xd7;" horiz-adv-x="606" 
d="M87 72l215 182l-148 180l56 48l149 -180l212 180l40 -48l-213 -180l148 -182l-57 -48l-148 182l-215 -182z" />
    <glyph glyph-name="twosuperior" unicode="&#xb2;" horiz-adv-x="332" 
d="M81 345l185 147q24 19 42 34t30.5 28.5t19.5 26.5t10 28t-0.5 30t-12.5 27t-23.5 19.5t-34.5 7.5q-41 0 -69 -25.5t-39 -81.5h-60l1 5q10 53 34 84t52 47t54 20.5t39 4.5q34 0 59 -12.5t40 -32.5t20 -44t1 -46l-1 -4q-5 -24 -15.5 -44t-25 -36.5t-31.5 -31t-35 -28.5
l-151 -118h210l-10 -54h-298z" />
    <glyph glyph-name="zcaron" unicode="&#x17e;" horiz-adv-x="425" 
d="M261 764l72 -73l102 73h89l-166 -125h-67l-122 125h92zM21 61l380 423h-293l11 63h377l-11 -63l-377 -421h318l-11 -63h-405z" />
    <glyph glyph-name="Yacute" unicode="&#xdd;" horiz-adv-x="592" 
d="M578 949l22 -60l-218 -107l-22 58zM303 247l-168 493h82l136 -415l292 415h81l-349 -493l-45 -247h-74z" />
    <glyph glyph-name="threesuperior" unicode="&#xb3;" horiz-adv-x="332" 
d="M160 618q7 37 23.5 61.5t37.5 39.5t43 21.5t41 6.5q27 0 47 -9.5t33 -26t17.5 -37.5t0.5 -44q-6 -33 -22 -50.5t-33 -29.5q29 -20 42.5 -49t6.5 -66q-6 -33 -23 -59.5t-41 -46t-53 -30t-58 -10.5q-11 0 -35 4t-46.5 20t-36.5 47t-5 85h60q-2 -18 -2.5 -32t7.5 -27
q8 -16 23 -29.5t45 -13.5q40 0 68.5 24.5t36.5 66.5q4 25 -9.5 50t-45.5 32q-17 4 -57 4l10 54h24q23 0 38.5 6t25.5 15t14.5 19t6.5 18q1 8 -0.5 18t-6.5 19.5t-15.5 16t-28.5 7.5q-9 -1 -20 -4.5t-21.5 -11.5t-19 -22.5t-12.5 -36.5h-60z" />
    <glyph glyph-name="Zcaron" unicode="&#x17d;" horiz-adv-x="480" 
d="M317 927l73 -73l101 73h89l-165 -125h-67l-123 125h92zM24 67l474 606h-353l12 67h436l-12 -67l-473 -606h374l-12 -67h-458z" />
    <glyph glyph-name="threequarters" unicode="&#xbe;" horiz-adv-x="831" 
d="M188 618q7 37 23.5 61.5t37.5 39.5t43 21.5t41 6.5q27 0 47 -9.5t33 -26t17.5 -37.5t0.5 -44q-6 -33 -22 -50.5t-33 -29.5q29 -20 42.5 -49t6.5 -66q-6 -33 -23 -59.5t-41 -46t-53 -30t-58 -10.5q-11 0 -35 4t-46.5 20t-36.5 47t-5 85h60q-2 -18 -2.5 -32t7.5 -27
q8 -16 23 -29.5t45 -13.5q40 0 68.5 24.5t36.5 66.5q4 25 -9.5 50t-45.5 32q-10 2 -20.5 2.5t-36.5 1.5l10 54h24q23 0 38.5 6t25.5 15t14.5 19t6.5 18q1 8 -0.5 18t-6.5 19.5t-15.5 16t-28.5 7.5q-9 -1 -20 -4.5t-21.5 -11.5t-19 -22.5t-12.5 -36.5h-60zM698 78h-225l9 49
l276 317h65l-56 -312h41l-10 -54h-41l-14 -78h-59zM720 740h60l-467 -740h-60zM708 132l40 222h-2l-189 -222h151z" />
    <glyph glyph-name="Euro" unicode="&#x20ac;" 
d="M635 587q-8 18 -20.5 36t-32 32t-46 22.5t-60.5 8.5q-48 0 -86 -20.5t-65.5 -52t-44.5 -70.5t-23 -75h311l-37 -63h-287l-12 -70h259l-37 -63h-232q-2 -15 -3 -34t-0.5 -38.5t4 -38t9.5 -31.5q20 -42 55 -59t73 -17q21 0 46 5t48.5 14t44 22.5t33.5 30.5l-15 -87
q-6 -6 -20 -14.5t-35.5 -17t-50 -14.5t-63.5 -6q-32 0 -62 7t-56 22.5t-46 40.5t-32 61q-11 32 -10.5 72t6.5 82h-91l37 63h64l12 70h-89l37 63h65q10 53 34 104.5t62 91.5t90.5 64.5t118.5 24.5q38 0 69 -9t55 -22.5t40.5 -30.5t25.5 -32z" />
    <glyph glyph-name="scaron" unicode="&#x161;" horiz-adv-x="388" 
d="M242 764l72 -73l102 73h89l-166 -125h-67l-122 125h92zM123 162q-6 -39 1.5 -61.5t21.5 -33.5t30 -14t25 -3q50 0 80.5 26.5t38.5 71.5q5 28 -3 46t-22 30t-32 19.5t-32 13.5q-20 7 -43 17t-42 27.5t-29 43t-3 64.5q5 29 20.5 56.5t39 48.5t55 34t69.5 13q30 0 55 -11
t42 -30.5t24 -46.5t1 -59v-2h-70q3 25 -3 41.5t-16.5 26.5t-23 14t-24.5 4q-21 0 -38 -7.5t-29.5 -19.5t-20 -26.5t-10.5 -28.5q-4 -22 3 -37t20 -25.5t29 -17t30 -11.5q22 -8 47.5 -19.5t45.5 -30.5t30 -48t2 -71v-2q-6 -35 -22.5 -65.5t-42 -53t-60.5 -35.5t-78 -13
q-28 0 -56 9.5t-49 30t-30.5 52.5t-1.5 77l1 6h70z" />
    <glyph glyph-name="Thorn" unicode="&#xde;" horiz-adv-x="592" 
d="M173 216h107q30 0 51 0.5t37.5 2t31 5.5t31.5 11q48 20 75.5 56.5t35.5 78.5t-6.5 78.5t-54.5 56.5q-15 7 -28 11t-29.5 5.5t-37 2t-50.5 0.5h-107zM194 740h74l-27 -149h132q38 0 66.5 -3t50 -8.5t37 -13.5t29.5 -18q37 -28 54 -73.5t6 -104.5t-44.5 -104.5t-80.5 -73.5
q-17 -10 -35.5 -18t-42 -13.5t-53 -8.5t-67.5 -3h-132l-27 -149h-74z" />
    <glyph glyph-name="nonbreakingspace" horiz-adv-x="277" 
 />
    </font>
</defs>
</svg>
